SplineFontDB: 3.0
FontName: Experiment-Sinhala
FullName: Experiment-Sinhala
FamilyName: Experiment-Sinhala
Weight: Regular
Copyright: Copyright (c) 2015, Pathum Egodawatta
UComments: "2015-9-29: Created with FontForge (http://fontforge.org)"
Version: 0.001
ItalicAngle: 0
UnderlinePosition: -99
UnderlineWidth: 49
Ascent: 750
Descent: 250
InvalidEm: 0
LayerCount: 4
Layer: 0 0 "Back" 1
Layer: 1 0 "Fore" 0
Layer: 2 0 "Back 3" 1
Layer: 3 0 "s1" 1
PreferredKerning: 4
XUID: [1021 779 -1439063335 14876943]
FSType: 0
OS2Version: 0
OS2_WeightWidthSlopeOnly: 0
OS2_UseTypoMetrics: 1
CreationTime: 1443542790
ModificationTime: 1462301010
PfmFamily: 17
TTFWeight: 400
TTFWidth: 5
LineGap: 122
VLineGap: 0
OS2TypoAscent: 879
OS2TypoAOffset: 0
OS2TypoDescent: -250
OS2TypoDOffset: 0
OS2TypoLinegap: 122
OS2WinAscent: 879
OS2WinAOffset: 0
OS2WinDescent: 49
OS2WinDOffset: 0
HheadAscent: 779
HheadAOffset: 0
HheadDescent: -27
HheadDOffset: 0
OS2CapHeight: 0
OS2XHeight: 0
OS2Vendor: 'PfEd'
Lookup: 4 0 0 "'abvs' Above Base Substitutions in Sinhala lookup 0" { "'abvs' Above Base Substitutions in Sinhala lookup 0-1"  "'abvs' Above Base Substitutions in Sinhala lookup 0-2"  } ['abvs' ('DFLT' <'dflt' > 'sinh' <'dflt' > ) ]
Lookup: 4 0 0 "si_akhands" { "si_akhands subtable"  } ['akhn' ('sinh' <'dflt' > ) ]
Lookup: 4 0 0 "si_reph" { "si_reph subtable"  } ['rphf' ('sinh' <'dflt' > ) ]
Lookup: 4 0 0 "si_halant_1" { "si_halant_1 subtable"  } ['abvs' ('sinh' <'dflt' > ) ]
Lookup: 4 0 0 "si_halant_2" { "si_halant_2 subtable"  } ['abvs' ('sinh' <'dflt' > ) ]
Lookup: 4 0 0 "si_halant_3" { "si_halant_3 subtable"  } ['abvs' ('sinh' <'dflt' > ) ]
Lookup: 4 0 0 "si_abvs_1" { "si_abvs_1 subtable"  } ['abvs' ('sinh' <'dflt' > ) ]
Lookup: 4 0 0 "si_abvs_2" { "si_abvs_2 subtable"  } ['abvs' ('sinh' <'dflt' > ) ]
Lookup: 4 0 0 "si_abvs_3" { "si_abvs_3 subtable"  } ['abvs' ('sinh' <'dflt' > ) ]
Lookup: 4 0 0 "si_abvs_4" { "si_abvs_4 subtable"  } ['abvs' ('sinh' <'dflt' > ) ]

StartChar: si_Tta
Encoding: 34 3495 0
GlifName: si_T_ta
Width: 783
VWidth: -14
Flags: HMW
LayerCount: 4
Back
SplineSet
353.442382812 334 m 1
 327.442382812 346 293.442382812 352 260.442382812 350 c 0
 190.369140625 345.8515625 117.307617188 292.790039062 116.442382812 208 c 0
 115.355802726 108.803477281 199.944466063 42.2948424889 367.442382812 43 c 4
 557.228705606 43.7949037201 650.722119379 185.697659139 656.442382812 327 c 0
 665.150342129 540.589788945 569.467974964 673.364858982 358.442382812 676 c 0
 223.275384718 677.536957205 121.442382812 595 118.442382812 595 c 1
 85.4423828125 648 l 0
 136.296506486 685.638514727 246.850823715 734.567254144 360.442382812 734 c 0
 588.166195662 732.855778392 728.943480374 561.636312573 728.442382812 332 c 0
 727.995573089 105.602165284 585.341587056 -56.8921832884 361.442382812 -59 c 0
 155.835286459 -60.677734375 38.7778735192 38.0029296875 35.4423828125 176 c 0
 32.1533989173 320.966632951 154.427734375 394.418945312 265.442382812 398 c 0
 327.442382812 400 367.442382812 379 367.442382812 379 c 1
 353.442382812 334 l 1
EndSplineSet
Fore
SplineSet
35.3774587946 181.69974939 m 0
 35.3774587946 324.826062289 158.736177519 398.134297521 273.758874172 398.134297521 c 0
 330.99610182 398.134297521 367.442382812 379 367.442382812 379 c 1
 353.442382812 334 l 1
 330.744815811 344.475800154 301.950449427 350.379000772 273.046988528 350.379000772 c 0
 194.004599422 350.379000772 116.432046656 296.252203686 116.432046656 206.116663248 c 0
 116.432046656 108.481461729 200.114923593 42.9944465122 364.80978819 42.9944465122 c 0
 573.464279831 42.9944465122 656.929174443 184.61416029 656.929174443 342.059054428 c 0
 656.929174443 557.849234116 547.191173056 676.029288645 344.067371201 676.029288645 c 0
 211.086920286 676.029288645 111.409927355 595 108.442382812 595 c 1
 75.4423828125 648 l 1
 126.004064252 685.422070306 235.581288439 734.004887306 348.483032628 734.004887306 c 0
 572.805901132 734.004887306 727.581054688 574.990794214 727.581054688 335 c 0
 727.581054688 98.624295654 592.638180882 -59.0210713393 356.292046557 -59.0210713393 c 0
 152.527091621 -59.0210713393 35.3774587946 40.0140048816 35.3774587946 181.69974939 c 0
EndSplineSet
Layer: 2
SplineSet
374.567382812 272 m 5
 228.567382812 288 125.567382812 252 127.567382812 158 c 4
 128.567382812 94 181.567382812 42 321.567382812 43 c 4
 490.567382812 44 599.264648438 173.225585938 607.567382812 326 c 4
 617.567382812 510 514.263671875 659.0234375 320.567382812 648 c 4
 197.567382812 641 104.567382812 580 101.567382812 580 c 5
 78.5673828125 627 l 5
 118.567382812 651 223.567382812 706 351.567382812 706 c 4
 568.567382812 705 688.567382812 537 678.567382812 321 c 4
 668.669921875 107.228515625 545.567382812 -56 299.567382812 -58 c 4
 163.567382812 -59 44.5673828125 8 44.5673828125 137 c 4
 44.5673828125 291 203.567382812 335 325.567382812 328 c 5
 335.567382812 388 302.567382812 438 210.567382812 438 c 5
 184.567382812 357 l 5
 133.567382812 350 98.5673828125 379 107.567382812 425 c 4
 117.567382812 481 175.567382812 500 222.567382812 500 c 4
 298.567382812 500 381.567382812 469 382.567382812 359 c 4
 382.567382812 323 374.567382812 272 374.567382812 272 c 5
EndSplineSet
Layer: 3
EndChar

StartChar: si_Pa
Encoding: 46 3508 1
GlifName: si_P_a
Width: 788
VWidth: -24
Flags: HMW
LayerCount: 4
Back
SplineSet
505.01953125 352 m 1
 457.01953125 333 l 1
 449.01953125 358 442.01953125 384 442.01953125 426 c 0
 443.01953125 512 524.01953125 556 585.01953125 556 c 0
 668.01953125 556 720.01953125 507 720.01953125 427 c 0
 720.01953125 349 623.01953125 309 623.01953125 309 c 1
 607.01953125 326 l 1
 641.071289062 347.129882812 655.903320312 377.10546875 656.01953125 417 c 0
 656.154296875 463 622.01953125 494 563.01953125 494 c 0
 516.01953125 494 480.01953125 462 480.01953125 419 c 0
 480.01953125 367 505.01953125 352 505.01953125 352 c 1
124.01953125 209 m 0
 123.01953125 124 208.01953125 45 393.01953125 45 c 0
 568.01953125 45 668.470703125 127.008789062 670.01953125 216 c 0
 671.794921875 318.00390625 554.01953125 348 457.01953125 333 c 1
 477.01953125 373 l 1
 622.01953125 402 745.01953125 331 741.01953125 193 c 0
 736.01953125 29 569.01953125 -59 388.01953125 -59 c 0
 194.01953125 -59 43.01953125 33 45.01953125 180 c 0
 47.01953125 339 213.01953125 394 321.01953125 384 c 1
 297.01953125 345 l 1
 304.01953125 365 317.392578125 386.33203125 313.01953125 415 c 0
 304.01953125 474 244.01953125 505 176.01953125 490 c 0
 209.01953125 511 l 1
 154.01953125 409 l 1
 113.01953125 411 86.6201171875 436.013671875 88.01953125 471 c 0
 90.01953125 521 147.01953125 557 207.01953125 557 c 0
 277.01953125 557 349.01953125 517 351.01953125 439 c 0
 352.01953125 402 346.01953125 370 337.01953125 333 c 1
 213.01953125 351 125.01953125 287 124.01953125 209 c 0
EndSplineSet
Fore
SplineSet
207.01953125 569 m 4
 280.920898438 569 351.127929688 527.0234375 351.127929688 442.978515625 c 4
 351.127929688 409.3046875 345.36328125 379.30078125 337.01953125 345 c 5
 322.7265625 347.275390625 308.912109375 348.356445312 295.654296875 348.356445312 c 4
 193.576171875 348.356445312 117.010742188 284.40234375 117.010742188 207.518554688 c 4
 117.010742188 123.084960938 199.09765625 37.9912109375 393.01953125 37 c 4
 588.673828125 36 675.0390625 127.10546875 675.0390625 218.502929688 c 4
 675.0390625 311.252929688 587.720703125 349.006835938 504.326171875 349.006835938 c 4
 488.408203125 349.006835938 472.451171875 347.630859375 457.01953125 345 c 5
 477.01953125 385 l 5
 498.573242188 389.59765625 519.640625 391.83984375 539.876953125 391.83984375 c 4
 653.622070312 391.83984375 741.114257812 321.03125 741.114257812 199.946289062 c 4
 741.114257812 30.0625 570.21484375 -59 388.01953125 -59 c 4
 195.291015625 -59 45 31.798828125 45 177.118164062 c 4
 45 334.90234375 188.390625 397.203125 295.756835938 397.203125 c 4
 304.442382812 397.203125 312.895507812 396.796875 321.01953125 396 c 5
 297.01953125 357 l 5
 303.069335938 374.28515625 313.879882812 392.565429688 313.879882812 415.716796875 c 4
 313.879882812 472.971679688 264.365234375 505.75 209.526367188 505.75 c 4
 198.72265625 505.75 187.484375 504.529296875 176.01953125 502 c 5
 209.01953125 523 l 5
 154.01953125 421 l 5
 114.057617188 422.94921875 87.966796875 446.76171875 87.966796875 480.361328125 c 4
 87.966796875 532.604492188 146.654296875 569 207.01953125 569 c 4
505.01953125 364 m 5
 457.01953125 345 l 5
 449.01953125 370 442.01953125 396 442.01953125 438 c 4
 443.01953125 524 524.01953125 568 585.01953125 568 c 4
 668.01953125 568 720.01953125 519 720.01953125 439 c 4
 720.01953125 361 623.01953125 321 623.01953125 321 c 5
 607.01953125 338 l 5
 641.141601562 359.174804688 655.961914062 389.1875 656.020507812 429.270507812 c 4
 656.020507812 475.12109375 621.904296875 506 563.01953125 506 c 4
 516.01953125 506 480.01953125 474 480.01953125 431 c 4
 480.01953125 379 505.01953125 364 505.01953125 364 c 5
EndSplineSet
Layer: 2
Layer: 3
EndChar

StartChar: si_Va
Encoding: 55 3520 2
GlifName: si_V_a
Width: 780
VWidth: -14
Flags: HMW
LayerCount: 4
Back
SplineSet
386 284 m 5
 250.503597122 301.379310345 123.466247874 252.459206919 128 158 c 4
 131.068944452 87.7909007353 219.271735546 45.1571471554 365 46 c 4
 558.999747213 47.1220420377 667 174.791108795 667 339 c 4
 667 547.71874417 557.941173041 679.712552472 342 677 c 4
 219.063691057 675.455731327 132.310705627 606 129 606 c 5
 97 660 l 5
 139.236417611 688.125 219.378877917 735.634192064 358 735 c 4
 565.816845959 734.018099283 730 582.319357855 730 331 c 4
 730 111.353515625 598.414766771 -48.5793000132 375 -58 c 4
 192.556677605 -65.2548684968 49.349757601 8.03433236137 46 137 c 4
 42.243902439 299.324324324 239.43902439 339.378378378 354 332 c 5
 354 402 304 438 212 438 c 5
 186 357 l 5
 135 350 100.76031191 378.857746694 109 425 c 4
 119 481 177 500 224 500 c 4
 300 500 389.99945787 462.999979147 394 359 c 4
 395.383789062 323.026367188 386 284 386 284 c 5
EndSplineSet
Fore
SplineSet
-558 757 m 1048
223 503 m 0,28,29
 301.04296875 503 394.139273993 460.937250805 394.139273993 351.559540423 c 0,0,0
 394.139273993 317.850536642 386 285 386 285 c 1,0,1
 367.860351562 287.326171875 349.873046875 288.46484375 332.33203125 288.46484375 c 0,0,0
 221.124023438 288.46484375 127.881835938 251.706054688 127.881835938 172.880859375 c 0,0,0
 127.881835938 96.2333984375 219.751953125 43.986328125 370.3828125 43.986328125 c 4,0,0
 563.553710938 43.986328125 675 171.591796875 675 340 c 0,6,7
 675 546.068359375 562.752362713 677.039730556 348.396207374 677.039730556 c 0,0,0
 225.800990947 677.039730556 130.973498065 606 129 606 c 1,10,-1
 99 659 l 1,11,12
 140.63542169 687.311409766 219.390245748 735.006368883 355.27685252 735.006368883 c 0,0,0
 567.305379414 735.006368883 734 586.868812167 734 334 c 0,15,16
 734 105.610719929 600.713867188 -59.4921875 368.008789062 -59.4921875 c 0,0,0
 186.713867188 -59.4921875 50.947265625 22.1328125 50.947265625 149.548828125 c 0,0,0
 50.947265625 296.309570312 212.70940418 332.828491377 327.507290856 332.828491377 c 0,0,0
 336.709666527 332.828491377 345.578125 332.541992188 354 332 c 1,21,22
 354 402 304 438 222 438 c 1,23,-1
 176 357 l 1,24,25
 141.240234375 350.856445312 108.468061652 374.881163208 107.776367188 413.692382812 c 0,0,0
 106.776367188 469.802734375 164.069335938 503 223 503 c 0,28,29
EndSplineSet
Layer: 2
Layer: 3
EndChar

StartChar: si_Ra
Encoding: 53 3515 4
GlifName: si_R_a
Width: 729
VWidth: -5
Flags: HMW
LayerCount: 4
Back
SplineSet
603 785 m 1
 603 707.080078125 536.435546875 660.377929688 428 594 c 0
 300 516 125 415 125 245 c 0
 125 138 214 48 360 48 c 4
 537.439453125 48 602.853515625 143 606 242 c 4
 610.389648438 379.393554688 502.021484375 481 377 481 c 0
 208.249023438 481 137 339 137 339 c 1
 165 428 l 0
 164 431 253.985351562 531.200195312 386 532 c 0
 536.497072311 532.911779604 688.461914062 424.852539062 685 245 c 0
 681.881835938 83.00390625 550.1171875 -52 356 -52 c 0
 153 -52 47.3366726873 93.98512553 55 252 c 0
 67.9033203125 518.061523438 406 604 504 736 c 1
 544 834 l 1
 586.75390625 835.307617188 603 811.384765625 603 785 c 1
EndSplineSet
Fore
SplineSet
675.066618805 251.899164463 m 0
 675.066618805 84.9059161516 551.97675665 -52 356 -52 c 0
 159.88004048 -52 54.6107250228 84.2574075305 54.6107250228 235.980431581 c 0
 54.6107250228 516.426255002 404.42940796 601.884508681 504 736 c 1
 544 834 l 1
 545.121167552 834.03429062 546.224106084 834.05123063 547.309000652 834.05123063 c 0
 587.59480091 834.05123063 603 810.692858249 603 785 c 0
 603 707.080078125 536.435546875 660.377929688 428 594 c 0
 300 516 125 415 125 245 c 0
 125 133.073973286 231.297716313 53.6681819591 366.324043717 53.6681819591 c 0
 532.528814129 53.6681819591 600.15472283 157.20300922 600.15472283 260.633713181 c 0
 600.15472283 392.842255763 511.772068188 484 377 484 c 0
 208.249023438 484 137 339 137 339 c 1
 165 428 l 1
 163.905622903 431.283131291 265.472067896 532.005728598 397.88989189 532.005728598 c 0
 545.667763935 532.005728598 675.066618805 426.866792457 675.066618805 251.899164463 c 0
EndSplineSet
Layer: 2
Layer: 3
EndChar

StartChar: si_Ca
Encoding: 27 3488 5
GlifName: si_C_a
Width: 804
VWidth: -14
Flags: HMW
LayerCount: 4
Back
SplineSet
14 327 m 5
 435 333 l 1
 430 283 l 1
 107 283 l 1
 13 271 l 5
 14 327 l 5
EndSplineSet
Refer: 2 3520 N 1 0 0 1 44 0 2
Fore
SplineSet
13 330 m 1
 435 330 l 1
 435 283 l 1
 13 283 l 1
 13 330 l 1
EndSplineSet
Refer: 2 3520 N 1 0 0 1 44 0 2
Layer: 2
SplineSet
434.541992188 225.029296875 m 5
 433.516601562 225.029296875 398.653320312 225.541992188 355.586914062 225.541992188 c 4
 279.561523438 225.541992188 178.194335938 217.26953125 178.194335938 152.739257812 c 5
 180.30078125 117.782226562 231.788085938 54.419921875 373.53125 53.2763671875 c 4
 523.75 52.064453125 590.9140625 170.841796875 590.9140625 336.284179688 c 5
 590.9140625 521.017578125 524.776367188 628.779296875 355.586914062 636.2109375 c 5
 268.428710938 632.109375 118.208984375 569.047851562 115.1328125 569.047851562 c 5
 98.7265625 610.576171875 l 4
 136.153320312 637.236328125 266.377929688 696.196289062 356.612304688 695.68359375 c 4
 566.817382812 694.658203125 672.9453125 548.540039062 672.9453125 331.157226562 c 4
 672.9453125 112.749023438 585.787109375 -37.470703125 369.4296875 -37.470703125 c 4
 213.057617188 -37.470703125 99.751953125 25.078125 99.751953125 147.099609375 c 4
 99.751953125 277.32421875 247.408203125 289.116210938 247.408203125 289.116210938 c 5
 361.2265625 292.192382812 l 5
 434.541992188 225.029296875 l 5
361.2265625 290.141601562 m 5
 353.536132812 372.172851562 l 5
 353.536132812 372.172851562 330.46484375 416.264648438 245.357421875 416.264648438 c 4
 239.205078125 356.279296875 l 5
 169.991210938 355.25390625 l 5
 162.813476562 365.5078125 158.19921875 392.680664062 158.19921875 409.599609375 c 4
 158.19921875 459.84375 216.133789062 479.326171875 263.301757812 479.326171875 c 4
 354.561523438 479.326171875 429.415039062 437.28515625 437.618164062 328.081054688 c 4
 434.541992188 225.029296875 l 5
 361.2265625 290.141601562 l 5
EndSplineSet
Layer: 3
EndChar

StartChar: si_Sa
Encoding: 58 3523 6
GlifName: si_S_a
Width: 912
VWidth: -24
Flags: HMW
AnchorPoint: "si_MaU" 864 185.28 basechar 0
AnchorPoint: "si_MaI" 494 559 basechar 0
AnchorPoint: "si_hal" 746 536 basechar 0
LayerCount: 4
Back
SplineSet
39 379 m 1xf8
 417 381 l 1
 419 336 l 1
 123 335 l 1
 38 322 l 1
 39 379 l 1xf8
547 373 m 1
 580 384 l 1
 679.491210938 410.330078125 865 380.840820312 865 186 c 0
 865 64 790.377929688 -45 659 -45 c 0
 554 -45 487 22 472 126 c 1
 470 123 509 129 507 126 c 1
 489.119140625 25 420.748046875 -43.1982421875 304 -44 c 0
 171.470703125 -44.91015625 99.1728515625 54.9951171875 101 154 c 0
 103.165039062 268 197.35546875 346 232 347 c 1
 326 338 l 1
 239.861328125 324.103515625 161.854492188 266.251953125 163 183 c 0
 163.899414062 112.950195312 215.522286828 64.8459850735 304 62 c 0
 371.15625 59.83984375 469 88.2900390625 472 214 c 1
 507 215 l 1
 510 100.411132812 583.994140625 64.4326171875 664 64 c 0
 743.806640625 63.599609375 799.400390625 113.7890625 801 195 c 0xfa
 803.384765625 310.975585938 705.305664062 383.813476562 542 328 c 1
 537 350.166992188 532.391601562 374.670898438 532 398 c 0
 530 500 603 568 687 570 c 0
 753.981445312 571.594726562 830 532 830 452 c 0
 830 356 737 330 737 330 c 1
 721 337 l 1
 721 337 760 374.990234375 760 424 c 0xfc
 760 465 719.879882812 513.047851562 656 509 c 0
 619.995117188 506.71875 577 472 572 411 c 0
 568.227539062 364.98046875 588 353 588 353 c 1
 547 373 l 1
388 364 m 1
 391 398 391 417 379 445 c 0
 365 480 310 508 260 503 c 0
 209 419 l 1
 179 422 155 439 155 476 c 0
 155 543 227 568 280 568 c 0
 360 568 433.292681415 518.050987214 436 433 c 0
 437.56640625 383.791015625 428 358.083007812 419 337 c 1
 388 364 l 1
EndSplineSet
Fore
SplineSet
38 379 m 1
 417 379 l 1
 419 337 l 1
 123 337 l 1
 38 322 l 1
 38 379 l 1
669.50390625 503.239257812 m 0
 625.010742188 503.239257812 571.521497141 469.518401438 571.521497141 399.736570483 c 0
 571.521497141 362.984603796 588 353 588 353 c 1
 547 373 l 1
 580 384 l 1
 599.655293784 389.201719992 622.667784798 392.224855977 646.943859699 392.224855977 c 0
 745.548476136 392.224855977 865 342.348439645 865 186 c 0
 865 63.4368784584 793.774414062 -44 657.874023438 -44 c 0
 538.23828125 -44 481.905273438 22.66015625 467 126 c 1
 466.577148438 125.366210938 467.985351562 125.133789062 470.451171875 125.133789062 c 0
 477.186523438 125.133789062 491.813476562 126.866210938 498.548828125 126.866210938 c 0
 501.014648438 126.866210938 502.422851562 126.633789062 502 126 c 0
 484.051757812 24.6181640625 419.15625 -44 301.205078125 -44 c 4
 165.446289062 -44 100.966195144 52.9929529197 100.966195144 150.334902037 c 0
 100.966195144 273.780552002 193.487595798 347 229.930389091 347 c 2
 326 347 l 1
 228.312359602 335.927953482 165.805947553 259.528289816 165.805947553 180.677321709 c 0
 165.805947553 107.049906117 226.936523438 53.853515625 317.05078125 53.853515625 c 0
 383.274414062 53.853515625 462.1328125 93.8466796875 467 214 c 1
 502 214 l 1
 504.95703125 101.041992188 571.49609375 53.98046875 654 53.98046875 c 0
 736.674804688 53.98046875 801.034641671 113.801570516 801.034641671 198.36259074 c 0
 801.034641671 284.981470218 731.791232481 348.38544635 637.628166871 348.38544635 c 0
 607.784850009 348.38544635 575.438476562 343.016601562 542 329 c 1
 536.674804688 352.608398438 531.959846987 376.578855594 531.959846987 402.085058768 c 0
 531.959846987 502.724983096 605.185546875 568.045898438 700.900390625 568.045898438 c 0
 776.896484375 568.045898438 841 531.451171875 841 453 c 0
 841 357 748 331 748 331 c 1
 732 331 l 1
 732 331 767 369.990234375 767 419 c 0
 767 458.370117188 734.005859375 503.239257812 669.50390625 503.239257812 c 0
280 568 m 0
 364.702132678 568 436.169614714 515.178234878 436.169614714 422.569098419 c 0
 436.169614714 380.053997323 427.341528536 356.540501255 419 337 c 1
 391 364 l 1
 392 375.333007812 395.666992188 385 395.666992188 393.888671875 c 0
 395.666992188 462.0078125 333.787991519 508.655960281 263.433975885 508.655960281 c 1
 209 419 l 1
 179 422 155 439 155 476 c 0
 155 543 227 568 280 568 c 0
EndSplineSet
Layer: 2
Layer: 3
EndChar

StartChar: si_Ka
Encoding: 21 3482 7
GlifName: si_K_a
Width: 1095
VWidth: -24
Flags: HMW
AnchorPoint: "si_hal" 890 494 basechar 0
LayerCount: 4
Back
SplineSet
832 17 m 0xb0
 944.916015625 20.09375 966.169921875 184.509765625 942 281 c 0
 911.051757812 404.547851562 781.896484375 466.663085938 642 462 c 0
 542.9140625 458.697265625 465.959960938 431.771484375 372 374 c 1
 355 362 366 367 352 355 c 1
 255 276 173 211 73 79 c 1
 73 79 38.1279296875 98.5439453125 44 107 c 0
 144 251 234 322 332 413 c 1
 339 419 348 420 355 425 c 1
 447 505 560.087890625 556.008789062 669 561 c 0
 875.541015625 570.465820312 1028.95410156 450.18359375 1042 282 c 0
 1055.14355469 112.560546875 966.994140625 -33 819 -33 c 4
 760 -33 723 -15 723 -15 c 1
 743 46 l 1
 743 46 774.74609375 15.431640625 832 17 c 0xb0
305 377 m 1x30
 317 400 320.857421875 420.9921875 320 439 c 0
 318 481 281.760742188 505.678710938 232 501 c 0
 197.934570312 497.796875 162 470 168 426 c 1
 208 371 l 1
 194 347 171.001953125 335.022460938 149 336 c 0
 104 338 84 369 84 415 c 0
 84 495 150.983398438 563.181640625 248 559 c 0
 330.926757812 555.42578125 379.715820312 480.119140625 353 416 c 0
 338 380 353 404 340 387 c 1
 305 377 l 1x30
124 165 m 1
 132 169 141.001953125 171.854492188 148 172 c 0
 196 173 205 72 288 72 c 0
 337 72 387 101 388 197 c 1
 423 197 l 0
 424 94 483.997070312 71.1669921875 544 72 c 0
 604.002929688 72.8330078125 655 118 655 194 c 0
 655 273 583 340 469 345 c 0
 407.059570312 347.716796875 331 329 298 311 c 1
 352 364 l 1
 365 368 398.99609375 390.330078125 476 391 c 0
 591 392 713 332 713 182 c 0
 713 48 637.995117188 -34.9423828125 533 -36 c 0
 447.693359375 -36.859375 414.721679688 8.326171875 396 49 c 1
 414 49 l 1
 396.737304688 7.81640625 353.954101562 -36 289 -36 c 0
 130.997070312 -36 177 169 112 130 c 0
 124 165 l 1
EndSplineSet
Fore
SplineSet
817.751953125 18.94140625 m 0
 917.66796875 18.94140625 976.915039062 119.083007812 976.915039062 218.872070312 c 0
 976.915039062 394.147460938 826.001953125 469.244140625 653.630859375 469.244140625 c 0
 544.423828125 469.244140625 469.286480476 435.127076233 372 374 c 0
 354.385236433 362.932285451 366.259108476 366.689899742 352 355 c 0
 255.259108476 275.689899742 165 201 65 69 c 1
 65 69 35.333984375 85.6259765625 35.333984375 94.84375 c 0
 35.333984375 95.6201171875 35.5439453125 96.34375 36 97 c 0
 136 241 233.771757017 322.255813626 332 413 c 0
 338.771757017 419.255813626 348 420 355 425 c 0
 452.931900518 510.158174363 566.046087192 561.521979871 691.647141388 561.521979871 c 0
 888.359672597 561.521979871 1048.29101562 430.892578125 1048.29101562 243.915039062 c 0
 1048.29101562 89.044921875 969.241766213 -30.9790398953 812 -33 c 0
 752.993276424 -33.7583877816 723 -11 723 -11 c 1
 743 38 l 1
 743 38 763.177734375 18.94140625 817.751953125 18.94140625 c 0
239.564422044 559.182720185 m 0
 312.166877252 559.182720185 360.337157543 508.442036748 360.337157543 452.491616861 c 0
 360.337157543 440.297111288 357.980794648 427.954125634 353 416 c 0
 346.657903166 400.778967598 345.678765299 396.283853131 345.678765299 394.880761233 c 0
 345.678765299 392.965332614 347.503516077 396.812290255 340 387 c 1
 305 377 l 1
 315.942726246 397.973558638 320.11448839 417.277519987 320.11448839 434.171370668 c 0
 320.11448839 476.407605079 289.120872107 501.565481201 243.819163069 501.565481201 c 0
 204.753535816 501.565481201 163.227495934 475.264635413 163.227495934 432.56219309 c 1
 208 371 l 1
 194.528911607 347.906705613 172.726815213 335.944628885 151.497388019 335.944628885 c 0
 104.647534033 335.944628885 84 368.90425106 84 415 c 0
 84 492.659893112 147.122004356 559.182720185 239.564422044 559.182720185 c 0
713 182 m 0
 713 47.2467431379 637.491372745 -36.0120708321 530.613196887 -36.0120708321 c 0
 447.076049697 -36.0120708321 414.546066129 8.70770151412 396 49 c 1
 414 49 l 1
 396.737304688 7.81640625 353.954101562 -35 289 -35 c 0
 144.720703125 -35 172.547851562 132.934570312 118.631835938 132.934570312 c 0
 114.454101562 132.934570312 109.645507812 131.387695312 104 128 c 1
 116 155 l 1
 124.268554688 159.134765625 133.1640625 162.0078125 140.706054688 162.0078125 c 0
 198.090820312 162.0078125 195.408866995 72 288 72 c 0
 337 72 387 101 388 197 c 1
 423 197 l 1
 423.982755728 95.7761599807 481.945402412 71.9783082165 540.896187265 71.9783082165 c 0
 603.200672026 71.9783082165 655 116.718415806 655 194 c 0
 655 275.772692542 576.983416169 345.26420928 456.643840367 345.26420928 c 0
 397.265743801 345.26420928 308.834960938 326.819335938 278 310 c 1
 302 334 l 1
 314.453125 337.83203125 402.179524427 391.012279158 478.823715208 391.012279158 c 0
 592.987953375 391.012279158 713 330.772878088 713 182 c 0
EndSplineSet
Layer: 2
SplineSet
66.326171875 67.880859375 m 4
 176.326171875 281.57421875 420.939453125 524.341796875 643.62109375 533.0859375 c 4
 798.192382812 539.15625 942.725585938 463.5625 957.004882812 265.268554688 c 4
 965.497070312 124.8046875 914.6171875 -34.4140625 763.591796875 -34.8349609375 c 4
 728.2109375 -34.93359375 701.04296875 -23.37890625 701.04296875 -23.37890625 c 5
 712.322265625 29.4287109375 l 5
 712.322265625 29.4287109375 730.873046875 21.8466796875 756.412109375 21.806640625 c 4
 842.055664062 21.6630859375 885.763671875 102.141601562 881.553710938 211.435546875 c 4
 876.166015625 351.30078125 785.966796875 431.989257812 650.798828125 441.000976562 c 4
 561.961914062 447.6640625 473.952148438 415.846679688 393.42578125 365.911132812 c 5
 262.13671875 271.62109375 154.274414062 117.798828125 107.854492188 37.119140625 c 5
 107.854492188 37.119140625 61.4423828125 58.3955078125 66.326171875 67.880859375 c 4
279.607421875 343.198242188 m 5
 328.935546875 386.706054688 315.552734375 475.928710938 233.46484375 475.555664062 c 4
 195.796875 475.383789062 164.247070312 443.416015625 165.7890625 409.3359375 c 5
 210.90625 333.45703125 l 4
 153.484375 303.073242188 l 4
 120.538085938 307.661132812 75.951171875 329.982421875 72.478515625 387.745117188 c 4
 67.6318359375 468.33984375 144.56640625 534.123046875 232.439453125 536.939453125 c 4
 364.852539062 541.184570312 393.092773438 430.3125 362.266601562 380.625 c 4
 337.954101562 341.435546875 354.93359375 359.189453125 317.034179688 327.3046875 c 5
 279.607421875 343.198242188 l 5
158.098632812 125.302734375 m 5
 246.37109375 136.614257812 222.497070312 68.2265625 307.805664062 67.880859375 c 4
 346.783203125 67.72265625 398.271484375 94.3310546875 399.065429688 189.537109375 c 5
 452.8984375 189.389648438 l 4
 454.41796875 86.7236328125 513.942382812 67.1943359375 548.772460938 67.880859375 c 4
 609.311523438 69.07421875 629.265625 108.717773438 629.265625 174.521484375 c 4
 629.265625 258.342773438 562.046875 335.881835938 432.903320312 336.8125 c 4
 391.630859375 337.111328125 366.022460938 332.555664062 333.953125 320.126953125 c 5
 391.375 373.447265625 l 5
 404.348632812 377.874023438 420.5078125 385.955078125 451.360351562 386.822265625 c 4
 556.364257812 389.775390625 705.14453125 341.606445312 705.14453125 166.318359375 c 4
 705.14453125 46.3330078125 656.326171875 -34.4091796875 550.823242188 -34.830078125 c 4
 436.723632812 -35.283203125 429.314453125 53.525390625 429.314453125 53.525390625 c 5
 429.314453125 53.525390625 407.747070312 -33.6240234375 305.2421875 -34.02734375 c 4
 156.338867188 -34.615234375 188.34765625 130.942382812 132.9765625 77.109375 c 4
 158.098632812 125.302734375 l 5
EndSplineSet
Layer: 3
EndChar

StartChar: si_Ta
Encoding: 40 3501 8
GlifName: si_T_a
Width: 1052
VWidth: -24
Flags: HMW
AnchorPoint: "si_hal" 803 516 basechar 0
LayerCount: 4
Back
SplineSet
278 378 m 1x38
 290 401 293.787783325 421.989464266 293 440 c 0
 290.886363636 488.322580645 241.93962346 510.586375919 200 501 c 0
 168.616836205 493.826573516 143.75 469.586666667 140 425 c 1
 180 370 l 1
 166 346 142.997501905 333.926951127 121 335 c 0
 80 337 56 368 56 414 c 0
 56 494 122.979251728 562.084299408 220 558 c 0
 303.716536458 554.475770323 353.257142857 480.104895105 326 417 c 0
 310.535503801 381.197076135 326 405 313 388 c 1
 278 378 l 1x38
783 7 m 0x78
 897.530612245 10.0676691729 931.214091707 168.196510444 905 279 c 0
 874.316809233 408.693778667 744.730397156 467.030103921 595 462 c 0
 503.246239849 458.917586826 432 431.771484375 345 374 c 1
 328 362 339 367 325 355 c 1
 228 276 176 211 76 79 c 1
 76 79 41.1274838429 98.5435767337 47 107 c 0
 147 251 207 322 305 413 c 1
 312 419 321 420 328 425 c 1
 422.929936306 505 539.632615298 555.722115121 652 561 c 4
 841.928870362 570.465812707 990.842117952 449.986008142 1005 282 c 0
 1018.72475391 112.560546875 916.548 -43 762 -43 c 0
 687.46875 -43 657 -22 657 -22 c 1
 681 40 l 1
 681 40 717.371147593 5.61861010062 783 7 c 0x78
106 142 m 1
 121.827148438 148.801757812 135.977550224 157.058312459 149 157.575195312 c 0
 235.53125 161.009765625 244.237288627 64.6337427573 412 62 c 0
 543.998046875 59.927734375 621.387481149 124.006832269 620 205 c 0
 617.891601562 328.076171875 483.087890614 345.886713627 432 346 c 0
 350.086914062 346.181640625 292 328 259 310 c 1
 296 362 l 1
 309 366 372.00390625 395.240234375 444 394 c 0
 544.005160872 392.277269894 679 345 679 195 c 0
 679 89.8291015625 610 -44 412 -44 c 0xb8
 282.072265625 -44 203.452828836 7.71405288191 187 67.9970703125 c 0
 171.305664062 125.500976562 129.395507812 127.443359375 84 104 c 1
 106 142 l 1
EndSplineSet
Fore
SplineSet
211.738963395 558.17474967 m 0
 284.700138257 558.17474967 333.513355325 508.070220636 333.513355325 453.082209001 c 0
 333.513355325 441.019094297 331.102081218 428.812180821 326 417 c 0
 319.554325321 402.077173105 318.481825627 397.509441064 318.481825627 396.026216927 c 0
 318.481825627 393.950882003 320.581538917 397.914320122 313 388 c 1
 278 378 l 1
 289.000080717 399.08348804 293.099516984 418.477542788 293.099516984 435.436238788 c 0
 293.099516984 479.665506312 257.412768846 503.18416106 219.499329021 503.18416106 c 0
 174.15187671 503.18416106 144.217320145 475.142999345 140 425 c 1
 180 370 l 1
 166.572459681 346.981359453 144.863593061 334.934226259 123.702788897 334.934226259 c 0
 80.6625011172 334.934226259 56 367.775543355 56 414 c 0
 56 491.708854238 119.197708112 558.17474967 211.738963395 558.17474967 c 0
775.15625 6.958984375 m 0
 878.91796875 6.958984375 932.396484375 114.30859375 932.396484375 231.428710938 c 0
 932.396484375 394.590820312 779.801757812 467.298828125 620.684570312 467.298828125 c 0
 525.901367188 467.298828125 437.270628685 435.271392912 345 374 c 0
 328 362 339.259108476 366.689899742 325 355 c 0
 228.259108476 275.689899742 176 211 76 79 c 1
 76 79 46.3336130532 95.6259098453 46.3336130532 104.843544007 c 0
 46.3336130532 105.619666746 46.543935942 106.343267756 47 107 c 0
 147 251 206.771757017 322.255813626 305 413 c 0
 311.771757017 419.255813626 321.394653095 419.491760642 328 425 c 0
 428.447726849 508.763976429 535.623046875 566.521484375 669.826171875 566.521484375 c 0
 868.513671875 566.521484375 1005.23242188 434.396484375 1005.23242188 250.580078125 c 0
 1005.23242188 83.39453125 922.244140625 -44 757 -44 c 0
 682.46875 -44 647 -19 647 -19 c 1
 671 53 l 1
 671 53 711.953125 6.958984375 775.15625 6.958984375 c 0
439.532839242 394.038331181 m 0
 542.330797788 394.038331181 679 345.958712157 679 195 c 0
 679 89.8291015625 610 -44 412 -44 c 0
 282.072265625 -44 203.452828836 7.71405288191 187 67.9970703125 c 0
 177.225343512 103.811324101 157.281632627 118.073394991 132.660279873 118.073394991 c 0
 117.749217157 118.073394991 101.122537441 112.842500458 84 104 c 1
 106 142 l 1
 124.02191534 149.744964542 136.283800807 157.664846595 153.473278219 157.664846595 c 0
 235.545696326 157.664846595 251.125241401 61.9511220919 418.198301208 61.9511220919 c 0
 545.268327096 61.9511220919 620.018344598 124.153158938 620.018344598 202.86130792 c 0
 620.018344598 328.066955412 482.690587802 346.001349777 430.783340442 346.001349777 c 0
 349.51152125 346.001349777 291.836380406 327.910752948 259 310 c 1
 296 362 l 1
 308.730408226 365.917048685 369.412282368 394.038331181 439.532839242 394.038331181 c 0
EndSplineSet
Layer: 2
SplineSet
650.8046875 -22.5302734375 m 13
 664.133789062 34.111328125 l 4
 673.158203125 34.099609375 692.454101562 26.2783203125 721.043945312 26.2783203125 c 4
 828.709960938 26.2783203125 872.337890625 139.078125 871.305664062 238.608398438 c 4
 869.853515625 378.5703125 750.03125 462.880859375 620.04296875 464.584960938 c 4
 515.595703125 465.955078125 428.328125 437.892578125 342.674804688 382.830078125 c 5
 211.385742188 288.540039062 159.407226562 235.71875 56.5908203125 73.0078125 c 5
 56.5908203125 73.0078125 14.9287109375 94.48828125 20.189453125 103.76953125 c 4
 85.23828125 218.547851562 184.014648438 315.069335938 282.176757812 406.313476562 c 5
 289.81640625 412.305664062 297.509765625 418.155273438 305.248046875 423.856445312 c 5
 390.520507812 496.668945312 514.975585938 555.073242188 628.24609375 556.157226562 c 4
 798.30859375 557.784179688 958.811523438 460.306640625 962.137695312 271.93359375 c 4
 965.504882812 81.2705078125 854.120117188 -24.0751953125 724.120117188 -31.71484375 c 4
 683.104492188 -34.125 658.315429688 -22.5107421875 650.8046875 -22.5302734375 c 13
247.826171875 365.756835938 m 5
 284.606445312 440.026367188 243.995117188 496.55859375 201.68359375 497.6015625 c 4
 158.612304688 498.662109375 133.166992188 465.461914062 128.880859375 431.381835938 c 5
 158.6171875 376.010742188 l 5
 144.875 352.084960938 121.26953125 339.463867188 99.6572265625 340.846679688 c 4
 73.9462890625 342.491210938 51.056640625 363.958007812 50.951171875 409.791015625 c 4
 50.7890625 480.055664062 104.263671875 565.857421875 216.0390625 558.985351562 c 4
 303.006835938 553.638671875 331.68359375 473.038085938 304.228515625 408.823242188 c 4
 289.037109375 373.291992188 300.887695312 391.560546875 287.81640625 374.985351562 c 5
 247.826171875 365.756835938 l 5
152.977539062 228.354492188 m 5
 140.852539062 101.243164062 257.12109375 60.1318359375 369.84765625 57.626953125 c 4
 532.9140625 54.0029296875 583.4296875 113.750976562 583.641601562 200.668945312 c 4
 583.879882812 299.25 495.337890625 339.16015625 402.147460938 343.477539062 c 4
 330.133789062 346.815429688 258.362304688 318.712890625 226.29296875 301.157226562 c 5
 283.71484375 365.244140625 l 5
 296.688476562 369.670898438 369.370117188 394.450195312 430.858398438 393.487304688 c 4
 541.220703125 391.759765625 681.171875 347.966796875 670.799804688 178.110351562 c 4
 664.412109375 73.5126953125 595.322265625 -40.947265625 356.517578125 -40.982421875 c 4
 205.581054688 -41.00390625 92.37890625 57.7041015625 120.677734375 189.90234375 c 5
 152.977539062 228.354492188 l 5
EndSplineSet
Layer: 3
EndChar

StartChar: si_Na
Encoding: 44 3505 9
GlifName: si_N_a
Width: 1057
VWidth: -24
Flags: HMW
AnchorPoint: "si_hal" 788 502 basechar 0
LayerCount: 4
Back
SplineSet
328 370 m 1
 340 393 343.738612693 413.987380776 343 432 c 0
 341 477.387096774 304.836674275 503.360651455 255 499 c 0
 220.934570312 495.796875 185 468 191 424 c 1
 231 369 l 1
 217 345 194.001938688 333.022136058 172 334 c 0
 127 336 107 367 107 413 c 0
 107 493 173.996409681 561.473316685 271 557 c 0
 353.926757812 553.300808567 404.31590554 474.737317961 376 409 c 0
 361 373 376 397 363 380 c 1
 328 370 l 1
87 212 m 0
 153.485106383 133.40397351 255.357446809 279.205298013 339 384 c 1
 349 393 349 383 361 391 c 1
 454.789473684 498.123287671 564.565789474 561 685 561 c 0
 860.396825397 561 1012.70589421 442.822762444 1010 241 c 0
 1008 88.5661016949 907.626989838 -51 734 -51 c 0
 674.926120448 -51 627 -29.25 627 -27 c 0
 655 41 l 0
 677.261807696 21 708.473350865 -0.42737481335 766 1 c 0
 870.33998115 3.54310470185 930.646837068 120.426436595 930 229 c 0
 928.963768116 375.742081448 809.794229741 468.342013146 644 464 c 0
 554.536682129 461.47730152 474.734375 437.243243243 368 329 c 1
 355 326 l 1
 276.706766918 222.174496644 192.390977443 102.375838926 88 156 c 1
 87 212 l 0
93 229 m 1
 89.8928571429 85.432038835 249.414404568 56.4639016811 354 54 c 0
 464.982216234 51.3854021864 592 105 592 207 c 0
 592 265.482758621 546.00044813 307.44773444 453 313 c 0
 386 317 330 295 288 268 c 1
 318 322 l 1
 331 326 383 363 465 363 c 0
 565 363 654 308.276836158 654 196 c 0
 654 91 582 -49 352 -49 c 0
 169.636363636 -49 43.9393939394 71.2450331126 46 222 c 1
 93 229 l 1
EndSplineSet
Fore
SplineSet
262.046900371 557.207544053 m 0
 334.748572498 557.207544053 383.93303112 504.991085114 383.93303112 447.365855511 c 0
 383.93303112 434.515975046 381.395133524 421.52517273 376 409 c 0
 369.657903166 393.778967598 368.678765299 389.283853131 368.678765299 387.880761233 c 0
 368.678765299 385.965332614 370.503516077 389.812290255 363 380 c 1
 328 370 l 1
 339.042462989 391.16472073 343.089367432 410.625200381 343.089367432 427.631728718 c 0
 343.089367432 472.862761834 311.259190835 499.474280551 265.663554537 499.474280551 c 0
 227.246693972 499.474280551 186.227495934 472.674472999 186.227495934 430.56219309 c 1
 231 369 l 1
 217.529061775 345.906963043 195.727287919 333.944594788 174.498096462 333.944594788 c 0
 127.647745003 333.944594788 107 366.903806021 107 413 c 0
 107 490.514566489 169.898197616 557.207544053 262.046900371 557.207544053 c 0
750.59765625 0.9326171875 m 0
 868.9375 0.9326171875 937.004882812 117.193359375 937.004882812 227.26953125 c 0
 937.004882812 372.034179688 815.458868145 464.146342838 655.122791957 464.146342838 c 0
 555.690534232 464.146342838 477.705822109 440.256696709 368 329 c 1
 355 329 l 1
 290.053757236 242.874084891 220.963316599 142.756838523 139.707335363 142.756838523 c 0
 123.008558826 142.756838523 105.795987091 146.858454422 88 156 c 1
 88 212 l 1
 101.191058837 196.406059249 114.775137178 189.645526792 130.333471784 189.645526792 c 0
 193.191702839 189.645526792 270.524058473 301.343646716 339 384 c 0
 347.571408611 394.346427702 349 383 361 391 c 1
 454.789473684 498.123287671 564.565789474 561 685 561 c 0
 858.860260382 561 1010.03515625 444.884765625 1010.03515625 246.28515625 c 0
 1010.03515625 90.357421875 919.12890625 -51 744 -51 c 0
 684.92578125 -51 633 -29.25 633 -27 c 2
 655 25 l 1
 676.5546875 12.6357421875 696.5 0.9326171875 750.59765625 0.9326171875 c 0
592 207 m 0
 592 269.006378458 536.9765625 323.471679688 437.235351562 323.471679688 c 4
 377.1875 323.471679688 326.662109375 302.854492188 288 278 c 1
 318 322 l 1
 331 326 383 363 465 363 c 0
 565 363 654 308.276836158 654 196 c 0
 654 91 582 -49 352 -49 c 0
 169.636363636 -49 43.9393939394 71.2450331126 46 222 c 1
 93 222 l 1
 89.8625787671 77.0330028442 253.317336942 53.9087191709 361.777707699 53.9087191709 c 0
 470.829135391 53.9087191709 592 107.375303868 592 207 c 0
EndSplineSet
Layer: 2
SplineSet
25.7060546875 83.3212890625 m 0
 135.70703125 297.014648438 354.685546875 541.3203125 592.747070312 550.064453125 c 0
 747.333007812 555.743164062 909.002929688 475.564453125 926.126953125 277.120117188 c 0
 938.224609375 136.918945312 853.490234375 -32.3037109375 702.463867188 -32.724609375 c 0
 667.083984375 -32.8232421875 650.168945312 -21.2685546875 650.168945312 -21.2685546875 c 1
 666.575195312 26.412109375 l 1
 666.575195312 26.412109375 674.873046875 18.8330078125 700.412109375 18.7900390625 c 0
 786.055664062 18.646484375 846.682617188 119.120117188 840.421875 228.4140625 c 0
 832.416015625 368.154296875 719.6328125 447.84765625 594.797851562 452.852539062 c 0
 505.783203125 456.421875 428.206054688 437.952148438 347.678710938 388.016601562 c 1
 216.390625 293.7265625 113.655273438 133.239257812 67.234375 52.5595703125 c 1
 67.234375 52.5595703125 20.8232421875 73.8359375 25.7060546875 83.3212890625 c 0
256.931640625 381.197265625 m 1
 293.712890625 455.466796875 240.236328125 494.984375 187.717773438 492.534179688 c 0
 162.075195312 491.3359375 124.328125 470.6484375 120.041992188 436.568359375 c 1
 149.778320312 376.0703125 l 0
 128.487304688 339.00390625 93.47265625 333.344726562 66.7216796875 345.686523438 c 0
 66.7216796875 345.686523438 37.107421875 362.216796875 36.9853515625 414.977539062 c 0
 36.82421875 485.2421875 90.0283203125 553.598632812 186.692382812 553.91796875 c 0
 273.637695312 554.205078125 317.71875 503.859375 321.025390625 444.771484375 c 0
 323.184570312 406.189453125 302.303710938 391.620117188 289.231445312 375.044921875 c 1
 256.931640625 381.197265625 l 1
174.387695312 214.571289062 m 1
 144.741210938 169.486328125 171.624023438 68.28515625 262.05859375 67.9404296875 c 0
 301.037109375 67.7919921875 352.525390625 94.390625 353.318359375 189.596679688 c 1
 407.151367188 189.44921875 l 0
 408.671875 86.783203125 468.197265625 67.1904296875 503.025390625 67.9404296875 c 0
 558.4375 69.1337890625 592.747070312 124.158203125 592.747070312 184.834960938 c 0
 592.747070312 299.41796875 506.049804688 343.943359375 382.029296875 343.537109375 c 0
 320.25 343.3359375 284.387695312 323.899414062 252.317382812 306.34375 c 1
 309.739257812 369.91796875 l 1
 322.713867188 374.344726562 359.508789062 385.482421875 390.232421875 388.419921875 c 0
 474.729492188 396.5 660.935546875 373.965820312 660.935546875 167.916015625 c 0
 660.935546875 53.0576171875 605.965820312 -34.349609375 500.461914062 -34.7705078125 c 0
 386.36328125 -35.2236328125 383.567382812 53.5849609375 383.567382812 53.5849609375 c 1
 383.567382812 53.5849609375 362.000976562 -33.5771484375 259.495117188 -33.9677734375 c 0
 105.465820312 -34.5556640625 104.661132812 125.875 126.194335938 164.327148438 c 0
 174.387695312 214.571289062 l 1
EndSplineSet
Layer: 3
EndChar

StartChar: anusvara
Encoding: 1 3458 10
GlifName: anusvara
Width: 588
VWidth: 0
Flags: HMW
LayerCount: 4
Back
SplineSet
120 225 m 0
 120 135 165.049804688 67.998046875 283 67 c 0
 373.046875 66.23828125 438.099609375 143.999023438 439 224 c 4
 440.125 323.993164062 371 393 264 387 c 0
 194.109375 383.081054688 120 318 120 225 c 0
55 194 m 0
 55 345 173 443 294 443 c 0
 445 443 523 335 523 214 c 0
 523 93 436 -25 285 -25 c 0
 134 -25 55 73 55 194 c 0
EndSplineSet
Fore
SplineSet
276.804849177 387.362834515 m 0
 197.40242493 387.362834515 120 322.895278909 120 225 c 0
 120 134.970185429 165.539771338 66.9944493907 284.31159427 66.9944493907 c 0
 374.433779927 66.9944493907 439.013528677 145.133316226 439.013528677 226.400414439 c 0
 439.013528677 321.068276513 375.647539695 387.362834515 276.804849177 387.362834515 c 0
55 194 m 0
 55 345 173 443 294 443 c 0
 445 443 523 335 523 214 c 0
 523 93 436 -25 285 -25 c 0
 134 -25 55 73 55 194 c 0
EndSplineSet
Layer: 2
Layer: 3
EndChar

StartChar: si_A
Encoding: 3 3461 12
GlifName: si_A_
Width: 758
VWidth: -17
Flags: HMW
AnchorPoint: "si_hal" 412 492 basechar 0
LayerCount: 4
Back
SplineSet
364 -57.5380859375 m 0
 153.625 -57.1875 52.4326171875 37.0244140625 54 157 c 0
 55.8642578125 305.000976562 183.197265625 381 323 383 c 0
 356.912109375 383.546875 385.2578125 381.401367188 402.384765625 378.52734375 c 1
 403.505859375 468.180664062 340.708007812 504.435546875 271 497 c 1
 215 408 l 1
 169 411 141 448 150 484 c 0
 166 546 225 567 288 567 c 0
 360 567 432 527 446 443 c 0
 455.095703125 388.426757812 439 334 439 334 c 1
 329.883789062 352.869140625 188.782226562 312.513671875 175 179 c 0
 164.526367188 81.240234375 240.35546875 4.236328125 408 4.8173828125 c 0
 529.96875 5.240234375 602.526367188 50.912109375 665 88.599609375 c 1
 696 47 l 1
 624.354492188 -10.3515625 511.6953125 -57.7841796875 364 -57.5380859375 c 0
506 406.842773438 m 1
 507.64453125 463.158203125 496.786132812 528.805664062 565 568 c 1
 594 546.889648438 l 1
 593.51171875 491.823242188 726 455.326171875 726 386 c 0
 726 313.143554688 634 241.561523438 545 234 c 1
 536 274 l 1
 593 284 652 321.561523438 652 378 c 0
 652 426 566.39453125 468.649414062 566 507.856445312 c 1
 554.118164062 493.653320312 558.6328125 470 558.6328125 421.313476562 c 0
 556 -378 l 1
 506 -378 l 1
 506 406.842773438 l 1
438.465820312 371.448242188 m 1
 439.303710938 371.296875 440.147460938 371.146484375 441 371 c 1
 441 371.776367188 440.05859375 371.853515625 438.465820312 371.448242188 c 1
EndSplineSet
Fore
SplineSet
365.143963798 -57.5390392475 m 0
 155.865983755 -57.5390392475 53.9820725165 35.2887837017 53.9820725165 154.260216822 c 0
 53.9820725165 308.415722402 187.037592631 383.085491434 333.553312117 383.085491434 c 0
 362.775186455 383.085491434 387.066913405 381.097787306 402.384765625 378.52734375 c 1
 403.427707496 461.930896459 350.018155033 507.77575901 286.444162578 507.77575901 c 0
 281.680304618 507.77575901 276.859372162 507.518334846 272 507 c 1
 216 418 l 1
 175.781142969 420.622968937 149.322218025 449.236920704 149.322218025 480.448973724 c 0
 149.322218025 484.93545977 149.86890681 489.475627242 151 494 c 0
 167 556 226 577 289 577 c 0
 371.74637516 577 448.785001471 513.447203543 448.785001471 407.533639407 c 0
 448.785001471 367.087458255 439 334 439 334 c 1
 422.345828067 336.879956237 404.9465491 338.380259887 387.368571723 338.380259887 c 0
 286.673153955 338.380259887 174.04792414 287.555648474 174.04792414 161.479291154 c 0
 174.04792414 72.5540774586 249.899266157 4.81411606595 406.117980175 4.81411606595 c 0
 529.105880596 4.81411606595 601.171169788 56.6606532983 659 97.599609375 c 1
 696 47 l 1
 624.539580736 -10.2034008391 512.277124791 -57.5390392475 365.143963798 -57.5390392475 c 0
506 434.910299435 m 2
 506 483.814733106 507.881801594 535.181015404 565 568 c 1
 594 546.889648438 l 1
 593.51171875 491.823242188 726 455.326171875 726 386 c 0
 726 313.143554688 634 241.561523438 545 234 c 1
 545 274 l 1
 602 284 652 321.561523438 652 378 c 0
 652 426 559.02734375 468.649414062 558.6328125 507.856445312 c 2
 558.6328125 -378 l 1
 506 -378 l 1
 506 434.910299435 l 2
438.465820312 371.448242188 m 1
 439.303710938 371.296875 440.147460938 371.146484375 441 371 c 1
 441 371.776367188 440.05859375 371.853515625 438.465820312 371.448242188 c 1
EndSplineSet
Layer: 2
Layer: 3
EndChar

StartChar: si_Ii
Encoding: 8 3466 17
GlifName: si_I_i
Width: 729
VWidth: -5
Flags: HMW
LayerCount: 4
Back
SplineSet
527 611 m 0xb0
 527 642 552 667 583 667 c 0
 614 667 639 642 639 611 c 0
 639 580 614 555 583 555 c 0
 552 555 527 580 527 611 c 0xb0
215 701 m 4
 215 733 241 759 273 759 c 4
 305 759 331 733 331 701 c 4
 331 669 305 643 273 643 c 4x70
 241 643 215 669 215 701 c 4
EndSplineSet
Refer: 4 3515 N 1 0 0 1 0 0 2
Fore
SplineSet
567 611 m 4
 567 642 592 667 623 667 c 4
 654 667 679 642 679 611 c 4
 679 580 654 555 623 555 c 4
 592 555 567 580 567 611 c 4
225 701 m 4
 225 733 251 759 283 759 c 4
 315 759 341 733 341 701 c 4
 341 669 315 643 283 643 c 4
 251 643 225 669 225 701 c 4
EndSplineSet
Refer: 4 3515 N 1 0 0 1 0 0 2
Layer: 2
Layer: 3
EndChar

StartChar: si_U
Encoding: 9 3467 18
GlifName: si_U_
Width: 716
VWidth: -17
Flags: HMW
LayerCount: 4
Back
SplineSet
153 82 m 4
 134.201906315 -47.7994601107 198.972526228 -212.974609023 382 -236.380859375 c 4
 516.911576709 -252.204891615 598.588777731 -209.567542192 672 -151 c 5
 706 -208 l 5
 656.222222222 -243.865923717 549.874452006 -301.940847466 398 -296.19140625 c 4
 120.45118203 -285.48990852 25.9167733352 -102.742418168 37 34 c 4
 59.611328125 311.194438579 311.991484908 369.895574109 467 371 c 4
 529.002929688 371.436523438 565 367.727539062 594 365 c 5
 594 370 569.833007812 346 569 351 c 5
 581.571289062 478 452.213867188 499 374 481 c 5
 318 402 l 5
 272 405 250.087119932 445.53313978 261 481 c 4
 277 533 338 561 421 561 c 4
 503.286132812 561 597.034094894 506.79393118 611 423 c 4
 620.095703125 368.426757812 608 318 608 318 c 5
 608 316 l 5
 392.633333333 336.892578125 186.468603666 299.200396191 153 82 c 4
EndSplineSet
Fore
SplineSet
157.6796875 40.0458984375 m 4
 157.6796875 -125.368164062 258.983398438 -240.8203125 436.21875 -240.8203125 c 4
 562.009765625 -240.8203125 652.995117188 -187.651367188 701 -144 c 5
 735 -193 l 5
 685.22265625 -228.866210938 598.908203125 -296.444335938 437 -301.19140625 c 4
 143.122070312 -309.807617188 30.97265625 -133.884765625 30.97265625 15.0390625 c 4
 30.97265625 231.73046875 184.608398438 343.334960938 356 370.828125 c 4
 386.184570312 375.669921875 418.515625 377.599609375 450.393554688 377.599609375 c 4
 500.826171875 377.599609375 550.125976562 372.76953125 588 367 c 5
 588 372 572.833007812 348 572 353 c 5
 572.525390625 358.309570312 572.780273438 363.43359375 572.780273438 368.377929688 c 4
 572.780273438 458.353515625 488.390625 488.584960938 416.109375 488.584960938 c 4
 397.364257812 488.584960938 379.43359375 486.551757812 364 483 c 5
 308 404 l 5
 269.823242188 406.490234375 248.237304688 434.831054688 248.237304688 464.673828125 c 4
 248.237304688 470.7890625 249.143554688 476.967773438 251 483 c 4
 267 535 328 563 411 563 c 4
 501.286132812 563 591.034179688 508.793945312 605 425 c 4
 607.485351562 410.087890625 608.388671875 395.93359375 608.388671875 383.235351562 c 4
 608.388671875 349.46484375 602 326 602 326 c 5
 602 324 l 5
 568.096679688 327.201171875 537.833007812 328.799804688 509.639648438 328.799804688 c 4
 468.655273438 328.799804688 432.046875 325.421875 395 318.68359375 c 4
 234.732421875 289.53125 157.6796875 174.10546875 157.6796875 40.0458984375 c 4
EndSplineSet
Layer: 2
Layer: 3
EndChar

StartChar: si_E
Encoding: 15 3473 22
GlifName: si_E_
Width: 760
VWidth: -14
Flags: HMW
LayerCount: 4
Back
SplineSet
336.81640625 669.124023438 m 1xde
 427 678 l 1
 425.842773438 653.400539719 448.363491842 575.996956623 488 559 c 0
 564.103515625 526.365234375 597.166015625 606.057617188 654 558 c 1
 683 526 l 1
 614.135742188 554.92578125 559.416287215 470.925470977 457 505.301757812 c 0
 376.956054688 532.168711285 380.421875 669.104915298 336.81640625 669.124023438 c 1xde
30 317 m 5
 419 316 l 5
 414 275 l 5
 113 270 l 5
 29 252 l 5
 30 317 l 5
415.504882812 661.212890625 m 0
 365.150223695 668.377572949 331.440007734 662.285715331 315 661 c 1
 316 741 l 1xee
 647.914375659 740.212890625 800 516.80859375 800 311 c 0
 800 91.0390625 671.749908359 -56.3568812077 449 -61 c 0
 229.623230244 -65.5728072786 126.234562254 17.8004014046 123 121 c 0
 118.597068797 261.476731369 262.522058823 302.262309365 376 306 c 1
 376 394 334.691729323 438 242 438 c 1
 216 357 l 1
 169.636363636 350 138.268483167 378.897251479 146 425 c 0
 155.391304348 481 209.860869565 500 254 500 c 0
 320 500 417.480828685 462.978771411 422 359 c 0
 423.383789062 327.161267511 414 282 414 282 c 1
 286.25 299.455610795 195.404368225 246.993333829 196 162 c 0
 196.519135843 86.054701937 304.648122074 38.9859262278 443 40 c 0
 628.478107244 41.3391927084 738 144.647971633 738 346 c 0
 738 538.33781221 549.268901917 642.180357787 415.504882812 661.212890625 c 0
EndSplineSet
Fore
SplineSet
-57 312 m 1
 365 312 l 1
 365 265 l 1
 -57 265 l 1
 -57 312 l 1
EndSplineSet
Refer: 48 3509 N 1 0 0 1 0 0 2
Layer: 2
Layer: 3
EndChar

StartChar: si_Os
Encoding: 18 3476 25
GlifName: si_O_s
Width: 819
VWidth: -24
Flags: HMW
LayerCount: 4
Back
SplineSet
539 -40 m 1xbbf0
 434 -40 390 27 375 131 c 1
 373 128 412 134 410 131 c 1
 393.096236766 30 350.368372182 -37.1982421875 237 -39 c 1
 60.6 -39 28.5610844767 115.777602197 27 196 c 0
 24.5031197567 333.395201123 99.5095736885 439.720590168 186 442 c 0xdbf0
 233.299804688 443.30859375 267.819335938 406.991210938 267.819335938 336 c 0
 267.819335938 243.576171875 312.777545532 225.267366929 381 224 c 0
 467.734444754 222.388736264 496.947175837 264.54736198 499 316 c 0
 500.790272588 360.871961805 480.006588764 431.521282459 401 432 c 0
 364.743212891 432.24859375 344.323604041 409.653417249 344 389 c 0
 343.645664062 369.029296875 354.435150052 342.292190268 391 342.561523438 c 0
 439.637695312 342.920043945 451.7578125 394.288970947 420 431.561523438 c 1
 462 430.561523438 l 1
 490.539422286 381.112720677 459.906112514 293.62788779 380 295 c 0
 342.763004955 295.744362993 304.899280322 320.27504678 304 367.856445312 c 0
 303.232680203 405.485062239 328 466 406 466 c 0xd7f0
 488.267578125 466 537.463319731 405.053884241 538 320 c 0
 538.395507812 257.319335938 499.317105711 176.136715956 380 177 c 0
 272.291015625 177.779296875 221 229.416992188 221 304 c 0
 221 348 213.053712691 393.716706242 176 393 c 0
 114.011610243 391.960477941 87.5518015862 292.796073739 91 219 c 0
 95.7634662829 110.005145734 157.148062423 60.3882137459 240 57 c 0
 306.52173913 53.8026315789 372.065217391 85.019646895 375 219 c 1
 403 220 l 1
 405.979166667 95.5458661005 481.315558839 54.34769911 546 56 c 0
 669.265683378 59.0715343602 697.240070303 208.942564204 702 304 c 0
 712.814970353 491.489726732 625.405966155 675.986566065 379 679 c 0
 234.40475591 680.790508156 146.277777778 597 143 597 c 1
 108 647 l 0
 108 647 218.187536916 733.598117483 371 733 c 0
 646.039548023 731.950124688 777.99128632 519.118245551 775 312 c 0
 773.165724298 178.163248689 732.611650485 -40 539 -40 c 1xbbf0
EndSplineSet
Fore
SplineSet
174.852539062 394.005859375 m 13
 184.60546875 442.034179688 l 4
 243.28125 442.034179688 254.819335938 405.755859375 254.819335938 336 c 4
 254.819335938 242.505859375 345.94140625 228.450195312 391.0703125 228.998046875 c 4
 473.510742188 229.998046875 516.05078125 274.557617188 517.05078125 338.48046875 c 4
 518.21484375 412.884765625 476.188476562 455.001953125 406.439453125 455.001953125 c 4
 368.38671875 455.001953125 343.991210938 426.6796875 343.991210938 396.051757812 c 4
 343.991210938 376.314453125 357.802734375 347.55859375 396.282226562 347.55859375 c 4
 438.219726562 347.55859375 458.998046875 378.53125 458.998046875 405.853515625 c 4
 458.998046875 421.98046875 453.456054688 439.541015625 442 454.561523438 c 5
 468 453.561523438 l 5
 478.83203125 438.59765625 484.123046875 419.3671875 484.123046875 399.515625 c 4
 484.123046875 349.837890625 450.9140625 301.997070312 388.306640625 301.997070312 c 4
 349.370117188 301.997070312 299.993164062 321.451171875 299.993164062 388.010742188 c 4
 299.993164062 441.715820312 342.36328125 494 416 494 c 4
 503.618164062 494 560.001953125 418.755859375 560.001953125 333.115234375 c 4
 560.001953125 261.340820312 518.477539062 166.986328125 385.486328125 166.986328125 c 4
 297.979492188 166.986328125 215 205.952148438 215 304 c 4
 215 347.692382812 214.981445312 394.005859375 174.852539062 394.005859375 c 13
775.04971987 318.886301539 m 4
 775.04971987 181.506280562 734.176870254 -40 539 -40 c 4
 434 -40 390 27 375 131 c 5
 374.577350269 130.366025404 375.985686687 130.133974596 378.45114345 130.133974596 c 4
 385.18689659 130.133974596 399.81310341 131.866025404 406.54885655 131.866025404 c 4
 409.014313313 131.866025404 410.422649731 131.633974596 410 131 c 4
 393.096236766 30 350.382688901 -39 237 -39 c 4
 58.4540820991 -39 26.9393907679 117.916896277 26.9393907679 202.66092651 c 4
 26.9393907679 336.912151442 101.125903779 442.034149224 188.457520891 442.034149224 c 4
 176.856121266 393.008319113 l 4
 117.555437877 393.008319113 90.7029019573 303.817423228 90.7029019573 231.920844401 c 4
 90.7029019573 112.661888152 155.823456099 56.7836215379 248.867126432 56.7836215379 c 4
 312.229687295 56.7836215379 372.195781535 90.9802349268 375 219 c 5
 403 220 l 5
 405.922241613 97.9238996421 478.462964875 55.9525015291 542.280997173 55.9525015291 c 4
 677.155291351 55.9525015291 702.883198769 225.034844584 702.883198769 334.400594477 c 4
 702.883198769 511.697174812 610.595410778 679.028292439 374.433207172 679.028292439 c 4
 232.550972673 679.028292439 146.243126807 597 143 597 c 5
 108 647 l 5
 108 647 217.430415821 733.003084112 369.42379391 733.003084112 c 4
 642.481496625 733.003084112 775.04971987 524.024204055 775.04971987 318.886301539 c 4
EndSplineSet
Layer: 2
Layer: 3
EndChar

StartChar: si_Oo
Encoding: 19 3477 26
GlifName: si_O_o
Width: 819
VWidth: -14
Flags: HMW
LayerCount: 4
Back
Refer: 25 3476 N 1 0 0 1 0 0 2
Fore
SplineSet
268 550 m 1053
EndSplineSet
Refer: 25 3476 N 1 0 0 1 0 0 2
Layer: 2
Layer: 3
EndChar

StartChar: si_Kha
Encoding: 22 3483 28
GlifName: si_K_ha
Width: 875
VWidth: -24
Flags: HMW
AnchorPoint: "si_hal" 480 658 basechar 0
AnchorPoint: "si_MaU" 679 211 basechar 0
LayerCount: 4
Back
SplineSet
275.736328125 334.590820312 m 0
 207.381835222 324.226228058 126.664703527 268.400506065 116 163 c 0
 105.682058146 61.0265799071 141.392465925 -8.16066226344 223 -8.2998046875 c 0
 264.238535109 -8.3701171875 283.265396693 24.8983315225 283.409179688 51.7451171875 c 0
 283.588867188 85.2958984375 263.164059928 111.356644344 230.8828125 110.939453125 c 0
 205.266601562 110.608398438 181.614612844 89.8516679477 182.977539062 50.763671875 c 0
 183.839912926 26.03125 200.476396582 -6.9013671875 241.888671875 -12.09375 c 0
 234.706054688 -23.3828125 l 0
 167.255115122 -21.3203125 141.325292334 15.4651987976 140.389648438 53.98828125 c 0
 139.001257764 111.152217945 178.128818539 167.074593396 241.249023438 169.60546875 c 0
 299.694209519 171.948893985 345.76615991 129.020285934 345.776367188 61.1171875 c 0
 345.784244374 8.71484375 306.063253785 -59.7658427393 224 -58.787109375 c 0
 106.223898192 -57.3824441316 61.896784615 57.9056093142 61.5234375 149.9375 c 0
 60.81640625 324.224162748 182.234830079 431.799907501 316.396484375 434.801757812 c 0
 420.31640625 437.126953125 533.740234375 372.130859375 526.779296875 234 c 1
 514.501953125 220 l 1
 487.4140625 212.859375 448.186299537 169.589865393 448.287109375 128 c 0
 448.428170155 69.8043021133 502.307204107 45.1263451332 568 51.73046875 c 0
 671.002922083 62.0436984734 732.707870738 178.150771759 725.416015625 339 c 0
 715.695837344 552.312033205 613.163082657 667.274459809 386 672.860351562 c 0
 265.927724458 675.802187471 170.387196633 609 170 609 c 2
 139 665 l 1
 139 665 244.290997216 738.885146054 394 736.09375 c 0
 620.056385242 732.014325509 791.480630741 580.630141826 796.62890625 333 c 0
 801.176619521 114.256694096 724.288504485 -51.9986914946 555 -52 c 0
 428.656767648 -52.0009583657 388.565480011 29.4714919299 388.739257812 106 c 0
 388.90234375 177.820010537 435.810546875 249.176430151 488 261 c 1
 488.30078125 264.1328125 484.762695312 233.118164062 485.032226562 236 c 1
 420.567382812 331.591907444 341.564453125 344.572339384 275.736328125 334.590820312 c 0
EndSplineSet
Fore
SplineSet
729.433696909 336.353715355 m 0
 729.433696909 529.126307717 624.928178859 671.095238333 375.2788813 671.095238333 c 0
 371.551651938 671.095238333 367.792069917 671.063593351 364 671 c 0
 257.627072169 669.216116516 171.24625 606 168 606 c 1
 140 663 l 1
 140 663 243.377679629 735.059276807 388.782106683 735.059276807 c 0
 603.428706645 735.059276807 802.630680553 587.283471541 802.630680553 332.138869713 c 0
 802.630680553 115.980318792 722 -51.8984375 562.459960938 -51.8984375 c 0
 523.012225123 -51.8984375 507.52734375 -28.3955078125 489.404296875 -28.3955078125 c 0
 465.8984375 -28.3955078125 441.67321187 -54.194788182 426 -93.9130859375 c 1
 387.888671875 -77 l 1
 437.870117188 0.8115234375 487.03125 84.2724609375 481.032226562 178.049804688 c 0
 474.748046875 276.287109375 382.245117188 329.544921875 307.25390625 329.544921875 c 0
 204.419921875 329.544921875 114.188426452 262.353356026 114.188426452 129.487772851 c 0
 114.188426452 46.1939293237 150.720429627 -8.29996482784 223.156450723 -8.29996482784 c 0
 264.450240012 -8.29996482784 283.410676113 25.0716101117 283.410676113 52.2395919339 c 0
 283.410676113 85.2871093689 263.3278797 110.944387788 231.645347396 110.944387788 c 0
 206.208828671 110.944387788 182.908099119 91.3329854617 182.908099119 54.2901043244 c 0
 182.908099119 26.8554342915 199.269719187 -6.75007071989 241.888671875 -12.09375 c 1
 241.888671875 -23.3828125 l 1
 173.338103735 -21.2866882992 140.354969036 15.9624058636 140.354969036 56.8915928886 c 0
 140.354969036 114.103920526 180.590897669 169.707495946 246.030764778 169.707495946 c 0
 302.182274151 169.707495946 345.766588866 127.157169428 345.776368325 61.1018357432 c 0
 345.776368325 9.07230137733 306.615454565 -58.7974827796 225.735726507 -58.7974827796 c 0
 106.116836192 -58.7974827796 61.5204093666 58.3383752433 61.5204093666 151.438548147 c 0
 61.5204093666 326.481537799 178.671644692 422.469784525 320.525390625 424.913085938 c 0
 404.267578125 426.35546875 542.91796875 370.383789062 542.91796875 194.314453125 c 0
 542.91796875 113.931640625 513.920168399 68.4514024232 492.997070312 30 c 1
 482.197265625 70 l 1
 494.90920093 57.6341068233 529.725071921 50.37890625 561.459960938 50.37890625 c 4
 675 50.37890625 729.433696909 174.697543896 729.433696909 336.353715355 c 0
EndSplineSet
Layer: 2
Layer: 3
EndChar

StartChar: si_Ga
Encoding: 23 3484 29
GlifName: si_G_a
Width: 958
VWidth: -24
Flags: HMW
AnchorPoint: "si_hal" 711.005 511 basechar 0
LayerCount: 4
Back
SplineSet
685.764648438 15.6123046875 m 4
 792.69921875 27.6982421875 847.627929688 96.9677734375 847.627929688 219.600585938 c 4
 847.627929688 341.538085938 780.137695312 439.272460938 644.942382812 437.533203125 c 4
 551.682617188 436.399414062 465.357421875 377.801757812 439.8828125 264.823242188 c 5
 389.615234375 248.01171875 l 5
 404.201171875 440.625976562 519.979492188 535.514648438 643.684570312 542.603515625 c 4
 821.747070312 552.603515625 911.875 411.889648438 911.875 267.375 c 4
 911.875 101.1640625 834.436523438 -54.5166015625 655.416015625 -55.814453125 c 4
 605.0078125 -56.1796875 569.495117188 -45.9150390625 551.6875 -36.138671875 c 5
 570.45703125 38.328125 l 5
 591.125 22.771484375 643.908203125 10.5341796875 685.764648438 15.6123046875 c 4
105.979492188 245.841796875 m 4
 105.15234375 150.483398438 166.659179688 56.111328125 316.004882812 50.5908203125 c 4
 401.580078125 47.0771484375 486.891601562 79.8349609375 489.004882812 150 c 4
 490.190429688 200.606445312 456.321289062 247 390.004882812 247 c 5
 431.004882812 281 l 5
 473.004882812 279.932617188 542.657226562 240.7421875 543.004882812 152 c 4
 543.51171875 44.1220703125 469.598632812 -57.0576171875 304.603515625 -55.0048828125 c 4
 146.708984375 -53.0400390625 45 61.9140625 45 221.564453125 c 4
 45 428.865234375 193.293945312 526 328.004882812 538 c 4
 335.884765625 461.879882812 l 4
 240.920898438 461.879882812 107.439453125 422.454101562 105.979492188 245.841796875 c 4
EndSplineSet
Fore
SplineSet
911.875 267.375 m 4
 911.875 100.338867188 833.881835938 -55.82421875 652.806640625 -55.82421875 c 4
 603.78125 -55.82421875 569.185546875 -45.7451171875 551.6875 -36.138671875 c 5
 560.45703125 16.328125 l 5
 577.998046875 3.125 618.641601562 -7.4404296875 656.151367188 -7.4404296875 c 4
 662.837890625 -7.4404296875 669.42578125 -7.1044921875 675.764648438 -6.3876953125 c 4
 782.69921875 5.6982421875 852.627929688 106.967773438 852.627929688 229.600585938 c 4
 852.627929688 350.478515625 781.305664062 437.555664062 648.450195312 437.555664062 c 4
 538.854492188 437.555664062 416.18359375 378.271484375 409.8828125 187.823242188 c 5
 359.615234375 187.823242188 l 5
 365.288085938 431.571289062 508.135742188 542.653320312 653.456054688 542.653320312 c 4
 825.038085938 542.653320312 911.875 410.295898438 911.875 267.375 c 4
309.604492188 -55.0390625 m 0
 148.177734375 -55.0390625 45 60.2998046875 45 221.564453125 c 0
 45 428.865234375 213.293945312 546 348.004882812 548 c 1
 348.004882812 484.879882812 l 1
 252.9375 484.879882812 112.971679688 431.807617188 105.971679688 243.94921875 c 0
 102.402961704 148.175840915 163.317382812 36.2587890625 318.431640625 36.2587890625 c 0
 400.133789062 36.2587890625 499.021484375 83.4892578125 499.021484375 181.946289062 c 0
 499.021484375 237.381835938 449.079101562 277 410.004882812 277 c 1
 421.004882812 321 l 1
 468.494140625 319.794921875 547.0078125 275.235351562 547.0078125 174.76953125 c 0
 547.0078125 56.0498046875 473.295898438 -55.0390625 309.604492188 -55.0390625 c 0
EndSplineSet
Layer: 2
Layer: 3
EndChar

StartChar: si_Gha
Encoding: 24 3485 30
GlifName: si_G_ha
Width: 915
VWidth: -24
Flags: HMW
LayerCount: 4
Back
SplineSet
39 379 m 1xe8
 417 381 l 1
 419 336 l 1
 123 335 l 1
 38 322 l 1
 39 379 l 1xe8
547 373 m 1
 580 384 l 1
 679.491210938 410.330078125 865 380.840820312 865 186 c 0
 865 64 790.377929688 -45 659 -45 c 0
 554 -45 521 13 506 117 c 1
 505.427734375 116.142578125 540 147 534 165 c 24
 528 183 486.626953125 183.658203125 484 184 c 1
 481.327148438 184.34765625 438 184 427 162 c 24
 419 145 461.505859375 117.758789062 461 117 c 1
 443.119140625 16 420.748046875 -43.1982421875 304 -44 c 0
 171.470703125 -44.91015625 99.1728515625 54.9951171875 101 154 c 0
 103.165039062 268 197.35546875 346 232 347 c 1
 326 338 l 1
 239.861328125 324.103515625 161.854492188 266.251953125 163 183 c 0
 163.899414062 112.950195312 215.602539062 66.7216796875 304 62 c 0
 345.575534477 59.7790143032 409.211914062 74.7744140625 415 107.828125 c 1
 414.201171875 132.467773438 370.123013369 139.845373801 371 171 c 0
 372.030155581 207.595896569 416.004882812 243.372070312 488 242 c 0
 555.00390625 240.72265625 590 210 590 174 c 0
 590 142.71560447 550.262695312 129.123046875 548 112.466796875 c 1
 551.45703125 84.8037109375 620.854500708 64.2333014695 664 64 c 0
 743.806640625 63.599609375 799.400390625 113.7890625 801 195 c 0xf2
 803.384765625 310.975585938 705.305664062 383.813476562 542 328 c 1
 537 350.166992188 532.391601562 374.670898438 532 398 c 0
 530 500 603 568 687 570 c 0
 753.981445312 571.594726562 830 532 830 452 c 0
 830 356 737 330 737 330 c 1
 721 337 l 1
 721 337 760 374.990234375 760 424 c 0xe4
 760 465 719.879882812 513.047851562 656 509 c 0
 619.995117188 506.71875 577 472 572 411 c 0
 568.227539062 364.98046875 588 353 588 353 c 1
 547 373 l 1
388 364 m 1xe8
 391 398 391 417 379 445 c 0
 365 480 310 508 260 503 c 0
 209 419 l 1
 179 422 155 439 155 476 c 0
 155 543 227 568 280 568 c 0
 360 568 433.29296875 518.05078125 436 433 c 0
 437.56640625 383.791015625 428 358.083007812 419 337 c 1
 388 364 l 1xe8
EndSplineSet
Fore
SplineSet
38 379 m 1
 417 379 l 1
 417 336 l 1
 123 336 l 1
 38 322 l 1
 38 379 l 1
669.50390625 509.239257812 m 0
 624.901367188 509.239257812 567.521484375 469.69140625 567.521484375 399.736328125 c 0
 567.521484375 362.984375 578 353 578 353 c 1
 547 373 l 1
 580 384 l 1
 599.655293784 389.201719992 622.667784798 392.224855977 646.943859699 392.224855977 c 0
 745.548476136 392.224855977 865 342.348439645 865 186 c 0
 865 64 790.377929688 -35 659 -35 c 0
 554 -35 521 23 506 127 c 5
 506 127 534.700195312 152.271484375 534.700195312 170.461914062 c 4
 534.700195312 193.291015625 485.583984375 194.0625 482.056640625 194.0625 c 4
 472.999023438 194.0625 436.90234375 191.803710938 427 172 c 4
 426.311523438 170.537109375 425.997070312 168.998046875 425.997070312 167.407226562 c 4
 425.997070312 150.6171875 461.165039062 127.975585938 461.004882812 127.016601562 c 4
 444.004882812 25.55078125 396.713867188 -35 292.205078125 -35 c 0
 162.446289062 -35 100.966195144 52.9929529197 100.966195144 150.334902037 c 0
 100.966195144 263.780552002 193.487595798 347 229.930389091 347 c 2
 326 347 l 1
 240.486672483 333.204400488 162.987539454 267.089611123 162.987539454 184.809139398 c 0
 162.987539454 112.461820647 218.894174903 61.7853380784 312.285623038 61.7853380784 c 0
 353.532063923 61.7853380784 409.584960938 86.9033203125 415 117.828125 c 5
 414.208984375 142.224609375 370.987304688 149.698242188 370.987304688 180.0859375 c 4
 370.987304688 216.868164062 414.483398438 252.038085938 484.00390625 252.038085938 c 4
 552.623046875 252.038085938 590 220.9609375 590 184 c 4
 590 152.715820312 550.262695312 139.123046875 548 122.466796875 c 5
 551.478515625 94.6357421875 621.488865829 63.9976221333 664.947023244 63.9976221333 c 0
 745.537953266 63.9976221333 801.042515461 115.421463652 801.042515461 199.119644635 c 0
 801.042515461 285.642742474 744.348655419 347.144005151 645.992879046 347.144005151 c 0
 615.246714379 347.144005151 580.429359456 341.134119785 542 328 c 1
 536.674954473 351.60804852 531.959846987 376.578855594 531.959846987 402.085058768 c 0
 531.959846987 502.724983096 597.185546875 566.045898438 694.900390625 566.045898438 c 0
 770.896484375 566.045898438 830 521.451039846 830 452 c 0
 830 356 737 330 737 330 c 1
 721 339 l 1
 721 339 760 374.990234375 760 424 c 0
 760 463.370376237 729.005859375 509.239257812 669.50390625 509.239257812 c 0
280 568 m 0
 364.702352926 568 436.169614714 515.178033822 436.169614714 422.569098419 c 0
 436.169614714 380.053997323 427.341528536 356.540501255 419 337 c 1
 393 364 l 1
 394 375.333007812 394.666992188 385 394.666992188 393.888671875 c 0
 394.666992188 462.0078125 333.787991519 508.655960281 263.433975885 508.655960281 c 1
 209 419 l 1
 179 422 155 439 155 476 c 0
 155 543 227 568 280 568 c 0
EndSplineSet
Layer: 2
Layer: 3
Colour: ff0000
EndChar

StartChar: si_Nga
Encoding: 25 3486 31
GlifName: si_N_ga
Width: 1080
VWidth: -24
Flags: HMW
LayerCount: 4
Back
SplineSet
458.51171875 474 m 25x9e
 308.51171875 490 l 17
 173.51171875 448 112.876953125 383.963867188 107.51171875 238 c 0
 104.762695312 163.2109375 147.520507812 56.189453125 195.51171875 18.7021484375 c 0
 154.51171875 -30.3115234375 l 0
 86.853515625 20.875 39.51171875 137.236328125 45.51171875 245 c 0
 58.5751953125 479.63671875 268.51171875 599 457.51171875 539 c 1
 458.51171875 474 l 25x9e
EndSplineSet
Refer: 29 3484 N 1 0 0 1 121.512 0 2
Fore
SplineSet
42 206.418945312 m 4
 42 412.39453125 199.557990256 539.768044798 358.908203125 554.3671875 c 0
 391.653320312 557.3671875 434.89453125 556.354492188 467.51171875 549 c 5
 468.51171875 484 l 25
 340.51171875 510 l 17
 205.51171875 468 111.876953125 383.963867188 106.51171875 238 c 4
 103.657226562 160.173828125 137.0234375 55.796875 184.51171875 18.7021484375 c 5
 136.51171875 -26.3115234375 l 5
 82.7275390625 21.9443359375 42 104.125 42 206.418945312 c 4
EndSplineSet
Refer: 29 3484 N 1 0 0 1 121.512 0 2
Layer: 2
Layer: 3
Colour: ff0000
EndChar

StartChar: si_Nnga
Encoding: 26 3487 32
GlifName: si_N_nga
Width: 1062
VWidth: -24
Flags: HMW
LayerCount: 4
Back
SplineSet
441 474 m 25x9e
 291 490 l 17
 156 448 95.365234375 383.963867188 90 238 c 0
 87.2509765625 163.2109375 130.008789062 56.189453125 178 18.7021484375 c 0
 137 -30.3115234375 l 0
 69.341796875 20.875 22 137.236328125 28 245 c 0
 41.0634765625 479.63671875 251 599 440 539 c 1
 441 474 l 25x9e
EndSplineSet
Refer: 29 3484 N 1 0 0 1 104 0 2
Fore
SplineSet
27.4877963147 226.418973684 m 0
 27.4877963147 432.394794237 181.378327869 554.367437437 341.396308294 554.367437437 c 0
 374.141404122 554.367437437 407.382485253 549.354766586 440 539 c 1
 441 474 l 25
 291 490 l 17
 156 448 95.365234375 383.963867188 90 238 c 0
 89.9158266238 235.710005739 89.8743180019 233.389792099 89.8743180019 231.0422805 c 0
 89.8743180019 156.722267327 131.478249889 55.0416153301 178 18.7021484375 c 1
 137 -30.3115234375 l 1
 73.2156281333 17.9442695735 27.4877963147 124.125241698 27.4877963147 226.418973684 c 0
EndSplineSet
Refer: 29 3484 N 1 0 0 1 104 0 2
Layer: 2
Layer: 3
Colour: ff0000
EndChar

StartChar: si_Cha
Encoding: 28 3489 33
GlifName: si_C_ha
Width: 855
VWidth: -24
Flags: HMW
AnchorPoint: "si_MaU" 710 158.28 mark 0
AnchorPoint: "si_hal" 639 516 basechar 0
LayerCount: 4
Back
SplineSet
592 219 m 0xfe
 511.918945312 219.434570312 488.201116911 292.763424947 486.741210938 352 c 4
 481.936523438 546.953125 622.448767968 725.752779993 781 771 c 1
 808 688 l 17
 633.265625 660.305664062 549.120117188 507.9765625 537.295898438 414 c 0
 525.741210938 322.166992188 542.079101562 263.030273438 595 264 c 0
 639.142578125 264.80859375 660.87890625 295.380859375 661 367 c 0
 661.078125 413 628 494 549 494 c 0
 502 494 465 462 465 419 c 0
 465 367 490 352 490 352 c 1
 442 333 l 1
 434 358 427 384 427 426 c 0
 428 512 510 553 571 553 c 0
 654 553 725 477 725 397 c 0
 725 266.061523438 656.436523438 218.650390625 592 219 c 0xfe
119 209 m 0
 118 124 203 45 388 45 c 0
 563 45 663.451154009 127.008854445 665 216 c 0
 666.775330903 318.004157759 539 348 442 333 c 1
 462 373 l 1
 607 402 740 331 736 193 c 0xfd
 731 29 564 -59 383 -59 c 0
 189 -59 38 33 40 180 c 0
 42 339 208 394 316 384 c 1
 292 345 l 1
 299 365 312.3731417 386.33162663 308 415 c 0
 299 474 239 505 171 490 c 0
 204 511 l 1
 149 409 l 1
 108 411 81.6005478023 436.013695057 83 471 c 0
 85 521 142 557 202 557 c 0
 272 557 344 517 346 439 c 0
 347 402 341 370 332 333 c 1
 208 351 120 287 119 209 c 0
EndSplineSet
Fore
SplineSet
592.706709422 218.99808239 m 0
 508.547773424 218.99808239 486.621484679 296.743227831 486.621484679 361.725801539 c 0
 486.621484679 552.871261717 625.089154181 726.506291236 781 771 c 1
 808 688 l 17
 633.265625 660.305664062 549.120117188 507.9765625 537.295898438 414 c 0
 534.975205602 395.555866109 533.779655378 378.430648952 533.779655378 362.846418525 c 0
 533.779655378 301.464131785 552.327063591 263.988251769 593.724101155 263.988251769 c 0
 639.058152911 263.988251769 660.939078787 295.200394789 661.000138042 367.162691097 c 0
 661.000138042 413.190702038 627.906948526 494 549 494 c 0
 502 494 465 462 465 419 c 0
 465 367 490 352 490 352 c 1
 442 333 l 1
 434 358 427 384 427 426 c 0
 428 512 510 553 571 553 c 0
 654 553 725 477 725 397 c 0
 725 266.540104312 656.936807285 218.99808239 592.706709422 218.99808239 c 0
202 557 m 0
 275.901191329 557 346.10864712 515.023161921 346.10864712 430.978600488 c 0
 346.10864712 397.304655125 340.343458848 367.300886376 332 333 c 1
 317.707148882 335.074768711 303.892593898 336.060085117 290.634436971 336.060085117 c 0
 188.516358983 336.060085117 118.991281819 277.800547844 118.991281819 207.518764974 c 0
 118.991281819 123.084497486 204.07507288 45 388 45 c 0
 563.359032352 45 665.018298434 127.091020038 665.018298434 218.095506316 c 0
 665.018298434 302.344918455 575.668758708 336.633799944 489.984957174 336.633799944 c 0
 473.641436309 336.633799944 457.431284548 335.386281116 442 333 c 1
 462 373 l 1
 483.553636378 377.310727276 504.842125983 379.411898113 525.454917298 379.411898113 c 0
 641.474629437 379.411898113 736.087984079 312.846073136 736.087984079 199.041070427 c 0
 736.087984079 29.9264792989 564.546471811 -59 383 -59 c 0
 190.270967073 -59 39.9803613354 31.7984953833 39.9803613354 177.117935184 c 0
 39.9803613354 326.350116799 183.318484332 385.13668223 290.736825623 385.13668223 c 0
 299.423095656 385.13668223 307.87565487 384.752254179 316 384 c 1
 292 345 l 1
 298.049870914 362.285345467 308.860210494 380.565359992 308.860210494 403.716776678 c 0
 308.860210494 460.971590436 259.345571313 493.750484627 204.507139816 493.750484627 c 0
 193.702917204 493.750484627 182.465169777 492.529081568 171 490 c 1
 204 511 l 1
 149 409 l 1
 109.038252247 410.949353549 82.946949198 434.761598068 82.946949198 468.36149878 c 0
 82.946949198 520.604454022 141.634845074 557 202 557 c 0
EndSplineSet
Layer: 2
Layer: 3
EndChar

StartChar: si_Ja
Encoding: 29 3490 34
GlifName: si_J_a
Width: 841
VWidth: -24
Flags: HMW
AnchorPoint: "si_hal" 639 516 basechar 0
AnchorPoint: "si_MaU" 710 158.28 mark 0
LayerCount: 4
Back
SplineSet
637 458 m 9xf8
 688 479 l 25
 688 479 689.344726562 453.623046875 690 432 c 0
 691 399 681.14316462 345.14565047 612 346 c 0
 529.8046875 347.015625 511.294642069 411.631971212 510.409179688 474 c 0
 508.469726562 610.606445312 612.135742188 725.743164062 761 771 c 1
 784 684 l 21
 669.265625 682.305664062 545.011365245 606.846052658 555.295898438 461 c 0
 558.677497152 413.045191066 581.100585938 386.447265625 614 385 c 4
 662.357421875 382.873046875 648.147857261 447.357724458 637 458 c 9xf8
497 352 m 1
 442 333 l 1
 434 358 427 384 427 426 c 0
 428 512 510 553 571 553 c 0
 654 553 715 507 715 427 c 0
 715 349 618 309 618 309 c 1
 602 326 l 1
 636.051288152 347.130311028 650.883587155 377.105818001 651 417 c 0
 651.13422914 462.999749757 608 494 549 494 c 0
 502 494 469 452 469 409 c 0
 469 357 497 352 497 352 c 1
119 209 m 0
 118 124 203 45 388 45 c 0
 563 45 663.451154009 127.008854445 665 216 c 0
 666.775330903 318.004157759 539 348 442 333 c 1
 462 373 l 1
 607 402 740 331 736 193 c 0xf4
 731 29 564 -59 383 -59 c 0
 189 -59 38 33 40 180 c 0
 42 339 208 394 316 384 c 1
 287 345 l 1
 294 365 307.373046875 386.33203125 303 415 c 0
 294 474 239 505 171 490 c 0
 204 511 l 1
 149 409 l 1
 108 411 81.6005478023 436.013695057 83 471 c 0
 85 521 142 557 202 557 c 0
 272 557 344 517 346 439 c 0
 347 402 341 370 332 333 c 1
 208 351 120 287 119 209 c 0
EndSplineSet
Fore
SplineSet
555.295410684 461.465792075 m 0
 555.34644187 412.73234541 581.315278072 384.948562632 616.301563912 384.948562632 c 0
 640.51190086 384.948562632 647.939746582 402.592320409 647.939746582 420.710443889 c 0
 647.939746582 436.714831749 642.143930708 453.089358727 637 458 c 9
 688 479 l 25
 688 479 690.064957975 447.850387189 690.064957975 427.726780382 c 0
 690.064957975 394.834168219 678.42535309 345.989957376 613.617534854 345.989957376 c 0
 527.988796479 345.989957376 510.376165942 403.53643643 510.376165942 469.66100884 c 0
 510.376165942 633.440112155 593.599421776 756.370788077 721 811 c 1
 794 743 l 17
 679.396772226 721.330461791 555.295410684 597.130445721 555.295410684 461.465792075 c 0
497 352 m 1
 442 333 l 1
 434 358 427 384 427 426 c 0
 428 512 510 553 571 553 c 0
 654 553 715 507 715 427 c 0
 715 349 618 309 618 309 c 1
 602 326 l 1
 636.099868778 347.160457428 650.941872925 377.17384634 651.000312411 417.214050202 c 0
 651.000312411 463.095892596 607.908438927 494 549 494 c 0
 502 494 469 452 469 409 c 0
 469 357 497 352 497 352 c 1
202 527 m 0
 276.604991817 527 346.10864712 515.926163403 346.10864712 430.978600488 c 0
 346.10864712 397.304655125 340.343458848 367.300886376 332 333 c 1
 317.707148882 335.074768711 303.892593898 336.060085117 290.634436971 336.060085117 c 0
 188.516358983 336.060085117 118.991281819 277.800547844 118.991281819 207.518764974 c 0
 118.991281819 123.084497486 204.07507288 45 388 45 c 0
 563.359032352 45 665.018298434 127.091020038 665.018298434 218.095506316 c 0
 665.018298434 302.344918455 575.668758708 336.633799944 489.984957174 336.633799944 c 0
 473.641436309 336.633799944 457.431284548 335.386281116 442 333 c 1
 462 373 l 1
 483.553636378 377.310727276 504.842125983 379.411898113 525.454917298 379.411898113 c 0
 641.474629437 379.411898113 736.087984079 312.846073136 736.087984079 199.041070427 c 0
 736.087984079 29.9264792989 564.546471811 -59 383 -59 c 0
 190.270967073 -59 39.9803613354 31.7984953833 39.9803613354 177.117935184 c 0
 39.9803613354 326.350116799 183.318484332 385.13668223 290.736825623 385.13668223 c 0
 299.423095656 385.13668223 307.87565487 384.752254179 316 384 c 1
 287 345 l 1
 293.049882663 362.285379036 303.860181652 380.565733229 303.860181652 403.717034631 c 0
 303.860181652 450.923901383 272.591110118 468.113896133 232.510796353 468.113896133 c 0
 214.17830446 468.113896133 193.287408214 464.916340047 171 460 c 1
 204 481 l 1
 149 379 l 1
 109.038226611 380.949354799 82.9469519503 404.761606597 82.9469519503 438.361561771 c 0
 82.9469519503 490.604465054 141.634889154 527 202 527 c 0
EndSplineSet
Layer: 2
Layer: 3
EndChar

StartChar: si_Ttha
Encoding: 35 3496 39
GlifName: si_T_tha
Width: 868
VWidth: -14
Flags: HMW
LayerCount: 4
Back
SplineSet
447 305 m 1
 464.684570312 392.088867188 408.3515625 448.735351562 311 440 c 1
 261 358 l 1
 231 361 207 378 207 415 c 0
 207 482 279 507 332 507 c 0
 412 507 487.65625 457.983398438 492 373 c 0
 494.56640625 322.791015625 488 304.083007812 481 282 c 1
 447 305 l 1
479.442382812 293 m 1
 453.442382812 305 415.467773438 291.521484375 382.442382812 290 c 0
 286.631835938 285.69921875 206.629882812 248.908203125 205.442382812 161 c 0
 204.799804688 113.450195312 247.28515625 71.2998046875 325 71 c 0
 391.03125 70.7548828125 447.442382812 111.124023438 447.442382812 205 c 1
 454.446289062 205.030273438 479.297851562 205.259765625 486 205.6796875 c 1
 486 108.375 550.194335938 71.36328125 605 71 c 0
 685.8515625 70.4794921875 736.901367188 143.420898438 741.442382812 317 c 0
 747.26953125 552.506835938 598.926757812 660.170898438 454.442382812 663 c 0
 313.016601562 665.685546875 223.5625 574 220.442382812 574 c 1
 187.442382812 625 l 0
 237.416015625 663.076171875 326.6796875 712.578125 445.442382812 712 c 0
 665.841796875 710.90234375 816.264648438 549.208007812 817.442382812 312 c 0
 818.178710938 149.983398438 765.995117188 -37.759765625 609 -41 c 0
 539.114257812 -42.470703125 483.245117188 -12.5888671875 463.442382812 51 c 1
 440.416992188 -17 371.322265625 -41.2734375 313 -41 c 0
 221.05859375 -40.5693359375 138.290039062 9.8798828125 134.442382812 128 c 0
 129.907226562 267.220703125 269.413085938 328.831054688 380.442382812 332 c 0
 452.442382812 334 469.442382812 319 469.442382812 319 c 1
 479.442382812 293 l 1
EndSplineSet
Fore
SplineSet
447 305 m 1
 449.172104173 315.696674474 450.227583862 325.934097094 450.227583862 335.647527588 c 0
 450.227583862 399.63689724 404.421805161 440.886021268 330.291200025 440.886021268 c 0
 324.0576198 440.886021268 317.623755106 440.594349264 311 440 c 1
 261 358 l 1
 231 361 207 378 207 415 c 0
 207 482 279 507 332 507 c 0
 412 507 487.65625 457.983398438 492 373 c 0
 492.388618557 365.397094946 492.567825481 358.516494322 492.567825481 352.237104646 c 0
 492.567825481 317.047900947 486.940023662 300.739084134 481 282 c 1
 447 305 l 1
134.334607405 134.579525331 m 0
 134.334607405 273.21555106 276.58899028 332.18359375 393.307128906 332.18359375 c 0
 454.500976562 332.18359375 469.442382812 319 469.442382812 319 c 1
 479.442382812 293 l 1
 471.567196909 296.634701186 462.593419369 297.931916171 452.991335062 297.931916171 c 0
 430.892048119 297.931916171 405.464654565 291.060639286 382.442382812 290 c 0
 286.770582104 285.705446842 205.435199046 248.749672508 205.435199046 159.93749759 c 0
 205.435199046 112.734028958 248.164467032 70.9988908464 325.597222753 70.9988908464 c 0
 391.371029174 70.9988908464 447.442382812 111.407170368 447.442382812 205 c 1
 454.446289062 205.030273438 479.297851562 205.259765625 486 205.6796875 c 1
 486 108.131855964 550.38151485 70.9972351985 605.857616037 70.9972351985 c 0
 688.250858861 70.9972351985 741.608651451 153.813745779 741.608651451 330.344505391 c 0
 741.608651451 558.229662505 594.831483005 663.057865136 448.350938349 663.057865136 c 0
 310.452222363 663.057865136 223.517464139 574 220.442382812 574 c 1
 187.442382812 625 l 1
 237.126537827 662.855611436 325.646866457 712.005017302 443.381516012 712.005017302 c 0
 666.342109112 712.005017302 817.450049384 548.454112945 817.450049384 308.62636563 c 0
 817.450049384 145.955633454 764.575054261 -41.0517111095 604.110336323 -41.0517111095 c 0
 536.51562506 -41.0517111095 482.781066421 -11.0987465788 463.442382812 51 c 1
 440.54495888 -16.622080892 372.088849063 -41.0022811445 313.973389848 -41.0022811445 c 0
 220.16162493 -41.0022811445 134.334607405 11.8777429797 134.334607405 134.579525331 c 0
EndSplineSet
Layer: 2
Layer: 3
EndChar

StartChar: si_Dda
Encoding: 36 3497 40
GlifName: si_D_da
Width: 854
VWidth: -14
Flags: HMW
LayerCount: 4
Back
SplineSet
182.7890625 617.07421875 m 1
 151.092773438 677.413085938 l 1
 213.742146034 708.273373392 300.795694322 736.526279832 407.442382812 736 c 0
 666.066806821 734.807105655 824.011550953 569.886773006 825.442382812 312 c 0
 826.218000843 149.983398438 771.278805969 -37.6119217922 606 -41 c 0
 534.673885055 -42.470703125 477.653259367 -12.5888671875 457.442382812 51 c 1
 433.345633629 -17 361.035964911 -41.2595697902 300 -41 c 0
 202.909179688 -40.5693359375 113.434872152 9.87236579321 111.442382812 128 c 0
 109.146944111 264.088428637 241.437663144 341.288024422 348.442382812 342 c 0
 412.352495172 342.461538462 427.442382812 339 427.442382812 339 c 1
 437.442382812 313 l 1
 414.122795183 325 380.033947874 307.885306092 350.442382812 310 c 0
 259.503558661 316.317738614 183.01505552 245.279416021 182.442382812 167 c 4
 182.021394909 106.674237477 224.634868025 61.2450768942 303 61 c 0
 374.256037929 60.7548828125 436.442382812 101.124023438 436.442382812 195 c 1
 443.446289062 195.030273438 468.297851562 195.259765625 475 195.6796875 c 1
 475 98.375 540.157859231 59.2183612945 616 61 c 0
 701.006593559 63.07551542 763.506846543 162.636115313 759.442382812 338 c 0
 753.860609073 539.378806602 647.08391055 686.296056147 384.442382812 679 c 0
 294.152055003 676.27367156 224.183070698 642.521980831 182.7890625 617.07421875 c 1
32 348 m 1
 443 353 l 1
 438 303 l 1
 135 300 l 1
 31 285 l 1
 32 348 l 1
405 325 m 1
 422.684570312 412.088867188 366.3515625 468.735351562 269 460 c 1
 219 378 l 1
 189 381 165 398 165 435 c 0
 165 502 237 527 290 527 c 0
 370 527 445.656117918 477.983391686 450 393 c 0
 452.56640625 342.791015625 446 324.083007812 439 302 c 1
 405 325 l 1
EndSplineSet
Fore
SplineSet
429.9609375 679.259765625 m 4
 331.701171875 679.259765625 254.764648438 644.723632812 209.7890625 617.07421875 c 5
 178.092773438 677.413085938 l 5
 240.166992188 707.990234375 326.19921875 736.006835938 431.509765625 736.006835938 c 4
 693.05859375 736.006835938 825.450462644 569.641699593 825.450462644 308.62464088 c 4
 825.450462644 146.064471519 769.649414062 -42.0517578125 601.009765625 -42.0517578125 c 4
 532.021484375 -42.0517578125 477.17964433 -11.0987465788 457.442382812 51 c 5
 433.472919184 -16.6408055852 361.79853816 -41.0020580934 300.968160409 -41.0020580934 c 4
 202.490100044 -41.0020580934 111.412920456 10.6818516024 111.412920456 131.486415633 c 4
 111.412920456 265.406226836 235.354492188 341.293945312 341.442382812 342 c 4
 332.166992188 310.391601562 l 5
 246.116210938 310.391601562 182.439293199 241.797641279 182.439293199 166.115494877 c 4
 182.439293199 106.050219766 225.283548734 60.9988908464 303.644514319 60.9988908464 c 4
 374.630602732 60.9988908464 436.442382812 101.407170368 436.442382812 195 c 5
 443.446289062 195.030273438 468.297851562 195.259765625 475 195.6796875 c 5
 475 100.482759051 537.365607138 60.9420232671 611.087044883 60.9420232671 c 4
 698.437778345 60.9420232671 759.629789101 154.397660711 759.629789101 321.989683986 c 4
 759.629789101 529.671965567 674.16796875 679.259765625 429.9609375 679.259765625 c 4
31 348 m 5
 443 345 l 5
 438 303 l 5
 135 303 l 5
 31 285 l 5
 31 348 l 5
405 325 m 5
 407.172104173 335.696674474 408.227583862 345.934097094 408.227583862 355.647527588 c 4
 408.227583862 419.63689724 362.421805161 460.886021268 288.291200025 460.886021268 c 4
 282.0576198 460.886021268 275.623755106 460.594349264 269 460 c 5
 219 378 l 5
 189 381 165 398 165 435 c 4
 165 502 237 527 290 527 c 4
 380.079354684 527 450.567825481 471.989561404 450.567825481 372.237104646 c 4
 450.567825481 338.047900947 443.940429688 321.739257812 438 303 c 5
 405 325 l 5
EndSplineSet
Layer: 2
Layer: 3
EndChar

StartChar: si_Nna
Encoding: 38 3499 42
GlifName: si_N_na
Width: 1433
VWidth: 0
Flags: HMW
LayerCount: 4
Back
SplineSet
877.641601562 408 m 4
 826.931640625 408 775 374.865234375 775 274 c 5
 753.650390625 274.952148438 l 5
 743.650390625 441.182617188 838.764648438 476 886.39453125 476 c 4
 931.098632812 476 993.24609375 446.081054688 998 354 c 5
 998 348 l 5
 1009.95214844 442.46875 1085.59863281 476 1139.18554688 476 c 4
 1240.13378906 476 1322.02269535 401.870672258 1322.02269535 219.342978679 c 4
 1322.02269535 80.765578374 1271.69140625 -70.0009765625 1115.8125 -70.0009765625 c 4
 1017.11328125 -70.0009765625 946.904296875 -22.419921875 946.904296875 132 c 5
 984 132 l 5
 985.497070312 23.7373046875 1049.10546875 -1.0009765625 1105.32910156 -1.0009765625 c 4
 1189.765625 -1.0009765625 1219.04394531 106.603515625 1219.04394531 197.5859375 c 4
 1219.04394531 338.063476562 1188.64648438 408 1112.24511719 408 c 4
 1068.7578125 408 1021.87304688 368.509765625 1021.87304688 298 c 5
 970 298 l 5
 968.909179688 370.229492188 916.40234375 408 877.641601562 408 c 4
222.620117188 332.629882812 m 260
 222.620117188 170.885742188 380.40142047 153.988374506 444.17416997 153.988374506 c 4
 475.993722979 153.988374506 513.83984375 179.44689085 513.83984375 222.740234375 c 260
 513.83984375 263.330078125 485.860351562 296.540039062 445.26953125 296.540039062 c 260
 404.6796875 296.540039062 377.469726562 263.330078125 377.469726562 222.740234375 c 260
 377.469726562 182.150390625 406.6796875 151.940429688 437.26953125 151.940429688 c 261
 437.26953125 106.26953125 l 261
 388.23046875 106.26953125 343.030273438 164.76953125 343.030273438 223.809570312 c 260
 343.030273438 292.849609375 394.23046875 344.75 463.26953125 344.75 c 260
 538.309570312 344.75 579.509765625 290.549804688 579.509765625 231.509765625 c 260
 579.509765625 159.440429688 527.5390625 94.66015625 428.990234375 94.66015625 c 260
 287.617118317 94.66015625 178.1796875 182.720532812 178.1796875 316.48046875 c 260
 178.1796875 475.790039062 314.600558429 575.049804688 471.1796875 575.049804688 c 260
 647.391200184 575.049804688 776.700195312 438.8440402 776.700195312 251.83984375 c 260
 776.700195312 132.530273438 677.182875878 -72 438.509765625 -72 c 260
 227.977687612 -72 215.178612657 89.91015625 114.91015625 89.91015625 c 260
 81.700195312 89.91015625 63.08984375 70.919921875 47.259765625 56.7001953125 c 261
 21.4296875 86.2197265625 l 261
 240.334960938 273.590820312 556.352539062 612.549804688 799.969726562 785.549804688 c 261
 834.5703125 738.969726562 l 261
 649.614257812 618.169921875 297.568359375 265.106445312 133.360351562 121.889648438 c 261
 207.16015625 121.889648438 248.700195312 17.330078125 435.66015625 17.330078125 c 260
 602.580078125 17.330078125 685.280273438 134.669921875 685.280273438 260.129882812 c 260
 685.280273438 420.740234375 560.46484375 514.299804688 440.719726562 514.299804688 c 260
 306.999023438 514.299804688 222.620117188 433.1953125 222.620117188 332.629882812 c 260
EndSplineSet
Fore
SplineSet
877.641601562 408 m 0
 826.931640625 408 775 374.865234375 775 274 c 1
 753.650390625 274.952148438 l 1
 743.650390625 441.182617188 838.764648438 476 886.39453125 476 c 0
 931.098632812 476 993.24609375 446.081054688 998 354 c 1
 998 348 l 1
 1009.95214844 442.46875 1085.59863281 476 1139.18554688 476 c 0
 1240.13378906 476 1322.02269535 401.870672258 1322.02269535 219.342978679 c 0
 1322.02269535 80.765578374 1271.69140625 -70.0009765625 1115.8125 -70.0009765625 c 0
 1017.11328125 -70.0009765625 946.904296875 -22.419921875 946.904296875 132 c 1
 984 132 l 1
 985.497070312 23.7373046875 1049.10546875 -1.0009765625 1105.32910156 -1.0009765625 c 0
 1189.765625 -1.0009765625 1219.04394531 106.603515625 1219.04394531 197.5859375 c 0
 1219.04394531 338.063476562 1188.64648438 408 1112.24511719 408 c 0
 1068.7578125 408 1021.87304688 368.509765625 1021.87304688 298 c 1
 970 298 l 1
 968.909179688 370.229492188 916.40234375 408 877.641601562 408 c 0
222.620117188 332.629882812 m 256
 222.620117188 170.885742188 380.40142047 153.988374506 444.17416997 153.988374506 c 0
 475.993722979 153.988374506 513.83984375 179.44689085 513.83984375 222.740234375 c 256
 513.83984375 263.330078125 485.860351562 296.540039062 445.26953125 296.540039062 c 256
 404.6796875 296.540039062 377.469726562 263.330078125 377.469726562 222.740234375 c 256
 377.469726562 182.150390625 406.6796875 151.940429688 437.26953125 151.940429688 c 257
 437.26953125 106.26953125 l 257
 388.23046875 106.26953125 343.030273438 164.76953125 343.030273438 223.809570312 c 256
 343.030273438 292.849609375 394.23046875 344.75 463.26953125 344.75 c 256
 538.309570312 344.75 579.509765625 290.549804688 579.509765625 231.509765625 c 256
 579.509765625 159.440429688 527.5390625 94.66015625 428.990234375 94.66015625 c 256
 287.617118317 94.66015625 178.1796875 182.720532812 178.1796875 316.48046875 c 256
 178.1796875 475.790039062 314.600558429 575.049804688 471.1796875 575.049804688 c 256
 647.391200184 575.049804688 776.700195312 438.8440402 776.700195312 251.83984375 c 256
 776.700195312 132.530273438 677.182875878 -72 438.509765625 -72 c 256
 227.977687612 -72 215.178612657 89.91015625 114.91015625 89.91015625 c 256
 81.700195312 89.91015625 63.08984375 70.919921875 47.259765625 56.7001953125 c 257
 21.4296875 86.2197265625 l 257
 240.334960938 273.590820312 556.352539062 612.549804688 799.969726562 785.549804688 c 257
 834.5703125 738.969726562 l 257
 649.614257812 618.169921875 297.568359375 265.106445312 133.360351562 121.889648438 c 257
 207.16015625 121.889648438 248.700195312 17.330078125 435.66015625 17.330078125 c 256
 602.580078125 17.330078125 685.280273438 134.669921875 685.280273438 260.129882812 c 256
 685.280273438 420.740234375 560.46484375 514.299804688 440.719726562 514.299804688 c 256
 306.999023438 514.299804688 222.620117188 433.1953125 222.620117188 332.629882812 c 256
EndSplineSet
Layer: 2
Layer: 3
EndChar

StartChar: si_Tha
Encoding: 41 3502 44
GlifName: si_T_ha
Width: 760
VWidth: -14
Flags: HMW
LayerCount: 4
Back
SplineSet
432.442382812 53 m 0
 606.903057197 53.3704637965 698 160.372262774 698 346 c 0
 698 548.711039482 539.286272538 641.901776851 405.504882812 668.212890625 c 0
 359.70476176 677.881634396 356.819335938 669.996182698 315 663 c 1
 316 731 l 1
 641.057046308 730.21331936 760 516.808403201 760 311 c 0
 760 91.0389972145 629.969726562 -56.3818359375 431.442382812 -59 c 0
 238.44921875 -60.677734375 128.573242188 38.0029296875 125.442382812 176 c 0
 122.153320312 320.966796875 244.427734375 394.418945312 355.442382812 398 c 0
 417.442382812 400 457.442382812 379 457.442382812 379 c 1
 443.442382812 334 l 1
 417.442382812 346 383.442382812 352 350.442382812 350 c 0
 280.369140625 345.8515625 207.5546875 302.787109375 206.442382812 218 c 0
 205.442382812 140.005859375 269.440429688 52.2841796875 432.442382812 53 c 0
336.81640625 671.124023438 m 1
 408 680 l 1
 406.842411748 652.9199701 442.176652403 567.054609442 482 549 c 0
 558.103687328 516.365234375 597.165650755 581.057617188 654 533 c 1
 671 500 l 1
 602.136145356 518.925781249 551.493716699 455.291092093 460 485.301757812 c 0
 369.477344724 516.791841306 390.422138226 651.103124612 336.81640625 671.124023438 c 1
EndSplineSet
Fore
SplineSet
254.81640625 698.124023438 m 1
 328 701.124023438 l 1
 345.971673885 703.674395516 349.097864296 569.356048417 450.033544293 569.356048417 c 0
 482.224874995 569.356048417 518.143554688 575.48828125 544.489257812 575.48828125 c 0
 560.350585938 575.48828125 580.3671875 571.090820312 604 563 c 1
 621 490 l 1
 601.357421875 532.530273438 582.055534943 533.584783103 572.94712506 533.584783103 c 0
 527.319517412 533.584783103 486.541992188 506.12109375 432.029296875 506.12109375 c 0
 286.284179688 506.12109375 309.469726562 703.977539062 254.81640625 698.124023438 c 1
347.971679688 43.9716796875 m 4
 544.466796875 43.9716796875 648 159.217710539 648 346 c 0
 648 567.584682845 473.007669772 689.452050486 325.504882812 698.212890625 c 0
 283.326810731 700.718032084 278.700048953 700.310817341 235 693 c 1
 235 761 l 1
 582.020360248 760.157127886 710 531.50900343 710 311 c 0
 710 80.6769576801 569.923146164 -58.5779178454 343.182257284 -58.5779178454 c 0
 127.590992381 -58.5779178454 42.841796875 53.572265625 42.841796875 173.12109375 c 0
 42.841796875 321.803710938 160.939453125 392.8046875 277.893554688 392.8046875 c 0
 306.623046875 392.8046875 344.6796875 387.365234375 370 371 c 1
 354 327 l 1
 331.888671875 340.119140625 300.750976562 343.663085938 280.850585938 343.663085938 c 0
 177.844726562 343.663085938 115.99609375 282.30078125 115.99609375 203.989257812 c 0
 115.99609375 109.697265625 214.6796875 43.9716796875 347.971679688 43.9716796875 c 4
EndSplineSet
Layer: 2
Layer: 3
EndChar

StartChar: si_Da
Encoding: 42 3503 45
GlifName: si_D_a
Width: 619
VWidth: -17
Flags: HMW
LayerCount: 4
Back
SplineSet
526.106445312 -389.28125 m 1
 382.545898438 -403.743164062 323.763671875 -298.6640625 320.015625 -231 c 4
 317.322265625 -146.361328125 373.14453125 -34.4345703125 513.015625 16 c 1
 525.015625 18.3330078125 533.015625 -0.3330078125 497.015625 2 c 1
 257.522460938 -90.2666015625 42.9150390625 -4.337890625 45.015625 165 c 0
 46.935546875 319.76171875 209.903320312 393.12109375 401.015625 394 c 0
 460.018554688 394.271484375 503.015625 385 503.015625 385 c 1
 503.015625 387.5 492.370117188 375.5 492.015625 378 c 1
 495.615234375 475 377.015625 506 322.015625 498 c 1
 266.015625 409 l 1
 220.015625 412 199.572265625 452.114257812 209.015625 488 c 0
 224.015625 545 277.015625 571 340.015625 571 c 0
 412.015625 571 510.015625 528 524.015625 444 c 0
 533.111328125 389.426757812 517.015625 345 517.015625 345 c 1
 517.015625 343 l 1
 277.473632812 364.4921875 166.551757812 306.422851562 156.015625 199 c 0
 142.364257812 59.8173828125 307.245117188 -31.3037109375 553.015625 57 c 1
 569.015625 23 l 1
 475.79296875 -18.275390625 429.576171875 -95.525390625 418.015625 -148 c 0
 402.9453125 -208.849609375 397.454101562 -324.783203125 549.374023438 -359.80859375 c 1
 526.106445312 -389.28125 l 1
EndSplineSet
Fore
SplineSet
45 162.538085938 m 0
 45 320.041015625 210.904296875 394.005859375 403.557617188 394.005859375 c 0
 461.249023438 394.005859375 503.015625 385 503.015625 385 c 1
 503.015625 387.5 492.015625 375.474609375 492.015625 378 c 0
 492.015625 465.44140625 399.334960938 499.203125 340.072265625 499.203125 c 0
 333.548828125 499.203125 327.469726562 498.79296875 322.015625 498 c 1
 266.015625 409 l 1
 227.368164062 411.520507812 206.760742188 440.239257812 206.760742188 470.63671875 c 0
 206.760742188 476.419921875 207.505859375 482.263671875 209.015625 488 c 0
 224.015625 545 277.015625 571 340.015625 571 c 0
 412.015625 571 510.015625 528 524.015625 444 c 0
 526.01953125 431.977539062 526.80078125 420.447265625 526.80078125 409.775390625 c 0
 526.80078125 372.0078125 517.015625 345 517.015625 345 c 1
 517.015625 343 l 1
 483.786132812 345.981445312 453.032226562 347.431640625 424.676757812 347.431640625 c 0
 248.630859375 347.431640625 165.090820312 291.521484375 156.015625 199 c 0
 155.48828125 193.622070312 155.227539062 188.315429688 155.227539062 183.088867188 c 0
 155.227539062 90.033203125 237.927734375 22.123046875 371.541992188 22.123046875 c 0
 424.654296875 22.123046875 485.810546875 32.853515625 553.015625 57 c 1
 569.015625 23 l 1
 475.79296875 -18.275390625 429.576171875 -95.525390625 418.015625 -148 c 0
 414.08203125 -163.880859375 410.801757812 -183.514648438 410.801757812 -204.483398438 c 0
 410.801757812 -263.854492188 437.104492188 -333.924804688 549.374023438 -359.80859375 c 1
 526.106445312 -389.28125 l 1
 517.046875 -390.194335938 508.325195312 -390.630859375 499.93359375 -390.630859375 c 0
 374.504882812 -390.630859375 319.922851562 -293.12890625 319.922851562 -225.143554688 c 0
 319.922851562 -141.266601562 376.318359375 -33.1728515625 513.015625 16 c 0
 513.694335938 16.244140625 514.418945312 16.2021484375 515.090820312 16.2021484375 c 0
 519.620117188 16.2021484375 523.143554688 13.2724609375 523.143554688 10.0556640625 c 0
 523.143554688 6.1396484375 517.922851562 1.7978515625 502.940429688 1.7978515625 c 0
 501.11328125 1.7978515625 499.141601562 1.8623046875 497.015625 2 c 0
 430.030273438 -23.806640625 364.991210938 -35.6728515625 306.096679688 -35.6728515625 c 0
 155.448242188 -35.6728515625 45 41.9677734375 45 162.538085938 c 0
EndSplineSet
Layer: 2
Layer: 3
SplineSet
456.106445312 -399.28125 m 5
 373.345703125 -372.770507812 330.344726562 -299.50390625 328.015625 -225 c 4
 325.43359375 -142.416992188 378.942382812 -33.208984375 513.015625 16 c 5
 525.015625 18.3330078125 533.015625 -0.3330078125 497.015625 2 c 5
 257.522460938 -90.2666015625 42.9150390625 -4.337890625 45.015625 165 c 4
 46.935546875 319.76171875 209.903320312 393.12109375 401.015625 394 c 4
 460.018554688 394.271484375 503.015625 385 503.015625 385 c 5
 503.015625 387.5 492.370117188 375.5 492.015625 378 c 5
 495.615234375 475 377.015625 506 322.015625 498 c 5
 266.015625 409 l 5
 220.015625 412 199.572265625 452.114257812 209.015625 488 c 4
 224.015625 545 277.015625 571 340.015625 571 c 4
 412.015625 571 510.015625 528 524.015625 444 c 4
 533.111328125 389.426757812 517.015625 345 517.015625 345 c 5
 517.015625 343 l 5
 277.473632812 364.4921875 166.551757812 306.422851562 156.015625 199 c 4
 142.364257812 59.8173828125 307.245117188 -31.3037109375 553.015625 57 c 5
 569.015625 23 l 5
 477.028320312 -15.8623046875 431.986328125 -88.3837890625 420.015625 -138 c 4
 401.427734375 -215.045898438 416.208984375 -321.025390625 471.374023438 -369.80859375 c 5
 456.106445312 -399.28125 l 5
EndSplineSet
EndChar

StartChar: si_Dha
Encoding: 43 3504 46
GlifName: si_D_ha
Width: 824
VWidth: -14
Flags: HMW
AnchorPoint: "si_MaU" 739 211 basechar 0
LayerCount: 4
Back
SplineSet
386 284 m 5
 250.503597122 301.379310345 123.466247874 252.459206919 128 158 c 4
 131.068944452 87.7909007353 219.271735546 45.1571471554 365 46 c 4
 558.999747213 47.1220420377 667 174.791108795 667 339 c 4
 667 547.71874417 557.941173041 679.712552472 342 677 c 4
 219.063691057 675.455731327 132.310705627 606 129 606 c 5
 97 660 l 5
 139.236417611 688.125 219.378877917 735.634192064 358 735 c 4
 565.816845959 734.018099283 730 582.319357855 730 331 c 4
 730 111.353515625 598.414766771 -48.5793000132 375 -58 c 4
 192.556677605 -65.2548684968 49.349757601 8.03433236137 46 137 c 4
 42.243902439 299.324324324 239.43902439 339.378378378 354 332 c 5
 354 402 304 438 212 438 c 5
 186 357 l 5
 135 350 100.76031191 378.857746694 109 425 c 4
 119 481 177 500 224 500 c 4
 300 500 389.99945787 462.999979147 394 359 c 4
 395.383789062 323.026367188 386 284 386 284 c 5
EndSplineSet
Fore
SplineSet
248.680664062 -40 m 4
 146.54296875 -41.1953125 48.37890625 29.958984375 48.37890625 172.37890625 c 4
 48.37890625 351.70703125 183.084960938 427.603515625 311.880859375 427.603515625 c 4
 371.659179688 427.603515625 403.442382812 409 403.442382812 409 c 5
 390.442382812 366 l 5
 367.262695312 376.698242188 337.745117188 382.247070312 308.212890625 382.247070312 c 4
 209.905273438 382.247070312 118.438476562 313.858398438 118.438476562 199.955078125 c 4
 118.438476562 121.688476562 175.383789062 64 255.694335938 64 c 4
 336.819335938 64 383.442382812 111.157226562 383.442382812 208 c 5
 419 208.6796875 l 5
 419 109.965820312 481.30859375 60 554.565429688 60 c 4
 673.508789062 60 721.998046875 191.377929688 721.998046875 328.465820312 c 4
 721.998046875 565.487304688 583.2265625 680.056640625 392.532226562 680.056640625 c 4
 262.923828125 680.056640625 157.542227817 599 154.442382812 599 c 5
 121.442382812 655 l 5
 173.06499403 691.124020277 271.971175833 739.004480654 394.391375879 739.004480654 c 4
 623.250384755 739.004480654 790.85879754 574.848198019 790.85879754 327.71325897 c 4
 790.85879754 161.296690931 733.401367188 -40 551.311523438 -40 c 4
 445.853515625 -40 394.399414062 14.40625 390.442382812 97 c 5
 408 97 l 5
 400.604492188 10.875 342.517578125 -38.90234375 248.680664062 -40 c 4
EndSplineSet
Layer: 2
Layer: 3
EndChar

StartChar: si_Pha
Encoding: 47 3509 48
GlifName: si_P_ha
Width: 760
VWidth: -14
Flags: HMW
LayerCount: 4
Back
SplineSet
336.81640625 671.124023438 m 1
 408 680 l 1
 406.842411748 652.9199701 442.176652403 567.054609442 482 549 c 0
 558.103687328 516.365234375 597.165650755 581.057617188 654 533 c 1
 671 500 l 1
 602.136145356 518.925781249 551.493716699 455.291092093 460 485.301757812 c 0
 369.477344724 516.791841306 390.422138226 651.103124612 336.81640625 671.124023438 c 1
405.504882812 668.212890625 m 0
 359.70476176 677.881634396 356.819335938 669.996182698 315 663 c 1
 316 731 l 1
 641.057046308 730.21331936 760 516.808403201 760 311 c 0
 760 91.0389972145 639.969813788 -50.3820154111 450 -58 c 0
 241.291028787 -65.8599509371 126.364332992 17.8013347216 123 121 c 0
 118.614471687 269.0700682 271.970703125 309.060546875 385 303 c 5
 378 375.333007812 330 419 262 408 c 5
 236 327 l 1
 189.63671875 320 158.509765625 348.857421875 166 395 c 0
 175.391601562 451 229.861328125 470 274 470 c 0
 340 470 419.999023438 443 424 339 c 0
 425.383789062 303.026367188 416 252 416 252 c 1
 288.25 268.000976562 195.34375 233.91015625 196 156 c 4
 196.540039062 85.6572265625 290.048202864 50.9382715874 434 52 c 0
 606.9035995 53.3002457237 698 160.372262774 698 346 c 0
 698 548.711039482 539.286272538 641.901776851 405.504882812 668.212890625 c 0
EndSplineSet
Fore
SplineSet
276.81640625 701.124023438 m 1
 358 701.124023438 l 1
 375.971679688 633.674804688 379.097864296 569.356048417 450.033544293 569.356048417 c 0
 482.224874995 569.356048417 508.158315031 577.606507249 534.489257812 578.48828125 c 0
 564.350585938 579.48828125 586.3671875 570.090820312 604 556 c 1
 601 530 l 1
 591.357212215 532.530202486 582.055534943 533.584783103 572.94712506 533.584783103 c 0
 527.319517412 533.584783103 486.541765774 507.121114466 432.029128565 507.121114466 c 0
 289.033814895 507.121114466 341.961914062 676.793945312 276.81640625 701.124023438 c 1
347.971679688 43.9765625 m 4
 554.47265625 43.9765625 648 159.21505378 648 346 c 0
 648 567.553977826 461.144963977 698.712890625 290.92578125 698.712890625 c 0
 273.43359375 698.712890625 262.851640445 697.659451438 235 693 c 1
 235 761 l 1
 582.020360248 760.157127886 710 531.50900343 710 311 c 0
 710 80.6450871332 569.998360511 -58.5121153184 343.182257284 -58.5121153184 c 0
 149.156964284 -58.5121153184 42.8988880223 22.5323988274 42.8988880223 127.505008164 c 0
 42.8988880223 268.720992368 187.973007291 313.613562244 306.997955322 313.613562244 c 0
 315.138744446 313.613562244 323.157676447 313.403556353 331 313 c 1
 333.905318439 377.872659591 289.541992188 419.6875 225.030273438 419.6875 c 0
 217.611328125 419.6875 209.92578125 419.134765625 202 418 c 1
 176 337 l 1
 171.353515625 336.298828125 166.861328125 335.95703125 162.543945312 335.95703125 c 0
 128.09375 335.95703125 104.887695312 357.703125 104.887695312 391.693359375 c 0
 104.887695312 457.354492188 167.708007812 480 214 480 c 0
 288.817382812 480 367.422851562 431.442382812 371.139648438 341.66015625 c 0
 372.537109375 307.903320312 360 265 360 265 c 1
 336.952148438 267.931640625 316.918333314 269.382001755 296.174696527 269.382001755 c 0
 188.803890568 269.382001755 115.996136957 230.515179168 115.996136957 156.929882885 c 4
 115.996136957 81.9263075819 214.67578125 43.9765625 347.971679688 43.9765625 c 4
EndSplineSet
Layer: 2
Layer: 3
EndChar

StartChar: si_Ba
Encoding: 48 3510 49
GlifName: si_B_a
Width: 827
VWidth: -24
Flags: HMW
LayerCount: 4
Back
SplineSet
456 284 m 5
 320.503597122 301.379310345 193.466247874 252.459206919 198 158 c 4
 201.198435779 82.6847844251 293.122601859 39.0959339489 445 40 c 4
 635.145695364 41.1494378811 741 165.786013888 741 334 c 4
 741 543.329032896 630.598910555 679.720483912 412 677 c 4
 289.063691057 675.455731327 202.310705627 606 199 606 c 5
 167 660 l 5
 209.236417611 688.125 289.378877917 735.634192064 428 735 c 4
 638.0514357 734.015644531 804 585.94765625 804 334 c 4
 804 114.912412532 674.638742544 -48.60327126 455 -58 c 4
 267.011287867 -65.2548684968 119.451573941 8.03433236137 116 137 c 4
 112.243902439 299.324324324 309.43902439 339.378378378 424 332 c 5
 424 402 374 438 282 438 c 5
 256 357 l 5
 205 350 170.76031191 378.857746694 179 425 c 4
 189 481 247 500 294 500 c 4
 370 500 459.99945787 462.999979147 464 359 c 4
 465.383789062 323.026367188 456 284 456 284 c 5
EndSplineSet
Fore
SplineSet
357.719726562 736.170898438 m 0
 606.50390625 736.170898438 776.819335938 576.395507812 776.819335938 314.8359375 c 0
 776.819335938 105.118164062 690.5703125 -54 525.998046875 -54 c 4
 409.928710938 -54 368.73828125 19.12109375 368.73828125 95.5048828125 c 0
 368.73828125 177.607421875 425.689453125 239.149414062 478 251 c 1
 465.032226562 236 l 1
 411.962890625 314.694335938 349.040039062 337.40234375 291.7265625 337.40234375 c 0
 186.359146013 337.40234375 94.2646484375 267.654360617 94.2646484375 129.993164062 c 0
 94.2646484375 46.3876953125 130.56640625 -18.2998046875 203.130859375 -18.2998046875 c 0
 244.424804688 -18.2998046875 263.41015625 15.0498046875 263.41015625 42.18359375 c 0
 263.41015625 75.2587890625 243.345703125 100.944335938 211.645507812 100.944335938 c 0
 186.131835938 100.944335938 162.920898438 81.2216796875 162.920898438 43.95703125 c 0
 162.920898438 16.765625 179.3671875 -16.7626953125 221.888671875 -22.09375 c 1
 224.706054688 -33.3828125 l 1
 166.139648438 -31.2861328125 123.353515625 -4.029296875 123.353515625 46.935546875 c 0
 123.353515625 104.098632812 166.522460938 151.697265625 226.788085938 151.697265625 c 0
 273.067382812 151.697265625 325.771484375 117.247070312 325.776367188 51.1015625 c 0
 325.776367188 -0.927734375 286.615234375 -58.7978515625 205.735351562 -58.7978515625 c 0
 86.111328125 -58.7978515625 41.5205078125 58.345703125 41.5205078125 151.451171875 c 0
 41.5205078125 325.930664062 163.985351562 434.862304688 301.784179688 434.862304688 c 0
 401.133789062 434.862304688 507.083984375 373.58203125 507.083984375 245.984375 c 0
 507.083984375 242.052734375 506.983398438 238.057617188 506.779296875 234 c 1
 494.501953125 220 l 1
 467.44921875 212.868164062 428.287109375 182.701171875 428.287109375 131.16015625 c 0
 428.287109375 78.955078125 471.506835938 50.6875 527.715820312 50.6875 c 0
 644.874023438 50.6875 709.068359375 158.501953125 709.068359375 312.538085938 c 0
 709.068359375 533.715820312 609.072265625 672.955078125 357.274414062 672.955078125 c 0
 240.85546875 672.955078125 142.37890625 609 142 609 c 2
 111 665 l 1
 111 665 212.422851562 736.170898438 357.719726562 736.170898438 c 0
EndSplineSet
Layer: 2
Layer: 3
EndChar

StartChar: si_Bha
Encoding: 49 3511 50
GlifName: si_B_ha
Width: 1023
VWidth: -24
Flags: HMW
LayerCount: 4
Back
SplineSet
23 373 m 5
 402 372 l 5
 397 331 l 5
 106 326 l 5
 22 308 l 5
 23 373 l 5
EndSplineSet
Refer: 57 3524 S 1 0 0 1 58 0 2
Fore
SplineSet
22 395 m 1
 402 395 l 1
 402 346 l 1
 106 346 l 1
 22 323 l 1
 22 395 l 1
EndSplineSet
Refer: 57 3524 N 1 0 0 1 58 0 2
Layer: 2
Layer: 3
EndChar

StartChar: si_Ma
Encoding: 50 3512 51
GlifName: si_M_a
Width: 812
VWidth: -14
Flags: HMW
LayerCount: 4
Back
SplineSet
213 318 m 0
 213 362 219.938476562 402.573242188 179 402 c 0
 126.487304688 401.264648438 105.385742188 324.01171875 110 252 c 0
 118.346679688 121.739257812 218.724449501 39.8556050954 398 41 c 0
 585.730293642 42.1983652589 689.689728215 184.001587629 695 344 c 0
 700.959081322 526.007763814 611.8203125 667.286132812 393 670 c 0
 250.181640625 671.747070312 154.237304688 598 151 598 c 5
 119 652 l 0
 119 652 237.187597042 732.576115226 390 732 c 0
 654.616210938 731.002375297 772.667964444 518.514037733 762 312 c 0
 752.000976562 118.435546875 632.8671875 -61 384 -61 c 0
 131.762695313 -61 39.4418335204 92.9474255486 37 234 c 0
 34.66015625 369.161132812 101.945737818 453.891179106 183 456 c 0
 233.296875 457.30859375 254.819335938 420.991210938 254.819335938 350 c 0
 254.819335938 256.060546875 314.53155278 225.708841672 380 226 c 0
 467.925587508 226.391032141 502.492632161 277.086178235 504 329 c 0
 505.604492188 384.258789062 468.827785214 448.463549438 398 449 c 0
 359.834960938 449.2890625 338.462308531 420.01252026 338 396 c 0
 337.615507813 376.029296875 349.323731281 349.234790415 389 349.561523438 c 0
 435.960533405 349.948242188 447.662715517 408.357421875 417 448.561523438 c 1
 459 447.561523438 l 1
 496.889648438 395.220876924 466.979278314 290.670424559 380 290 c 0
 341.118164062 289.700304047 291.747299607 314.624928524 291 380.856445312 c 0
 290.388671875 435.037109375 332.8359375 483 407 483 c 0
 484.396484375 483 549.58798614 419.054366018 550 334 c 0
 550.345307984 262.716107537 504.950195312 161.290039062 383 160 c 0
 284.40234375 158.95703125 213 208.918866902 213 318 c 0
EndSplineSet
Fore
SplineSet
560.001953125 327.115234375 m 0
 560.001953125 255.340820312 514.477539062 159.986328125 381.486328125 159.986328125 c 0
 293.979492188 159.986328125 216 209.952148438 216 318 c 0
 216 361.692382812 215.981445312 408.005859375 175.852539062 408.005859375 c 0
 127.17578125 408.005859375 100.3828125 350.768554688 100.3828125 286.059570312 c 0
 100.3828125 141.196289062 213.369140625 43.9912109375 392.830078125 43.9912109375 c 0
 598.465820312 43.9912109375 693.274414062 196.576171875 695.274414062 339 c 4
 697.8046875 519.211914062 608.852872266 670.034715055 375.681683882 670.034715055 c 0
 235.805772822 670.034715055 142.196954612 598 139 598 c 1
 107 652 l 1
 107 652 228.2734375 732.00390625 380.225585938 732.00390625 c 0
 621.682617188 732.00390625 761.955078125 548.226380068 761.955078125 334 c 0
 761.955078125 95.5924149499 617.236328125 -58 394 -58 c 0
 142.674804688 -58 41.9404296875 94.173828125 41.9404296875 240.522460938 c 0
 41.9404296875 366.501953125 103.575917283 456.034149224 185.605888852 456.034149224 c 0
 234.280898422 456.034149224 255.819335938 419.755859375 255.819335938 350 c 0
 255.819335938 236.505859375 345.941796459 222.450639296 391.0703125 222.998046875 c 0
 473.510742188 223.998046875 516.05078125 268.557617188 517.05078125 332.48046875 c 0
 518.214746565 406.884450791 486.188476562 449.001953125 416.439453125 449.001953125 c 0
 378.38671875 449.001953125 353.991210938 420.6796875 353.991210938 390.051757812 c 0
 353.991210938 370.314453125 367.802734375 341.55859375 406.282226562 341.55859375 c 0
 448.219726562 341.55859375 468.998046875 372.53125 468.998046875 399.853515625 c 0
 468.998046875 415.98046875 463.456054688 433.541015625 452 448.561523438 c 1
 478 447.561523438 l 1
 488.83203125 432.59765625 494.123046875 413.3671875 494.123046875 393.515625 c 0
 494.123046875 343.837890625 460.9140625 295.997070312 398.306640625 295.997070312 c 0
 359.370117188 295.997070312 309.993164062 315.451171875 309.993164062 382.010742188 c 0
 309.993164062 435.715820312 352.36328125 488 426 488 c 0
 513.618164062 488 560.001953125 412.755859375 560.001953125 327.115234375 c 0
EndSplineSet
Layer: 2
SplineSet
182 418 m 5
 140.951171875 386.802734375 116.327148438 320.063476562 119 258 c 4
 124.50390625 130.204101562 243.995117188 60.369140625 377 60 c 4
 571.99609375 59.458984375 655.291992188 192.06640625 661 317 c 4
 670 514 564.998046875 663.875976562 368 667 c 4
 246.999023438 668.918945312 153 595 150 595 c 5
 132 621 l 4
 132 621 236.998046875 706.665039062 384 706 c 4
 605 705 743 549 733 312 c 4
 724.189453125 103.185546875 601 -59 380 -59 c 4
 157 -59 57.4697265625 63.16796875 55 209 c 4
 52.66015625 347.161132812 113.9375 412.219726562 167 451 c 4
 182 450.357421875 l 5
 197.462890625 436 l 5
 194.671875 339.133789062 241.944335938 230.7109375 375 230 c 4
 470.00390625 229.4921875 494 298 494 343 c 4
 494 396.241210938 449.006835938 441.466796875 386 442 c 4
 343.19921875 442.362304688 322.262695312 421.0390625 322 396 c 4
 321.715820312 368.926757812 338 353 367 351.561523438 c 4
 425.037109375 348.682617188 412.008789062 415.986328125 413 445.561523438 c 5
 413.514648438 440.146484375 451.958984375 443.584960938 440 435.561523438 c 5
 456.25 412.91796875 454.431640625 308.831054688 363 310 c 4
 307.922851562 310.704101562 281.73828125 346.096679688 281 385.856445312 c 4
 279.995117188 440.03125 325 481 388 481 c 4
 458 481 539 438 537 334 c 4
 536.049804688 284.586914062 501 184 368 184 c 4
 237.788085938 184 153.149414062 277.543945312 161 419 c 5
 182 418 l 5
EndSplineSet
Layer: 3
EndChar

StartChar: si_Mba
Encoding: 51 3513 52
GlifName: si_M_ba
Width: 858
VWidth: -14
Flags: HMW
LayerCount: 4
Back
SplineSet
594.7537112 -43.0136502063 m 0
 763.072639867 -43.0136502063 819.024174485 190.033707926 819.024174485 317.230565953 c 0
 819.024174485 538.070391283 689.528614812 743.003053052 419.252811937 743.003053052 c 0
 249.917024311 743.003053052 128 657 128 657 c 1
 163 600 l 1
 166.27734375 600 258.401202386 680.519648197 399 682 c 0
 663.781687963 684.787861977 748.293085182 534.267877346 748.293085182 325.691962894 c 4
 748.293085182 203.387789686 698.697411429 55.2896769881 583.271245299 55.2896769881 c 0
 529.174765719 55.2896769881 492.374237206 81.6783806896 489 124.466796875 c 1
 501.262695312 146.536790725 531 164.547593046 531 206 c 0
 531 242.514192598 489.038811627 273.039299773 414.248873297 273.039299773 c 0
 349.937269314 273.039299773 311.976731577 238.702213627 311.976731577 200.985301669 c 0
 311.976731577 164.037178878 335.570327023 139.122640275 356 125.828125 c 1
 340.229604335 74.7546052442 304.886414003 53.9872027416 243.65175046 53.9872027416 c 0
 155.433384175 53.9872027416 108.997547512 135.183060437 108.997547512 225.385097283 c 0
 108.997547512 328.62526177 149.823111188 408.0103208 218.060096175 408.0103208 c 0
 254.186597049 408.0103208 261 371.577096237 261 328 c 0
 261 285.559305425 304.245997803 225.999654539 427.48560482 225.999654539 c 0
 537.439453921 225.999654539 590.239257812 310.2734375 590.239257812 377.76953125 c 0
 590.239257812 460.4921875 532.66015625 513 458 513 c 0
 373.548828125 513 340.990234375 452.721679688 340.990234375 413.915039062 c 0
 340.990234375 349.384765625 386.575195312 321.98046875 428.051757812 321.98046875 c 0
 487.361328125 321.98046875 513.215820312 371.37109375 513.215820312 418.228515625 c 0
 513.215820312 436.395507812 509.329101562 454.181640625 502 468.561523438 c 1
 460 473.561523438 l 1
 471.255859375 459.3125 476.497070312 442.65625 476.497070312 427.069335938 c 0
 476.497070312 398.484375 458.943359375 373.55859375 428.376953125 373.55859375 c 0
 394.411132812 373.55859375 380.9921875 399.428710938 380.9921875 419.184570312 c 0
 380.9921875 443.725585938 403.459960938 473.001953125 441.474609375 473.001953125 c 0
 519.674804688 473.001953125 542.226593822 404.425401291 536.226593822 356.343391497 c 0
 531.614734749 319.385482641 512.033962928 272.96419932 422.231623908 272.96419932 c 0
 352.112397568 272.96419932 307.819335938 296.475258123 307.819335938 350 c 0
 307.819335938 419.559922828 270.830869141 456.046373231 224.849558647 456.046373231 c 0
 127.562730833 456.046373231 40.9141889283 350.51258632 40.9141889283 202.121699218 c 0
 40.9141889283 101.249399846 82.6933839677 -42.0176313172 237.915116467 -42.0176313172 c 0
 329.546390386 -42.0176313172 402.005408228 20.4422853611 402.005408228 149.018820199 c 0
 402.005408228 149.999867175 367.99123144 167.112108888 367.99123144 195.217971147 c 0
 367.99123144 222.396535265 411.060657338 225.101395101 423.75259302 225.101395101 c 0
 429.071693931 225.101395101 475.021906173 219.704746842 475.021906173 194.515993175 c 0
 475.021906173 161.596411911 443 149 443 149 c 1
 442.835970599 144.628312708 442.755062813 140.335691274 442.755062813 136.121690137 c 0
 442.755062813 12.9932116654 511.829609845 -43.0136502063 594.7537112 -43.0136502063 c 0
EndSplineSet
Fore
SplineSet
216.852539062 448.005859375 m 17
 256.981445312 448.005859375 257 401.692382812 257 358 c 0
 257 249.952148438 333.979492188 200.986328125 421.486328125 200.986328125 c 0
 554.477539062 200.986328125 601.001953125 295.340820312 601.001953125 367.115234375 c 0
 601.001953125 452.755859375 544.618164062 523 467 523 c 0
 393.36328125 523 350.993164062 475.715820312 350.993164062 422.010742188 c 0
 350.993164062 355.451171875 400.370117188 335.997070312 439.306640625 335.997070312 c 0
 501.9140625 335.997070312 535.123046875 383.837890625 535.123046875 433.515625 c 0
 535.123046875 453.3671875 529.83203125 472.59765625 519 487.561523438 c 1
 493 488.561523438 l 1
 504.456054688 473.541015625 509.998046875 455.98046875 509.998046875 439.853515625 c 0
 509.998046875 412.53125 489.219726562 381.55859375 447.282226562 381.55859375 c 0
 408.802734375 381.55859375 394.991210938 410.314453125 394.991210938 430.051757812 c 0
 394.991210938 460.6796875 419.38671875 489.001953125 457.439453125 489.001953125 c 0
 527.188476562 489.001953125 559.21484375 446.884765625 558.05078125 372.48046875 c 0
 557.05078125 308.557617188 514.510742188 263.998046875 432.0703125 262.998046875 c 0
 386.94140625 262.450195312 296.819335938 276.505859375 296.819335938 390 c 0
 296.819335938 459.755859375 275.28125 496.034179688 226.60546875 496.034179688 c 0
 216.852539062 448.005859375 l 17
594.7537112 -43.0136502063 m 0
 763.072639867 -43.0136502063 819.024174485 190.033707926 819.024174485 317.230565953 c 0
 819.024174485 538.070391283 689.528614812 743.003053052 419.252811937 743.003053052 c 0
 249.917024311 743.003053052 128 657 128 657 c 1
 163 600 l 1
 166.27734375 600 258.401202386 680.519648197 399 682 c 0
 401.423920174 682.025521232 403.832680758 682.038245112 406.22635665 682.038245112 c 0
 666.288236488 682.038245112 748.293085182 531.847820021 748.293085182 325.691962894 c 0
 748.293085182 203.387789686 698.697411429 55.2896769881 583.271245299 55.2896769881 c 0
 529.174765719 55.2896769881 492.374023438 61.6787109375 489 104.466796875 c 1
 501.262695312 126.537109375 531 144.547851562 531 186 c 0
 531 222.514648438 489.0390625 253.0390625 414.249023438 253.0390625 c 0
 349.9375 253.0390625 311.9765625 218.702148438 311.9765625 180.985351562 c 0
 311.9765625 144.037109375 335.5703125 119.123046875 356 105.828125 c 1
 340.229492188 54.7548828125 304.886414003 53.9872027416 243.65175046 53.9872027416 c 0
 155.433384175 53.9872027416 108.997070312 165.182617188 108.997070312 255.384765625 c 4
 108.997070312 358.625 149.823242188 448.010742188 218.060546875 448.010742188 c 0
 254.186523438 448.010742188 261 411.577148438 261 368 c 0
 287.819335938 390 l 0
 287.819335938 459.559570312 270.831054688 496.045898438 224.849609375 496.045898438 c 0
 127.5625 496.045898438 40.9140625 380.512695312 40.9140625 232.122070312 c 4
 40.9140625 131.249023438 82.6933839677 -42.0176313172 237.915116467 -42.0176313172 c 0
 329.546390386 -42.0176313172 402.005859375 0.4423828125 402.005859375 129.018554688 c 0
 402.005859375 130 367.991210938 147.112304688 367.991210938 175.217773438 c 0
 367.991210938 202.396484375 411.060546875 205.1015625 423.752929688 205.1015625 c 0
 429.071289062 205.1015625 475.021484375 199.705078125 475.021484375 174.515625 c 0
 475.021484375 141.596679688 443 129 443 129 c 1
 442.8359375 124.627929688 442.754882812 120.3359375 442.754882812 116.122070312 c 0
 442.754882812 -7.0068359375 511.829609845 -43.0136502063 594.7537112 -43.0136502063 c 0
EndSplineSet
Layer: 2
Layer: 3
EndChar

StartChar: si_Ya
Encoding: 52 3514 53
GlifName: si_Y_a
Width: 856
VWidth: -24
Flags: HMW
AnchorPoint: "si_hal" 696.004 518 basechar 0
LayerCount: 4
Back
SplineSet
512.00390625 366 m 1xfe
 644.237304688 410.743164062 809.00390625 353.65625 809.00390625 178 c 0
 809.00390625 41.892578125 728.3125 -53 600.00390625 -53 c 0
 491.380859375 -53 426.90625 13 425.00390625 108 c 1
 423.00390625 105 458.00390625 111 456.00390625 108 c 1
 449.080078125 27 393.1171875 -51.3505859375 274.00390625 -52 c 0
 127.01953125 -52.837890625 45.71484375 49.0859375 45.00390625 178 c 0
 44.26171875 339.895507812 156.064453125 459.76953125 288.00390625 464 c 0
 314.009765625 464.833984375 341.00390625 463 365.00390625 453 c 1
 356.00390625 388 l 5
 323.178710938 402.400390625 297.998046875 404.036132812 255.00390625 401 c 4
 186.518554688 396.028320312 105.446289062 344.875976562 107.00390625 219 c 0
 108.138671875 124.959960938 172.78125 62.5048828125 270.00390625 61 c 0
 349.502929688 59.796875 417.73046875 93 420.00390625 197 c 1
 456.00390625 197 l 1
 456.00390625 100 526.936523438 56 608.00390625 56 c 0
 712.224609375 56 747.893554688 116.850585938 749.00390625 188 c 0xfd
 750.200195312 267.428710938 689.77734375 384.211914062 492.00390625 321 c 1
 487.00390625 349.743164062 484.70703125 349.853515625 483.00390625 380 c 0
 473.588867188 484.619140625 557.391601562 548.891601562 644.00390625 549 c 0
 715.208984375 549.086914062 781.00390625 514 781.00390625 434 c 0
 781.00390625 338 688.00390625 312 688.00390625 312 c 1
 662.00390625 329 l 1
 662.00390625 329 713.212890625 342.997070312 714.00390625 402 c 0
 714.647460938 449.994140625 663.10546875 479.125 619.00390625 479 c 0
 568.109375 478.870117188 522.546875 453 517.00390625 401 c 0
 513.00390625 355 530.00390625 339 530.00390625 339 c 1
 512.00390625 366 l 1xfe
EndSplineSet
Fore
SplineSet
619.331054688 479 m 0
 564.297851562 478.932617188 516.450195312 449.916992188 516.450195312 388.686523438 c 0
 516.450195312 352.279296875 532.00390625 340 532.00390625 340 c 1
 496.00390625 353 l 1
 512.00390625 366 l 1
 540.548828125 375.658203125 570.609375 380.572265625 600.201171875 380.572265625 c 0
 707.694335938 380.572265625 809.00390625 315.73828125 809.00390625 178 c 0
 809.00390625 41.892578125 731.3125 -51 607.00390625 -51 c 0
 507.381835938 -51 428.90625 5 425.00390625 108 c 1
 424.581054688 107.366210938 425.810546875 107.133789062 427.994140625 107.133789062 c 0
 433.959960938 107.133789062 447.046875 108.866210938 453.012695312 108.866210938 c 0
 455.196289062 108.866210938 456.426757812 108.633789062 456.00390625 108 c 0
 449.033203125 26.4521484375 387.41015625 -50.0048828125 267.170898438 -50.0048828125 c 0
 120.995117188 -50.0048828125 45 50.146484375 45 179.602539062 c 0
 45 340.686523438 156.5 459.783203125 288.00390625 464 c 0
 294.358398438 464.204101562 300.7734375 464.368164062 307.188476562 464.368164062 c 0
 327.024414062 464.368164062 346.869140625 462.80078125 365.00390625 456 c 1
 356.00390625 391 l 1
 332.650390625 399.111328125 313.129882812 402.723632812 288.352539062 402.723632812 c 0
 278.302734375 402.723632812 267.388671875 402.129882812 255.00390625 401 c 0
 190.118164062 395.083007812 106.982421875 345.7890625 106.982421875 222.434570312 c 0
 106.982421875 124.705078125 172.953125 60.96875 274.125976562 60.96875 c 0
 351.84765625 60.96875 417.770507812 94.802734375 420.00390625 197 c 1
 456.00390625 197 l 1
 456.00390625 100 524.936523438 56 606.00390625 56 c 4
 700.577148438 56 749.018554688 120.416992188 749.018554688 192.9921875 c 0
 749.018554688 256.056640625 704.260742188 339.3828125 592.330078125 339.3828125 c 0
 563.478515625 339.3828125 530.165039062 333.846679688 492.00390625 321 c 1
 487.001953125 339.750976562 482.6953125 359.517578125 482.6953125 390.8359375 c 0
 482.6953125 489.3828125 560.498046875 548.94921875 644.267578125 549 c 0
 715.37109375 549 781.00390625 513.901367188 781.00390625 434 c 0
 781.00390625 338 688.00390625 312 688.00390625 312 c 1
 663.00390625 329 l 1
 663.00390625 329 715.010742188 343.586914062 715.010742188 403.00390625 c 0
 715.010742188 450.297851562 669.942382812 479 619.331054688 479 c 0
EndSplineSet
Layer: 2
Layer: 3
EndChar

StartChar: si_La
Encoding: 54 3517 54
GlifName: si_L_a
Width: 924
VWidth: -5
Flags: HMW
AnchorPoint: "si_hal" 662 516 basechar 0
LayerCount: 4
Back
SplineSet
355 341 m 1
 443.666666667 336.596679688 532.333333333 339.290039062 621 341 c 1
 621 294 l 1
 355 294 l 1
 355 341 l 1
620 295 m 1
 547.709677419 295 537 262 537 239 c 0
 537 191.264496312 595.001138693 166.735844698 645 168 c 0
 730.586206897 170.163934426 781 218.852459016 781 300 c 0
 781 409.951923077 680.522180886 509.968996741 506 510 c 0
 309.467732884 510.033994334 184.02420052 333.001423777 177 145 c 0
 169.534239511 -54.8196944059 280.09053023 -214.834296789 482 -232 c 4
 638.394494372 -245.296164253 744.364444444 -168.980073294 790 -115 c 0
 836 -172 l 0
 793.174050633 -220.06060606 665.451836998 -297.584578157 489 -294 c 0
 238.676640506 -288.914738992 66.7577688588 -139.141784136 66 89 c 0
 65.064383628 370.68640861 263.869266055 564 513 564 c 0
 732.544303797 564 849 422 849 296 c 0
 849 155.94520548 762 83 642 83 c 0
 514.512820513 83 467.003722264 152.776664134 466 213 c 0
 465 273 508 323 548 327 c 1
 620 295 l 1
EndSplineSet
Fore
SplineSet
305 338.60546875 m 1
 621 338.605228247 l 1
 621 294 l 1
 305 294 l 1
 305 338.60546875 l 1
489.17915553 -282.106729893 m 0
 223.781695386 -282.106729893 55.9968683611 -119.202753395 55.9968683611 110.818105829 c 0
 55.9968683611 381.504018063 264.425266424 564 513 564 c 0
 732.543945312 564 849 422 849 296 c 0
 849 155.94520548 751 80 641 80 c 0
 515.888671875 80 472.982421875 146.962890625 472.982421875 209.053710938 c 4
 472.982421875 278.137695312 528.45703125 313.045898438 568 317 c 1
 620 295 l 1
 547.709677419 295 527 270 527 239 c 0
 527 192.435546875 591.189453125 167.953125 640.306640625 167.953125 c 0
 728.245117188 167.953125 781 209.363783978 781 300 c 0
 781 409.975035051 680.491311437 509.985274002 505.935137088 510.000005474 c 0
 296.497609761 510.000005474 166.55785145 342.343884785 166.55785145 140.208134653 c 0
 166.55785145 -59.2340304935 281.057617188 -222.764648438 525.658203125 -222.764648438 c 0
 653.516601562 -222.764648438 742.638671875 -160.056640625 783 -108 c 1
 819 -155 l 1
 776.497070312 -200.09375 671.273650206 -282.106729893 489.17915553 -282.106729893 c 0
EndSplineSet
Layer: 2
Layer: 3
EndChar

StartChar: si_Sha
Encoding: 56 3521 55
GlifName: si_S_ha
Width: 958
VWidth: -24
Flags: HMW
AnchorPoint: "si_hal" 711.005 511 basechar 0
LayerCount: 4
Back
SplineSet
864.334960938 287.131835938 m 5x9c
 861.387695312 202.45703125 l 5
 834.8671875 208.05078125 744.361328125 180.313476562 720.004882812 144 c 0
 675.302734375 74.296875 732.693359375 25.1318359375 675.946289062 -23.029296875 c 1
 630.600585938 -14.3720703125 l 1
 670.58984375 40.443359375 616.146484375 100.857421875 660.790039062 176.172851562 c 0
 709.661132812 258.620117188 835.774414062 237.546875 864.334960938 287.131835938 c 5x9c
691.764648438 17.6123046875 m 0
 794.735351562 29.5859375 847.627929688 108.114257812 847.627929688 229.600585938 c 0
 847.627929688 353.83984375 767.364257812 445.533203125 627.942382812 445.533203125 c 0
 547.075195312 445.533203125 436.370117188 397.33203125 429.8828125 254.823242188 c 1
 379.615234375 238.01171875 l 1
 375.662109375 437.1640625 506.456054688 542.603515625 646.684570312 542.603515625 c 0xdc
 818.6484375 542.603515625 911.875 411.889648438 911.875 267.375 c 0
 911.875 101.1640625 827.114257812 -54.5166015625 655.416015625 -55.814453125 c 0
 604.540039062 -56.19921875 564.66015625 -45.9150390625 546.6875 -36.138671875 c 1
 571.45703125 40.328125 l 1
 593.021484375 24.771484375 648.092773438 12.5341796875 691.764648438 17.6123046875 c 0
102.979492188 245.841796875 m 0
 102.229492188 128.7109375 171.219726562 50.8837890625 299.004882812 47.5908203125 c 0
 405.431640625 44.8486328125 476.637695312 87.9111328125 479.004882812 160 c 0
 480.32421875 200.172851562 453.772460938 237 380.004882812 237 c 1
 431.004882812 291 l 1
 480.004882812 290 542.657226562 244.21484375 543.004882812 160 c 0
 543.456054688 47.953125 464.599609375 -55.0048828125 299.603515625 -55.0048828125 c 0
 131.696289062 -55.0048828125 45 61.9140625 45 221.564453125 c 0
 45 428.865234375 201.293945312 536 328.004882812 538 c 0
 335.884765625 462.879882812 l 0xbc
 240.920898438 462.879882812 104.064453125 415.424804688 102.979492188 245.841796875 c 0
EndSplineSet
Fore
SplineSet
864.334960938 287.131835938 m 5
 864.334960938 202.45703125 l 5
 862.03515625 202.942382812 856.307617188 203.176757812 853.130859375 203.176757812 c 0
 819.669921875 203.176757812 742.25 177.165039062 720.004882812 144 c 0
 704.586914062 119.958984375 701.313476562 98.361328125 701.313476562 78.404296875 c 0
 701.313476562 63.6806640625 703.095703125 49.8505859375 703.095703125 36.591796875 c 0
 703.095703125 15.7197265625 698.6796875 -3.7353515625 675.946289062 -23.029296875 c 1
 630.600585938 -23.029296875 l 1
 643.01953125 -6.005859375 646.331054688 20.21484375 646.331054688 38.5966796875 c 0
 646.331054688 59.5986328125 642.0078125 81.6708984375 642.0078125 105.2265625 c 0
 642.0078125 127.439453125 645.8515625 150.971679688 660.790039062 176.172851562 c 0
 709.661132812 258.620117188 835.774414062 237.546875 864.334960938 287.131835938 c 5
911.875 267.375 m 0
 911.875 100.231445312 826.54296875 -55.8251953125 652.649414062 -55.8251953125 c 0
 603.095703125 -55.8251953125 564.333007812 -45.7373046875 546.6875 -36.138671875 c 1
 571.45703125 40.328125 l 1
 589.645507812 27.20703125 631.671875 16.4462890625 670.58984375 16.4462890625 c 0
 677.8125 16.4462890625 684.928710938 16.8173828125 691.764648438 17.6123046875 c 0
 794.735351562 29.5859375 847.627929688 108.114257812 847.627929688 229.600585938 c 0
 847.627929688 353.83984375 767.364257812 445.533203125 627.942382812 445.533203125 c 0
 547.075195312 445.533203125 436.370117188 397.33203125 429.8828125 254.823242188 c 1
 382.172851562 238.8671875 l 1
 382.172851562 432.34765625 508.52734375 542.603515625 646.684570312 542.603515625 c 0
 818.6484375 542.603515625 911.875 411.889648438 911.875 267.375 c 0
431.004882812 291 m 1
 480.305664062 289.994140625 543.006835938 243.8203125 543.006835938 159.043945312 c 0
 543.006835938 47.3681640625 464.129882812 -55.0048828125 299.603515625 -55.0048828125 c 0
 131.696289062 -55.0048828125 45 61.9140625 45 221.564453125 c 0
 45 428.865234375 201.293945312 536 328.004882812 538 c 1
 328.004882812 462.879882812 l 1
 232.596679688 462.879882812 102.973632812 414.809570312 102.973632812 243.956054688 c 0
 102.973632812 124.760742188 175.297851562 47.466796875 308.518554688 47.466796875 c 0
 409.942382812 47.466796875 479.051757812 90.3759765625 479.051757812 162.823242188 c 0
 479.051757812 201.881835938 452.041015625 237 380.004882812 237 c 1
 431.004882812 291 l 1
EndSplineSet
Layer: 2
Layer: 3
EndChar

StartChar: si_Ssa
Encoding: 57 3522 56
GlifName: si_S_sa
Width: 788
VWidth: -24
Flags: HMW
LayerCount: 4
Back
SplineSet
507.016601562 352 m 1xff80
 457.016601562 333 l 1
 449.016601562 358 441.528320312 375.002929688 442.016601562 417 c 0
 443.016601562 503 514.016601562 556 585.016601562 556 c 0
 658.016601562 556 710.016601562 507 710.016601562 427 c 0
 710.016601562 359 623.016601562 309 623.016601562 309 c 1
 587.016601562 326 l 1
 621.068359375 347.129882812 655.901367188 377.10546875 656.016601562 417 c 0
 656.150390625 463 622.016601562 494 573.016601562 494 c 0
 524.984375 494 480.016601562 452 480.016601562 409 c 0
 480.016601562 357 507.016601562 352 507.016601562 352 c 1xff80
124.016601562 209 m 0
 123.016601562 124 208.016601562 45 393.016601562 45 c 0
 568.016601562 45 668.467773438 127.008789062 670.016601562 216 c 0
 671.791992188 318.00390625 554.016601562 348 457.016601562 333 c 1
 477.016601562 373 l 1
 622.016601562 402 745.223632812 330.994140625 741.016601562 193 c 0xff40
 736.016601562 29 569.016601562 -59 388.016601562 -59 c 0
 194.016601562 -59 43.1591796875 32.998046875 45.0166015625 180 c 0
 47.0166015625 330.426757812 202.016601562 399.4609375 321.016601562 373 c 1
 297.016601562 345 l 1
 304.016601562 365 317.389648438 386.33203125 313.016601562 415 c 0
 304.016601562 474 244.016601562 505 176.016601562 490 c 0
 209.016601562 511 l 1
 154.016601562 409 l 1
 113.016601562 411 86.6171875 436.013671875 88.0166015625 471 c 0
 90.0166015625 521 147.016601562 557 207.016601562 557 c 0
 277.016601562 557 348.909179688 516.997070312 351.016601562 439 c 0
 352.016601562 402 346.016601562 370 337.016601562 333 c 1
 213.016601562 359 124.934570312 287.000976562 124.016601562 209 c 0
648.016601562 323 m 1
 557.806640625 270.456054688 522.510742188 251.752929688 399.016601562 246 c 0
 368.159179688 244.5625 317.151367188 242.704101562 316.016601562 200 c 0
 315.3203125 173.78515625 352.4140625 147.779296875 419.016601562 148 c 0
 457.728515625 148.127929688 499.22265625 171.149414062 499.30078125 212 c 0
 499.364257812 245.018554688 470.301757812 262.201171875 458.016601562 270 c 1
 492.016601562 290 l 1
 491.661132812 268.418945312 538.73828125 261.372070312 539.875976562 195 c 0
 540.79296875 141.533203125 483.875976562 95.91015625 389.016601562 94 c 0
 284.798828125 91.9013671875 233.958007812 135.838867188 235.016601562 190 c 0
 236.385742188 259.994140625 319.200195312 277.727539062 389.016601562 281 c 0
 547.551757812 288.431640625 574.90234375 327.166015625 621.016601562 345.561523438 c 1
 648.016601562 323 l 1
EndSplineSet
Fore
SplineSet
539.887695312 193.728515625 m 0
 539.887695312 138.852539062 478.927734375 93.927734375 381.911132812 93.927734375 c 0
 283.526367188 93.927734375 231.000976562 136.1875 231.000976562 188.344726562 c 4
 231.000976562 259.924804688 318.9140625 277.713867188 389.016601562 281 c 0
 547.551757812 288.431640625 574.90234375 327.166015625 621.016601562 345.561523438 c 1
 648.016601562 323 l 1
 557.806640625 270.456054688 522.510742188 251.752929688 399.016601562 246 c 0
 368.403320312 244.57421875 286.0078125 245.661132812 286.0078125 202.274414062 c 0
 286.0078125 176.41796875 322.712890625 155.999023438 388.17578125 155.999023438 c 0
 427.424804688 155.999023438 499.26171875 170.827148438 499.30078125 212.108398438 c 0
 499.30078125 245.055664062 470.2890625 262.209960938 458.016601562 270 c 1
 492.016601562 290 l 1
 491.6640625 268.567382812 539.887695312 260.552734375 539.887695312 193.728515625 c 0
EndSplineSet
Refer: 1 3508 N 1 0 0 1 0 0 2
Layer: 2
Layer: 3
EndChar

StartChar: si_Ha
Encoding: 59 3524 57
GlifName: si_H_a
Width: 965
VWidth: -24
Flags: HMW
AnchorPoint: "si_hal" 708.005 511 basechar 0
LayerCount: 4
Back
SplineSet
309.004882812 336 m 1
 326.689453125 423.088867188 270.356445312 479.735351562 173.004882812 471 c 1
 123.004882812 389 l 1
 93.0048828125 392 69.0048828125 409 69.0048828125 446 c 0
 69.0048828125 513 141.004882812 538 194.004882812 538 c 0
 274.004882812 538 349.661132812 488.983398438 354.004882812 404 c 0
 356.571289062 353.791015625 347.004882812 331.083007812 340.004882812 309 c 1
 309.004882812 336 l 1
682.764648438 3.6123046875 m 0
 789.782226562 12.49609375 845.627929688 99.1904296875 845.627929688 236.600585938 c 0
 845.627929688 356.831054688 784.529296875 434.868164062 652.942382812 436.533203125 c 0
 571.99609375 437.557617188 433.370117188 390.266601562 446.8828125 254.823242188 c 1
 399.615234375 244.01171875 l 1
 385.662109375 427.034179688 514.456054688 542.603515625 654.684570312 542.603515625 c 0
 829.677734375 542.603515625 909.875 412.364257812 909.875 268.375 c 0
 909.875 76.21875 813.327148438 -52.93359375 639.416015625 -54.814453125 c 0
 598.541015625 -55.275390625 568.66015625 -45.9150390625 550.6875 -36.138671875 c 1
 576.45703125 29.328125 l 1
 598.021484375 13.771484375 629.108398438 -0.669921875 682.764648438 3.6123046875 c 0
101.979492188 186.841796875 m 0
 100.703125 90.6962890625 179.278320312 50.7744140625 297.004882812 46.5908203125 c 0
 362.458984375 44.2646484375 470.271484375 73.1357421875 472.004882812 155 c 0
 473.32421875 217.323242188 445.772460938 238.487304688 400.004882812 243 c 1
 443.004882812 291 l 1
 484.004882812 281.302734375 534.657226562 242.743164062 535.004882812 152 c 0
 535.456054688 37.15234375 457.599609375 -53.0048828125 292.603515625 -53.0048828125 c 0
 134.696289062 -53.0048828125 45 28.916015625 45 151.564453125 c 0
 45 318.865234375 188.293945312 380 335.004882812 372 c 0
 338.884765625 309.879882812 l 0
 213.920898438 329.879882812 103.438476562 286.419921875 101.979492188 186.841796875 c 0
EndSplineSet
Fore
SplineSet
941.875 267.375 m 0
 941.875 100.338867188 853.881835938 -55.82421875 672.806640625 -55.82421875 c 4
 623.78125 -55.82421875 589.185546875 -45.7451171875 571.6875 -36.138671875 c 5
 580.45703125 16.328125 l 5
 597.998046875 3.125 638.641601562 -7.4404296875 676.151367188 -7.4404296875 c 4
 798.291015625 -7.4404296875 882.627929688 103.114730585 882.627929688 229.600585938 c 0
 882.627929688 350.478515625 811.305664062 437.555664062 678.450195312 437.555664062 c 0
 568.854492188 437.555664062 446.18359375 378.271484375 439.8828125 187.823242188 c 1
 389.615234375 187.823242188 l 1
 395.288085938 431.571289062 538.135742188 542.653320312 683.456054688 542.653320312 c 0
 855.038085938 542.653320312 941.875 410.295898438 941.875 267.375 c 0
309.004882812 359 m 1
 311.176757812 369.696289062 312.232421875 379.828125 312.232421875 389.356445312 c 0
 312.232421875 451.520507812 267.305664062 487.989257812 194.43359375 487.989257812 c 0
 187.536132812 487.989257812 180.388671875 487.662109375 173.004882812 487 c 1
 123.004882812 405 l 1
 93.0048828125 408 69.0048828125 432 69.0048828125 469 c 0
 69.0048828125 536 141.004882812 561 194.004882812 561 c 0
 274.004882812 561 349.661132812 511.983398438 354.004882812 427 c 0
 354.295898438 421.297851562 354.431640625 415.94921875 354.431640625 410.916992188 c 0
 354.431640625 371.640625 346.209960938 351.575195312 340.004882812 332 c 1
 309.004882812 359 l 1
453.004882812 281 m 1
 474.20703125 271.208984375 529.006835938 242.201171875 529.006835938 150.96875 c 0
 529.006835938 36.61328125 454.135742188 -53.0048828125 299.603515625 -53.0048828125 c 0
 166.696289062 -53.0048828125 45 28.916015625 45 151.564453125 c 0
 45 311.586914062 176.096679688 395.521484375 315.88671875 395.521484375 c 0
 322.245117188 395.521484375 328.622070312 395.34765625 335.004882812 395 c 1
 339.004882812 332.879882812 l 1
 318.467773438 337.4453125 298.817382812 339.590820312 280.458007812 339.590820312 c 0
 177.862304688 339.590820312 110.96484375 272.453125 110.96484375 184.870117188 c 0
 110.96484375 89.314453125 211.1484375 48.578125 299.904296875 48.578125 c 0
 376.671875 48.578125 472.045898438 74.54296875 472.045898438 158.8671875 c 0
 472.045898438 214.016601562 443.6015625 246.91796875 414.438476562 246.91796875 c 1
 453.004882812 281 l 1
EndSplineSet
Layer: 2
Layer: 3
EndChar

StartChar: si_Lla
Encoding: 60 3525 58
GlifName: si_L_la
Width: 835
VWidth: -5
Flags: HMW
AnchorPoint: "si_hal" 617 547 basechar 0
LayerCount: 4
Back
SplineSet
738.662109375 316.857421875 m 1
 697 371 l 1
 693 364 l 1
 696.431733631 434.719017551 668.935216958 501.544968016 598 500 c 0
 555.47265625 499.073755058 492.913085938 463.960733757 494 371 c 1
 468 369 l 1
 469.138392857 459.626149711 427.206827885 505.035565464 366 503 c 0
 306.324825546 501.132324219 276.365431415 434.894505325 276 384 c 0
 275.148980775 262.900280752 347.349825616 167.662577397 509 154.3359375 c 0
 598.342637464 145.145712849 657.796118507 163.50197051 712 197 c 1
 726 166 l 1
 664.184156813 99.4277690918 594.870659369 78.2411829252 494 78.9765625 c 0
 344.713390571 80.076171875 217.702596962 173.544564706 214 359 c 0
 211.709705627 471.076171875 270.064272974 571.121404996 369 573 c 4
 481.043907166 575.44140625 500.450263977 440.340820312 482 408 c 1
 473 415 l 1
 474.694335938 469.4453125 513.125976562 572.453125 606 573 c 0
 681.361325802 573.443754061 738.099275991 522.587920765 743 418 c 0
 744.997070312 375.379882812 741.545898438 346.486328125 738.662109375 316.857421875 c 1
203 82 m 0
 177.310454007 -46.6130452088 248.738250716 -214.885744576 432 -236.380859375 c 0
 566.911576709 -252.204891615 648.588777731 -209.567542192 722 -151 c 1
 756 -208 l 1
 706.222222222 -243.865923717 599.870392461 -302.047099213 448 -296.19140625 c 0
 170.45118203 -285.48990852 76.0527334172 -102.753369955 87 34 c 0
 109.716497093 317.774721987 363.760556611 376.562421878 519 379 c 0
 619.391798071 380.576357434 677.188976378 371.364257811 724 365 c 1
 724 370 699.833007812 346 699 351 c 1
 741 423 l 0
 750.095703125 368.426757812 738 318 738 318 c 1
 738 316 l 1
 394.766666666 346.892578125 244.637932896 290.457609463 203 82 c 0
EndSplineSet
Fore
SplineSet
448 402 m 1
 449.703407473 456.736814633 492.3515625 558.002929688 585.9765625 558.002929688 c 0
 660.8515625 558.002929688 713.120470053 509.135611509 718 405 c 0
 718.41321813 396.181379527 718.59318262 387.950429455 718.59318262 380.179039553 c 0
 718.59318262 350.391544894 715.949207416 327.355747158 713.662109375 303.857421875 c 1
 678.501599806 309.287844894 569.771484375 337.813476562 472.118164062 337.813476562 c 4
 425.883789062 337.813476562 379.891601562 333.661132812 341 322 c 4
 225.452148438 287.354492188 142.983139831 222.444255377 142.983139831 58.8424147448 c 0
 142.983139831 -83.45109276 270.595420704 -230.386400827 470.898620194 -230.386400827 c 0
 611.043461681 -230.386400827 721.5390625 -173.116210938 766 -117 c 1
 795 -149 l 1
 750.430664062 -210.765625 626.534136666 -294.012493734 443.841696179 -294.012493734 c 0
 199.144485837 -294.012493734 36.9982749515 -164.130163915 36.9982749515 25.278657557 c 0
 36.9982749515 252.167142099 200.201882957 339.640398418 340 374 c 0
 383.617000717 382.829433455 425.931048127 386.228179948 465.455756349 386.228179948 c 0
 553.743638667 386.228179948 628.113862253 369.269828666 672 358 c 1
 668 351 l 1
 668.188299334 355.165674954 668.283482354 359.318767138 668.283482354 363.44784171 c 0
 668.283482354 433.715867795 640.717750112 497.028209471 575.400520633 497.028209471 c 0
 534.726994514 497.028209471 478.009302451 459.012704686 479 358 c 1
 433 356 l 1
 434.11614863 451.48630579 393.834053013 500.057888524 334.565985044 500.057888524 c 0
 262.675162595 500.057888524 227.99173833 426.329312021 227.99173833 368.861883122 c 0
 227.99173833 247.12456795 347.721270315 141.333771923 486.932416864 141.333771923 c 0
 584.321126645 141.333771923 633.332104381 148.607150954 687 174 c 1
 701 143 l 1
 640.211830069 77.5345161293 572.173226994 55.9581703366 474.004795044 55.9581703366 c 0
 313.317221051 55.9581703366 175.931638205 154.038494475 175.931638205 352.3553697 c 0
 175.931638205 462.579005088 237.547773433 560.032671672 342.116567681 560.032671672 c 0
 431.996011243 560.032671672 463.378458157 477.724898012 463.378458157 427.010048124 c 0
 463.378458157 413.262012111 461.072253545 401.835648042 457 395 c 1
 448 402 l 1
EndSplineSet
Layer: 2
Layer: 3
EndChar

StartChar: si_Fa
Encoding: 61 3526 59
GlifName: si_F_a
Width: 855
VWidth: -24
Flags: HMW
LayerCount: 4
Back
SplineSet
374 -13 m 1
 344.881835938 -25.3193359375 309.634765625 -34.6181640625 259 -33.93359375 c 0
 118.943359375 -32.0400390625 45 85.7529296875 45 228 c 0
 45 384 133 520 269 522 c 0
 393.986328125 523.837890625 442 437 444 362 c 1
 446 365 411 359 413 362 c 1
 420 443 493.002929688 521.33203125 594 522 c 0
 745.000976562 522.999023438 807.434570312 373.00390625 808 254 c 0
 808.831054688 78.9990234375 719.955078125 -30.02734375 603 -33 c 0
 566.997070312 -33.9150390625 521 -27 497 -17 c 1
 516 45 l 1
 542 23 581 17 615 20 c 0
 675.065429688 25.2998046875 738.599609375 89.994140625 737 224 c 0
 735.805664062 323.990234375 689.046875 407.399414062 591 409 c 0
 521.0390625 410.141601562 461 357 459 273 c 1
 403 273 l 1
 403 370 332.948242188 416.880859375 263 414 c 0
 152.022460938 409.428710938 117.696289062 303.002929688 115 219 c 0
 111.829101562 120.224609375 153.603515625 20.6630859375 270 20 c 0
 296.412109375 19.849609375 322.651367188 22.8125 355 45 c 1
 374 -13 l 1
EndSplineSet
Fore
SplineSet
114.833984375 208.666992188 m 0
 114.833984375 112.650390625 158.094726562 19.9951171875 271.806640625 19.9951171875 c 0
 297.612304688 19.9951171875 323.388671875 23.318359375 355 45 c 1
 374 -13 l 1
 345.892578125 -24.8916015625 312.07421875 -33.96875 264.216796875 -33.96875 c 0
 120.118164062 -33.96875 45 83.6826171875 45 228 c 0
 45 385.194335938 133.673828125 522.028320312 272.883789062 522.028320312 c 0
 394.982421875 522.028320312 442.020507812 436.217773438 444 362 c 1
 444.422851562 362.633789062 443.193359375 362.866210938 441.008789062 362.866210938 c 0
 435.04296875 362.866210938 421.95703125 361.133789062 415.991210938 361.133789062 c 0
 413.806640625 361.133789062 412.577148438 361.366210938 413 362 c 0
 420.032226562 443.374023438 493.513671875 522.004882812 595.499023438 522.004882812 c 0
 746.216796875 522.004882812 808.005859375 371.612304688 808.005859375 251.568359375 c 0
 808.005859375 75.7548828125 718.505859375 -33.0810546875 596.473632812 -33.0810546875 c 0
 561.600585938 -33.0810546875 519.572265625 -26.4052734375 497 -17 c 1
 516 45 l 1
 537.916015625 26.4560546875 569.069335938 19.279296875 598.678710938 19.279296875 c 0
 604.1953125 19.279296875 609.659179688 19.5283203125 615 20 c 0
 674.323242188 25.234375 737.029296875 88.404296875 737.029296875 219.0625 c 0
 737.029296875 322.126953125 690.2109375 409.017578125 588.790039062 409.017578125 c 0
 519.780273438 409.017578125 460.978515625 356.114257812 459 273 c 1
 403 273 l 1
 403 367.192382812 336.9453125 414.125 269.072265625 414.125 c 0
 150.444335938 414.125 114.833984375 299.47265625 114.833984375 208.666992188 c 0
EndSplineSet
Layer: 2
Layer: 3
EndChar

StartChar: si_Halant
Encoding: 62 3530 60
GlifName: si_H_alant
Width: 1
VWidth: -36
Flags: HMW
AnchorPoint: "si_hal" -12 453 mark 0
LayerCount: 4
Back
SplineSet
28 866 m 1
 28 820.333007812 28 774.666992188 28 729 c 1
 44 708 62.9814453125 706.276367188 76 707 c 0
 94 708 109 727 106 767 c 0
 103 806 75 850 28 866 c 1
6 685 m 1
 5.828125 683.069335938 25.6865234375 688.06640625 25.572265625 686 c 1
 23.0244140625 639.911132812 34.3857421875 532.184570312 43 514 c 1
 -16 514 l 1
 -23 565 -21 670 -21 737 c 1
 -22 920 l 1
 54 911 169 868 165 743 c 0
 163 689 125.046875 657 82 657 c 0
 41 657 15 679 6 685 c 1
EndSplineSet
Fore
SplineSet
-21 454 m 1
 -21 870 l 1
 11.6123698623 850.786553382 49.0669786427 846.845853734 83 840.342773438 c 0
 139.907276408 829.436801228 185.091796875 791.301757812 185.091796875 717.806640625 c 0
 185.091796875 653.547851562 132.16796875 621 86 617 c 0
 45.1533203125 613.4609375 15 627.428710938 6 635 c 1
 25.572265625 646 l 1
 25.4524422444 640.996586981 23 635.342773438 23 629.192382812 c 0
 23 454 l 1
 -21 454 l 1
28 685 m 5
 42.2744140625 666.264648438 55.9228515625 663.872070312 68.591796875 663.872070312 c 0
 88.587890625 663.872070312 113.72265625 681.784179688 113.72265625 715.431640625 c 0
 113.72265625 748.181640625 99.5118844369 775.996426225 71.634765625 787.211914062 c 4
 49.55696669 796.094226726 32.8187955819 796.824908122 28 796 c 1
 28 685 l 5
EndSplineSet
Layer: 2
Layer: 3
EndChar

StartChar: si_MatraAa
Encoding: 63 3535 61
GlifName: si_M_atraA_a
Width: 377
VWidth: -11
Flags: HMW
LayerCount: 4
Back
SplineSet
11 440 m 1
 37 419 l 1
 54.2334365325 430.538461539 88.4733541392 450.502923457 135 444 c 0
 213.00859375 431.585557969 248.154606463 350.39868523 245 231 c 0
 241.972988697 124.423500756 200.964795067 26.691021564 124 17 c 0
 84.2011769494 12.6207021954 42.9523809524 26.9599723948 32 33 c 1
 10 7 l 1
 22.796875 -10.5 68.8708171443 -35.9261539118 127 -33 c 0
 264.933880797 -26.0565725332 331.788192012 122.321918812 335 234 c 0
 339.06942699 378.272912215 271.327595942 493.894728402 145 499 c 0
 94.0841540466 501.080954113 39.7236584411 474.416666667 11 440 c 1
EndSplineSet
Fore
SplineSet
135.141188187 -33.162554757 m 0
 67.6940959142 -33.162554757 25.9501434277 -4.5299015558 11 13 c 1
 34 43 l 1
 55.023614498 30.1751828249 84.9309051505 18.8905509065 119.349491307 18.8905509065 c 0
 127.657318205 18.8905509065 136.22798428 19.5480213332 145 21 c 0
 212.494523099 34.0853393689 248.172851562 135.81640625 248.172851562 244.821289062 c 4
 248.172851562 363.245117188 202.545002468 445.17310084 117.367793021 445.17310084 c 0
 79.7715962059 445.17310084 51.9789096022 429.028967352 37 419 c 1
 17 449 l 1
 44.4193728238 473.150678889 96.2601347466 499.000033993 144.903398517 499.000033993 c 0
 289.287259784 498.949226767 347.228388912 386.616411234 347.228388912 249.094881844 c 0
 347.228388912 126.294563283 290.116325631 -33.162554757 135.141188187 -33.162554757 c 0
EndSplineSet
Layer: 2
Layer: 3
EndChar

StartChar: si_MatraAe
Encoding: 64 3536 62
GlifName: si_M_atraA_e
Width: 355
VWidth: -11
Flags: HMW
LayerCount: 4
Back
SplineSet
150 96 m 0x40
 134.754354647 7.52286056713 143.063476562 -89.5732421875 245 -97 c 0
 308.692382812 -101.640625 340 -71.2119140625 363 -51 c 1
 384 -73 l 1
 369.114257812 -116.75 296.828125 -174.841796875 216 -173 c 0
 79.068359375 -169.87890625 50.5498046875 -73.234375 65 40 c 0
 80.9677734375 174.33060949 177.349609375 293.039478975 215.163085938 332 c 1x40
 168.428486668 329.587890625 78.0733322503 326.22265625 20 323.856445312 c 1
 21 388.116210938 l 5x80
 43.9092013889 388.107421875 232.430533854 387.998046875 266 388 c 5
 266 323 l 1
 216.875976562 285.021022041 164.067382812 177.639167233 150 96 c 0x40
EndSplineSet
Fore
SplineSet
62.1494140625 7.0751953125 m 0
 62.1494140625 160.453125 181.546875 289.090820312 224.163085938 333 c 1
 26 333 l 1
 26 388.116210938 l 1
 48.7065371274 388.107499627 229.108019292 387.999974156 265.072934679 387.999974156 c 2
 266 388 l 1
 266 323 l 1
 216.875976562 285.021022041 164.067382812 185.639648438 150 104 c 4
 146.359375 82.87109375 144.061523438 61.251953125 144.061523438 40.478515625 c 4
 144.061523438 -33.013671875 172.801757812 -89.666015625 262.700195312 -89.666015625 c 4
 314.708007812 -89.666015625 352.23828125 -66.244140625 373 -48 c 5
 394 -73 l 1
 376.345202084 -106.071242315 319.057617188 -163.04296875 230.213867188 -163.04296875 c 0
 108.2265625 -163.04296875 62.1494140625 -87.4931640625 62.1494140625 7.0751953125 c 0
EndSplineSet
Layer: 2
Layer: 3
EndChar

StartChar: si_MatraAae
Encoding: 65 3537 63
GlifName: si_M_atraA_ae
Width: 417
VWidth: -11
Flags: HMW
LayerCount: 4
Back
SplineSet
75 412 m 1xc0
 309 412 l 1xc0
 309 358 l 1
 216 324.43359375 l 5
 127 303 l 1
 65 309 l 1
 189 355.081054688 l 1
 273 372 l 1xa0
 243 364 l 1
 75 364 l 1
 75 412 l 1xc0
206 88 m 0
 187.103515625 4.6083984375 191.1640625 -90.5087890625 289 -97 c 0
 352.720703125 -101.227539062 384 -71.2119140625 407 -51 c 1
 428 -73 l 1
 413.114257812 -116.75 340.828125 -174.842773438 260 -173 c 0
 123.068359375 -169.87890625 89.22265625 -72.42578125 109 40 c 0
 128.04296875 148.252929688 227.811523438 232.37890625 279.163085938 262 c 1
 227.614257812 261.661132812 129.0546875 261.188476562 65 260.856445312 c 1
 65 309.116210938 l 1
 87.9091796875 309.107421875 285.431640625 308.998046875 319 309 c 1
 319 253 l 1
 273.961914062 225.39453125 221.813476562 157.787109375 206 88 c 0
EndSplineSet
Fore
SplineSet
35 441 m 1
 259 461 l 1
 259 398 l 5
 137 323 l 5
 75 329 l 1
 193.547851562 407.981445312 l 1
 35 392 l 1
 35 441 l 1
318.061527299 253 m 1
 256.449842498 215.235974198 197.076883508 123.648388134 197.076883508 15.9987501933 c 0
 197.076883508 -46.6909419427 222.835701417 -97.4024688414 300.912793831 -97.4024688414 c 0
 356.714843472 -97.4024688414 385.481089337 -69.910364045 407 -51 c 1
 428 -73 l 1
 413.345318149 -116.070901194 343.058382988 -173.04276711 263.757548068 -173.04276711 c 0
 147.856899749 -173.04276711 103.805521298 -103.29421689 103.805521298 -15.9436622303 c 0
 103.805521298 2.00250262863 105.619361708 20.782510237 109 40 c 0
 128.04296875 148.252929688 227.811523438 232.37890625 279.163085938 262 c 1
 227.614257812 261.661132812 139.0546875 281.188476562 75 280.856445312 c 1
 75 329.116210938 l 1
 97.7060546875 329.107421875 281.245992386 308.999974156 318.061527299 308.999974156 c 1
 318.061527299 253 l 1
EndSplineSet
Layer: 2
Layer: 3
EndChar

StartChar: si_MatraIi
Encoding: 67 3539 65
GlifName: si_M_atraI_i
Width: 0
VWidth: -28
Flags: HMW
AnchorPoint: "si_MaI" 0 559 mark 0
LayerCount: 4
Back
SplineSet
-185 531 m 21
 -248 551 -291.833007812 588.24609375 -286 655 c 4
 -277 758 -139 802 2 800 c 4
 106 799 249.903320312 764.702148438 266 659 c 4
 275.955078125 593.627929688 231 543 196 529 c 13
 177 554 l 21
 200 574 214.749023438 594.73046875 205 635 c 4
 190.84375 693.477539062 68 701.96875 0 703 c 4
 -94.994140625 704.44140625 -214 706 -223 641 c 4
 -230.40625 587.510742188 -191 576 -168 566 c 13
 -185 531 l 21
EndSplineSet
Fore
SplineSet
-43.5585546846 703.431554736 m 0
 -133.453426685 703.431554736 -223.912920686 697.873775667 -223.912920686 628.405888564 c 0
 -223.912920686 585.590937463 -189.071374215 575.16146705 -168 566 c 13
 -185 531 l 21
 -244.231271263 549.803578179 -286.52014082 583.85160605 -286.52014082 643.334287269 c 0
 -286.52014082 755.583575965 -147.550292268 800.065084445 -7.16206684126 800.065084445 c 0
 101.215066413 800.065084445 249.471709864 767.536406964 266 659 c 4
 266.956722904 652.717482056 267.406296688 646.571140704 267.406296688 640.580400317 c 0
 267.406296688 584.235130642 227.636359733 541.654543893 196 529 c 13
 177 554 l 21
 195.073672268 569.716236755 208.052364494 585.883538142 208.052364494 611.628567418 c 0
 208.052364494 618.64587136 207.088125414 626.374743107 205 635 c 4
 190.84375 693.477539062 68 701.96875 0 703 c 4
 -14.1350478985 703.214480033 -28.8017437921 703.431554736 -43.5585546846 703.431554736 c 0
EndSplineSet
Layer: 2
Layer: 3
EndChar

StartChar: si_MatraU
Encoding: 68 3540 66
GlifName: si_M_atraU_
Width: 0
VWidth: 0
Flags: HMW
AnchorPoint: "si_MaU" 32 169.28 mark 0
LayerCount: 4
Back
SplineSet
-388 -115 m 17
 -361.227539062 -160 l 1
 -361.23046875 -152.99609375 -427.812711241 -191.887525396 -427.809570312 -226 c 0
 -427.80528394 -272.552734178 -403.698875123 -285.247071992 -352 -285.247070312 c 1
 -35 -287 l 9
 -35 169 l 25
 22 169 l 25
 28 -367 l 17
 28 -367 -247.995117188 -369.6796875 -424 -370.586914062 c 0
 -504 -371 -545.244140625 -321.6015625 -546 -271 c 0
 -547.62890625 -161.938476562 -388 -115 -388 -115 c 17
EndSplineSet
Fore
SplineSet
38 -367 m 17
 38 -367 -311.313850792 -370.589486823 -486.995171802 -370.589486823 c 0
 -566.830038229 -370.589486823 -608.012382154 -321.070771019 -608.012382154 -269.343924644 c 0
 -608.012382154 -161.463141736 -450 -115 -450 -115 c 1
 -423.227539062 -160 l 2
 -423.22777291 -159.440947505 -423.652198746 -159.174306687 -424.433095497 -159.174306687 c 0
 -433.435192937 -159.174306687 -489.809570409 -194.608848438 -489.809570409 -225.99774857 c 0
 -489.807571295 -272.55224766 -465.699244694 -285.247070312 -414 -285.247070312 c 2
 -18 -287 l 9
 -18 169 l 25
 32 169 l 25
 38 -367 l 17
EndSplineSet
Layer: 2
Layer: 3
EndChar

StartChar: si_MatraUu
Encoding: 69 3542 67
GlifName: si_M_atraU_u
Width: 0
VWidth: 0
Flags: HMW
AnchorPoint: "si_MaU" 22 169.28 mark 0
LayerCount: 4
Back
SplineSet
-448 -165 m 25
 -436 -251 l 25
 88 -247 l 25
 82 129 l 25
 -5 129 l 25
 -5 -167 l 25
 -448 -165 l 25
EndSplineSet
Fore
SplineSet
-200.450620247 -309.737940586 m 0
 -294.555154358 -309.737940586 -346.950620606 -380.587968423 -440.555322436 -380.587968423 c 0
 -510.278655613 -380.587968423 -546.015507134 -330.951773433 -546.015507134 -279.115612078 c 0
 -546.015507134 -187.058157614 -435 -125 -435 -125 c 1
 -401.972540152 -159.292062531 l 1
 -409.827868014 -159.292062531 -454.429327179 -200.762900111 -454.429327179 -239.894819329 c 0
 -454.429327179 -274.31235992 -430.945679331 -297.435711788 -395.599599962 -297.435711788 c 0
 -331.013708113 -297.435711788 -279.017840354 -235.845724575 -194.973727509 -235.845724575 c 0
 -117.583714754 -235.845724575 -65.2160437128 -270.188315595 -25 -297 c 1
 -25 169 l 25
 22 169 l 25
 28 -377 l 1
 -34 -376 l 1
 -86.3606063148 -340.617832929 -146.16490311 -309.737940586 -200.450620247 -309.737940586 c 0
EndSplineSet
Layer: 2
Layer: 3
EndChar

StartChar: si_MatraR
Encoding: 70 3544 68
GlifName: si_M_atraR_
Width: 397
VWidth: -11
Flags: HMW
LayerCount: 4
Back
SplineSet
17 449 m 1
 37 419 l 1
 54.2334365325 430.538461539 88.4282279166 450.171453115 135 444 c 0
 206.044410511 434.585557969 240.953858779 350.39868523 238 231 c 0
 235.673454122 126.415584854 209.685365321 33.540720618 145 21 c 0
 99.8863052159 13.532603167 60.0982142857 27.0795774275 34 43 c 1
 11 13 l 1
 26.5941190945 -5.285 71.3400420364 -35.6498516338 144 -33 c 0
 286.939560226 -27.7871064363 343.865398935 122.321918812 347 234 c 0
 351.326443431 378.272912215 294.556180949 498.894728402 145 499 c 0
 96.3287827409 499.034259345 44.4375244811 473.166666667 17 449 c 1
EndSplineSet
Fore
SplineSet
6.990234375 98.1953125 m 0
 6.990234375 7.0029296875 85.271484375 -20.00390625 155.526367188 -20.00390625 c 0
 324.754882812 -20.00390625 367.228515625 134.006835938 367.228515625 249.094726562 c 0
 367.228515625 386.616210938 289.287109375 508.94921875 144.903320312 509 c 0
 96.259765625 509 44.4189453125 483.150390625 17 459 c 1
 37 429 l 1
 51.978515625 439.029296875 79.771484375 455.172851562 117.368164062 455.172851562 c 0
 215.0234375 455.172851562 278.010742188 358.625 278.010742188 234.693359375 c 0
 278.010742188 126.1875 241.515625 32.78125 167.525390625 32.78125 c 0
 126.744140625 32.78125 80.9853515625 54.1279296875 80.9853515625 110.7890625 c 0
 80.9853515625 189.631835938 139.422851562 214.865234375 203.223632812 214.865234375 c 0
 241.614257812 214.865234375 277.491210938 203.213867188 308 180 c 1
 298 241 l 1
 274.94921875 251.056640625 239.374023438 255.764648438 206.254882812 255.764648438 c 0
 104.6171875 255.764648438 6.990234375 209.336914062 6.990234375 98.1953125 c 0
EndSplineSet
Layer: 2
Layer: 3
EndChar

StartChar: si_MatraE
Encoding: 71 3545 69
GlifName: si_M_atraE_
Width: 587
VWidth: -10
Flags: HMW
LayerCount: 4
Back
SplineSet
313 157 m 4
 255.081054688 160.048828125 225 204 225 247 c 4
 225 321 295.996232903 364.285672889 366 365 c 0
 457.000756775 365.928582995 551.537146707 304.978720126 546 172 c 0
 541.655737705 72 461.286885246 -44 281 -44 c 0
 106.011363636 -44 5.04488585503 78.4458592855 20 244 c 0
 36.1881188119 424.993150685 166.769115485 546 347 546 c 0
 469.480446927 546 536 489 536 489 c 0
 497 427 l 1
 495 427 444.751953125 479.645507812 338 487 c 0
 209.078125 495.052734375 87.5294756928 413.662785823 78 284 c 0
 66.9070806138 133.064221695 179.333007812 55.640625 275 48 c 0
 379.729492188 39.6357421875 470.897630752 65.0259085152 487 174 c 0
 499.953781854 266.2671434 431.995346331 330.335991006 363 329 c 0
 306.949367089 328 281 297 281 263 c 0
 281 239 302.145114339 216.832389055 335 216 c 0
 371.235294118 215.2 391 236 391 256 c 0
 391 323.307692308 343.52173913 331 335 331 c 1
 362 337 394.527617292 334.682723095 396 333 c 0
 405 322.714285714 429 306.714285714 429 253 c 0
 429 208 389 153 313 157 c 4
EndSplineSet
Fore
SplineSet
327.758789062 156.793945312 m 0
 264.991210938 156.793945312 231 201.576171875 231 247 c 0
 231 321.55859375 296.813523291 365.010446848 368.047706995 365.010446848 c 0
 455.856901418 365.010446848 546.232023363 307.385191112 546.232023363 183.029405567 c 0
 546.232023363 74.0866726439 471.833007812 -44 288 -44 c 0
 124.43359375 -44 18.5415265443 62.9821954564 18.5415265443 212.153295011 c 0
 18.5415265443 424.36063196 174.911132812 548 344 548 c 0
 466.48046875 548 513 511 513 511 c 1
 494 457 l 1
 494 457 443.483398438 497.520507812 337.4609375 497.520507812 c 0
 208.6875 497.520507812 86.2392578125 402.588867188 86.2392578125 259.588867188 c 4
 86.2392578125 117.71484375 177.493164062 49.529296875 303.27734375 49.529296875 c 0
 396.598632812 49.529296875 488.599003795 83.9318816691 488.599003795 196.498535276 c 0
 488.599003795 275.615106932 427.621192576 329.020507013 365.119763532 329.020507013 c 0
 307.983614888 329.020507013 281 297.398716246 281 263 c 0
 281 238.485879412 302.996503031 215.977633434 337.015482144 215.977633434 c 0
 371.96757624 215.977633434 391 246.374023438 391 266 c 0
 391 333.307617188 353.521484375 331 345 331 c 1
 358.224609375 333.938476562 362.775115652 334.882239864 374.353207884 334.882239864 c 0
 386.41367153 334.882239864 395.24878583 333.85853048 396 333 c 0
 405 322.714285714 429 306.714285714 429 253 c 0
 429 209.556922118 398.719726562 156.793945312 327.758789062 156.793945312 c 0
EndSplineSet
Layer: 2
Layer: 3
EndChar

StartChar: si_MatraLs
Encoding: 77 3551 75
GlifName: si_M_atraL_s
Width: 580
VWidth: -11
Flags: HMW
LayerCount: 4
Back
Refer: 61 3535 N 1 0 0 1 77 0 2
Fore
SplineSet
34.9552106379 356.080449514 m 0
 34.9552106379 238.784320563 94.9873046875 163.451171875 219.879882812 163.451171875 c 0
 287.315429688 163.451171875 357.000976562 205.981445312 357.000976562 288.327148438 c 0
 357.000976562 338.720703125 327.490234375 380.057617188 260.767578125 380.057617188 c 0
 243.459960938 380.057617188 225 376 225 376 c 1
 225 350 l 1
 273.21484375 350 287.42578125 309.814453125 287.42578125 275.087890625 c 0
 287.42578125 244.151367188 266.667055559 210.648653333 217.501234969 210.648653333 c 0
 149.081380157 210.648653333 83.5947265625 259.80078125 83.5947265625 367.783203125 c 4
 83.5947265625 420.0078125 102.131835938 478.837890625 132 530 c 5
 84 530 l 1
 57.4111244515 488.323253766 34.9552106379 421.269103821 34.9552106379 356.080449514 c 0
565.012872122 257.288467395 m 0
 565.012872122 505.21642948 437.628831325 543.154998543 363.794764483 543.154998543 c 0
 255.623702414 543.154998543 200.000976562 463.424804688 200.000976562 371.598632812 c 0
 200.000976562 364.063476562 200.375 356.514648438 201.125976562 349 c 1
 241 349 l 1
 239.495117188 356.73828125 238.73828125 365.966796875 238.73828125 374.397460938 c 0
 238.73828125 426.40234375 278.536132812 486.1171875 338.143554688 486.1171875 c 0
 446.340820312 486.1171875 473.247070312 365.747070312 473.247070312 267.822265625 c 0
 473.247070312 142.2421875 457.16796875 -7.001953125 329.700195312 -7.001953125 c 0
 266.547851562 -7.001953125 207.395860355 10.1929612036 179 63 c 1
 147 47 l 1
 166.005859375 -26.8955078125 251.458007812 -63.0830078125 323.103515625 -63.0830078125 c 0
 507.829101562 -63.0830078125 565.012872122 82.484952332 565.012872122 257.288467395 c 0
EndSplineSet
Layer: 2
Layer: 3
EndChar

StartChar: si_VI
Encoding: 365 -1 78
GlifName: si_V_I_
Width: 780
VWidth: -14
Flags: HMW
LayerCount: 4
Back
SplineSet
376 274 m 1
 230 290 125 245 129 158 c 0
 131.939453125 94.0595703125 204.999023438 55.1953125 345 56 c 0
 519 57 618 173 618 326 c 0
 680 321 l 0
 680 107 571.001953125 -56.423828125 335 -58 c 0
 179 -59.0419921875 49.349609375 8.0439453125 46 137 c 0
 42 291 219 325 341 318 c 1
 351 378 304 428 212 428 c 1
 186 347 l 1
 135 340 100 369 109 415 c 0
 119 471 177 490 224 490 c 0
 300 490 380 453 384 349 c 0
 385.383789062 313.026367188 376 274 376 274 c 1
EndSplineSet
Refer: 560 -1 S 1 0 0 1 0 0 2
Fore
SplineSet
45.9471173255 141.548867888 m 0
 45.9471173255 288.309633633 212.710887114 332.828404851 327.508573973 332.828404851 c 0
 336.710496144 332.828404851 345.578522621 332.542360085 354 332 c 1
 354 402 304 438 212 438 c 1
 186 357 l 1
 180.88932074 356.298534219 175.946951567 355.957145919 171.19877215 355.957145919 c 0
 133.30306767 355.957145919 107.776860342 377.702894463 107.776860342 411.693183497 c 0
 107.776860342 477.803046315 175.069866687 500 224 500 c 0
 302.043059296 500 394.139273993 460.937271348 394.139273993 351.559540423 c 0
 394.139273993 317.850536642 386 284 386 284 c 1
 367.861034003 286.326527509 349.873647198 287.464888377 332.333209055 287.464888377 c 0
 221.124653591 287.464888377 127.882171403 241.705998254 127.882171403 162.881472501 c 0
 127.882171403 83.1849199728 219.807150758 39.9862021039 370.381676212 39.9862021039 c 0
 563.59897039 39.9862021039 671 164.721306141 671 336 c 1
 734 336 l 1
 734 108.229280506 597.173836085 -58.4924006492 359.680900975 -58.4924006492 c 0
 183.021379548 -58.4924006492 45.9471173255 14.1991613668 45.9471173255 141.548867888 c 0
EndSplineSet
Refer: 560 -1 N 1 0 0 1 52 0 2
Layer: 2
Layer: 3
Ligature2: "si_abvs_1 subtable" si_Va si_MatraI
LCarets2: 1 0
Ligature2: "'abvs' Above Base Substitutions in Sinhala lookup 0-1" si_Va si_MatraI
EndChar

StartChar: si_MatraU.alt
Encoding: 85 -1 81
GlifName: si_M_atraU_.alt
Width: 0
VWidth: 0
Flags: HMW
AnchorPoint: "si_MaU" 24 209.28 mark 0
LayerCount: 4
Back
SplineSet
-388 -115 m 17
 -361.227539062 -160 l 1
 -361.23046875 -152.99609375 -427.812711241 -191.887525396 -427.809570312 -226 c 0
 -427.80528394 -272.552734178 -403.698875123 -285.247071992 -352 -285.247070312 c 1
 -35 -287 l 9
 -35 169 l 25
 22 169 l 25
 28 -367 l 17
 28 -367 -247.995117188 -369.6796875 -424 -370.586914062 c 0
 -504 -371 -545.244140625 -321.6015625 -546 -271 c 0
 -547.62890625 -161.938476562 -388 -115 -388 -115 c 17
EndSplineSet
Fore
SplineSet
-480.240575888 -232.513107884 m 0
 -480.240575888 -280.219125748 -448.519122194 -312.040297276 -376.483423815 -312.040297276 c 0
 -375.005933396 -312.040297276 -373.511483505 -312.026910686 -372 -312 c 6
 -35 -306 l 13
 -43 209 l 29
 24 209 l 29
 28 -389 l 21
 -436 -389 l 6
 -436.361658776 -389.001493962 -436.722418245 -389.002239442 -437.082280218 -389.002239442 c 0
 -537.299118548 -389.002239442 -568.020158939 -331.930145588 -568.020158939 -279.305437844 c 0
 -568.020158939 -172.132059225 -472 -124 -472 -124 c 5
 -435.227539062 -149 l 5
 -457.485085305 -161.051077155 -480.240575888 -192.789009341 -480.240575888 -232.513107884 c 0
EndSplineSet
Layer: 2
Layer: 3
EndChar

StartChar: si_MatraUu.alt
Encoding: 86 -1 82
GlifName: si_M_atraU_u.alt
Width: 0
VWidth: 0
Flags: HMW
AnchorPoint: "si_MaU" 24 209.28 mark 0
LayerCount: 4
Back
Fore
SplineSet
-441 -364 m 0
 -543.215534041 -364 -575.176314815 -307.267845158 -575.176314815 -251.10298387 c 0
 -575.176314815 -174.141428983 -509.23952756 -113.313135048 -451 -106 c 1
 -424.227539062 -151 l 1
 -470.474752224 -164.842782083 -489.817044141 -197.046406625 -489.817044141 -221.180848244 c 0
 -489.817044141 -261.083522722 -459.850479818 -279.051222598 -413.368947774 -279.051222598 c 0
 -329.763860961 -279.051222598 -265.299207874 -225.517458827 -181.484263253 -225.517458827 c 0
 -126.433925604 -225.517458827 -80.7949565834 -241.931489329 -41 -268 c 9
 -43 209 l 25
 24 209 l 25
 22 -369 l 17
 -46.4215557328 -338.091951717 -92.5199097255 -298.838025668 -191.813728751 -298.838025668 c 0
 -195.46913547 -298.838025668 -199.1966366 -298.891225478 -203 -299 c 0
 -267.509765625 -300.844726562 -346 -364 -441 -364 c 0
EndSplineSet
Layer: 2
Layer: 3
EndChar

StartChar: si_Rakar.alt
Encoding: 88 -1 84
GlifName: si_R_akar
Width: 776
VWidth: -24
Flags: HMW
LayerCount: 4
Back
SplineSet
710 217 m 13
 736 210 l 29
 736 210 737.791460669 163.739318268 733 103 c 4
 717.53805264 -88.9552825327 623.783678929 -308.121598998 361 -309 c 4
 140.07699775 -309.663443429 32.9088980374 -199.176818848 27 -179 c 13
 64 -158 l 29
 64 -158 152.41243175 -207.191959404 362 -203 c 4
 650.485866987 -194.912482782 700.90024363 43.6137537122 710 217 c 13
EndSplineSet
Fore
SplineSet
704 217 m 13
 736 210 l 17
 736 210 736.32792633 201.531996286 736.32792633 187.085048814 c 0
 736.32792633 167.765065463 735.741467409 137.752421647 733 103 c 0
 718.535597631 -98.2735001313 667.69081842 -310.351505001 385 -329 c 0
 375.77324225 -329.561589656 366.706177475 -329.833064233 357.801358189 -329.833064233 c 0
 176.005167315 -329.833064233 61.8315924404 -216.684641739 37 -149 c 9
 74 -128 l 17
 115.858841934 -169.165646095 200.937452327 -228.39156334 343.065274119 -228.39156334 c 0
 364.704775693 -228.39156334 387.66674764 -227.018634267 412 -224 c 0
 652.44973156 -194.375585164 696.364572242 34.9444413978 704 217 c 13
EndSplineSet
Layer: 2
Layer: 3
EndChar

StartChar: si_KU
Encoding: 92 -1 88
GlifName: si_K_U_
Width: 1085
VWidth: -24
Flags: HMW
LayerCount: 4
Back
SplineSet
796 9 m 0xbe
 905.836914062 22.0703125 941.120117188 174.231445312 915 279 c 0
 885.174804688 398.631835938 760.228515625 466.868164062 625 462 c 0
 525.9140625 458.697265625 448.959960938 431.771484375 355 374 c 1
 338 362 349 367 335 355 c 1
 238 276 156 211 56 79 c 1
 56 79 21.126953125 98.5439453125 27 107 c 0
 127 251 217 322 315 413 c 1
 322 419 331 420 338 425 c 1
 435.860351562 505 556.172851562 555.573242188 672 561 c 0
 861.928710938 570.465820312 1001 450 1015 282 c 0
 1028.55566406 112.560546875 927.639648438 -33 775 -33 c 0
 796 9 l 0xbe
288 377 m 1
 300 400 304 421 303 439 c 0
 301 481 264.760742188 505.678710938 215 501 c 0
 180.934570312 497.796875 145 470 151 426 c 1
 191 371 l 1
 177 347 154.001953125 335.022460938 132 336 c 0
 87 338 67 369 67 415 c 0
 67 495 133.983398438 563.181640625 231 559 c 0
 313.926757812 555.42578125 363 480 336 416 c 0
 321 380 336 404 323 387 c 1
 288 377 l 1
107 165 m 1
 115 169 124 172 131 172 c 0
 179 173 188 72 271 72 c 0
 320 72 370 101 371 197 c 1
 406 197 l 0
 407 94 466.997070312 71.1669921875 527 72 c 0
 587.002929688 72.8330078125 638 118 638 194 c 0
 638 273 566 340 452 345 c 0
 390.059570312 347.716796875 314 329 281 311 c 1
 335 364 l 1
 348 368 381.99609375 390.330078125 459 391 c 0
 574 392 696 332 696 182 c 0
 696 48 620.995117188 -34.9423828125 516 -36 c 0
 430.693359375 -36.859375 397.721679688 8.326171875 379 49 c 1
 397 49 l 1
 379.737304688 7.81640625 336.954101562 -36 272 -36 c 0xde
 113.997070312 -36 160 169 95 130 c 0
 107 165 l 1
EndSplineSet
Refer: 575 -1 S 1 0 0 1 795 1 2
Fore
SplineSet
26.3335078618 104.843455669 m 0
 26.3335078618 105.619619237 26.5438631104 106.34325086 27 107 c 0
 127 251 216.771757017 322.255813626 315 413 c 0
 321.771757017 419.255813626 331.318255181 419.583764967 338 425 c 0
 436.178606743 504.583764967 556.172851562 555.573242188 672 561 c 0
 679.000180971 561.348880666 685.931275691 561.521258282 692.789568454 561.521258282 c 0
 880.432906895 561.521258282 1016.21729266 434.886161691 1016.21729266 251.683875962 c 0
 1016.21729266 95.561739781 918.450276035 -33 775 -33 c 1
 796 9 l 1
 882.984501944 19.350933771 923.210954807 116.935827076 923.210954807 209.131251835 c 0
 923.210954807 233.352668235 920.43449065 257.20209891 915 279 c 0
 886.172820874 394.628693382 768.483958377 462.243942407 638.537406247 462.243942407 c 0
 530.214074164 462.243942407 451.845388993 434.854960824 355 374 c 0
 337.385663093 362.931638423 349.259108476 366.689899742 335 355 c 0
 238.259108476 275.689899742 156 211 56 79 c 1
 56 79 26.3335078618 95.6260293241 26.3335078618 104.843455669 c 0
67 415 m 0
 67 492.659893112 130.122004356 559.182720185 222.564422044 559.182720185 c 0
 295.098757691 559.182720185 343.442474614 508.453627101 343.442474614 452.594013384 c 0
 343.442474614 440.35979067 341.053948377 427.979729485 336 416 c 0
 329.657903166 400.778967598 328.678765299 396.283853131 328.678765299 394.880761233 c 0
 328.678765299 392.965332614 330.503516077 396.812290255 323 387 c 1
 288 377 l 1
 298.833989511 397.765146564 303.147127427 416.900080228 303.147127427 433.668896433 c 0
 303.147127427 476.252082181 272.428790024 501.565481201 226.819163069 501.565481201 c 0
 187.753535816 501.565481201 146.227495934 475.264635413 146.227495934 432.56219309 c 1
 191 371 l 1
 177.528911607 347.906705613 155.726815213 335.944628885 134.497388019 335.944628885 c 0
 87.6475340335 335.944628885 67 368.90425106 67 415 c 0
95 130 m 1
 107 165 l 1
 115 169 124 172 131 172 c 0
 131.236453202 172.004926108 131.471960009 172.007377029 131.706533928 172.007377029 c 0
 179.090465675 172.007377029 188.408866995 72 271 72 c 0
 320 72 370 101 371 197 c 1
 406 197 l 1
 406.982755728 95.7761599807 464.945402412 71.9783082165 523.896187265 71.9783082165 c 0
 586.200672026 71.9783082165 638 116.718415806 638 194 c 0
 638 275.772692542 559.983416169 345.26420928 439.643840367 345.26420928 c 0
 380.265743801 345.26420928 311.835174829 327.819186271 281 311 c 1
 335 364 l 1
 347.452810551 367.831634016 385.179524427 391.012279158 461.823715208 391.012279158 c 0
 575.987953375 391.012279158 696 330.772878088 696 182 c 0
 696 47.2467431379 620.491372745 -36.0120708321 513.613196887 -36.0120708321 c 0
 430.076049697 -36.0120708321 397.546066129 8.70770151412 379 49 c 1
 397 49 l 1
 379.737304688 7.81640625 336.954101562 -36 272 -36 c 0
 127.721155519 -36 153.547543458 134.934171954 109.631651492 134.934171954 c 0
 105.454286159 134.934171954 100.645879733 133.38752784 95 130 c 1
EndSplineSet
Refer: 575 -1 S 1 0 0 1 795 1 2
Layer: 2
Layer: 3
LCarets2: 1 0
Ligature2: "si_blws_1 subtable" si_Ka si_MatraU
EndChar

StartChar: si_GU
Encoding: 111 -1 107
GlifName: si_G_U_
Width: 959
VWidth: -24
Flags: HMW
LayerCount: 4
Back
SplineSet
665.759765625 8.6123046875 m 0xee
 798.73046875 0.5859375 856.623046875 108.114257812 856.623046875 229.600585938 c 0
 856.623046875 353.83984375 776.359375 445.533203125 636.9375 445.533203125 c 0
 556.0703125 445.533203125 445.365234375 397.33203125 438.877929688 254.823242188 c 1
 388.610351562 238.01171875 l 1
 384.657226562 437.1640625 515.451171875 542.603515625 655.6796875 542.603515625 c 0
 827.643554688 542.603515625 920.870117188 411.889648438 920.870117188 267.375 c 0
 920.870117188 101.1640625 847.109375 -54.5166015625 664.411132812 -45.814453125 c 4
 665.759765625 8.6123046875 l 0xee
111.974609375 245.841796875 m 0
 111.224609375 128.7109375 180.21484375 50.8837890625 308 47.5908203125 c 0
 414.426757812 44.8486328125 485.6328125 87.9111328125 488 160 c 0
 489.319335938 200.172851562 462.767578125 237 389 237 c 1
 440 291 l 1
 489 290 551.65234375 244.21484375 552 160 c 0
 552.451171875 47.953125 473.594726562 -55.0048828125 308.598632812 -55.0048828125 c 0
 140.69140625 -55.0048828125 53.9951171875 61.9140625 53.9951171875 221.564453125 c 0
 53.9951171875 428.865234375 210.2890625 536 337 538 c 0
 344.879882812 462.879882812 l 0xde
 249.916015625 462.879882812 113.059570312 415.424804688 111.974609375 245.841796875 c 0
EndSplineSet
Refer: 575 -1 N 1 0 0 1 665 1 2
Fore
SplineSet
53.9951171875 221.564453125 m 0
 53.9951171875 428.865234375 210.2890625 536 337 538 c 1
 337 462.879882812 l 1
 241.590554086 462.879882812 111.968558438 414.808979975 111.968558438 243.954944533 c 0
 111.968558438 124.760114358 184.292976321 47.4672417361 317.513504254 47.4672417361 c 0
 418.938043587 47.4672417361 488.04658674 90.3761309858 488.04658674 162.823479171 c 0
 488.04658674 201.881753743 461.035717971 237 389 237 c 1
 440 291 l 1
 489.300980971 289.993857531 552.001924841 243.820283358 552.001924841 159.044207233 c 0
 552.001924841 47.3683133416 473.125462188 -55.0048828125 308.598632812 -55.0048828125 c 0
 140.69140625 -55.0048828125 53.9951171875 61.9140625 53.9951171875 221.564453125 c 0
391.167684725 238.866995014 m 1
 391.167684725 432.347898396 517.522364898 542.603515625 655.6796875 542.603515625 c 0
 827.643554688 542.603515625 920.870117188 411.889648438 920.870117188 267.375 c 0
 920.870117188 105.619414168 851.010748998 -46.1628684214 678.86888751 -46.1628684214 c 0
 674.127459102 -46.1628684214 669.308433377 -46.0477177473 664.411132812 -45.814453125 c 5
 664.411132812 8.6123046875 l 1
 669.101913855 8.32916012884 675.047896537 8.18981791239 679.552569681 8.18981791239 c 0
 802.7429541 8.18981791239 856.623046875 112.399906843 856.623046875 229.600585938 c 0
 856.623046875 353.83984375 776.359375 445.533203125 636.9375 445.533203125 c 0
 556.0703125 445.533203125 445.365234375 397.33203125 438.877929688 254.823242188 c 1
 391.167684725 238.866995014 l 1
EndSplineSet
Refer: 575 -1 N 1 0 0 1 665 1 2
Layer: 2
Layer: 3
LCarets2: 1 0
Ligature2: "si_blws_1 subtable" si_Ga si_MatraU
EndChar

StartChar: si_C.halant
Encoding: 135 -1 132
GlifName: si_C_.halant
Width: 828
VWidth: -14
Flags: HMW
LayerCount: 4
Back
Refer: 5 3488 N 1 0 0 1 0 0 2
Fore
SplineSet
-514 757 m 1048
EndSplineSet
Refer: 5 3488 N 1 0 0 1 0 0 2
Refer: 576 -1 S 1 0 0 1 48 0 2
Layer: 2
Layer: 3
Ligature2: "si_halant_1 subtable" si_Ca si_Halant
EndChar

StartChar: si_Tt.halant
Encoding: 197 -1 202
GlifName: si_T_t.halant
Width: 762
VWidth: -14
Flags: HMW
LayerCount: 4
Back
SplineSet
353.442382812 334 m 1xfa
 327.442382812 346 293.442382812 352 260.442382812 350 c 0
 190.369140625 345.8515625 117.5546875 302.787109375 116.442382812 218 c 0
 115.442382812 140.005859375 171.440018336 54.38494186 334.442382812 55 c 0
 547.44140625 55.8037109375 618.874023438 215.23046875 627.442382812 340 c 0
 690.442382812 332 l 0
 691.631835938 137.185546875 601.442382812 -57 341.442382812 -59 c 0
 148.44763624 -60.4845749736 38.5732421875 38.0029296875 35.4423828125 176 c 0
 32.1533203125 320.966796875 154.427734375 394.418945312 265.442382812 398 c 0
 327.442382812 400 367.442382812 379 367.442382812 379 c 1
 353.442382812 334 l 1xfa
EndSplineSet
Refer: 576 -1 N 1 0 0 1 -20 0 2
Fore
Refer: 0 3495 N 1 0 0 1 0 0 2
Refer: 576 -1 N 1 0 0 1 -3 0 2
Layer: 2
Layer: 3
LCarets2: 1 0
Ligature2: "si_halant_1 subtable" si_Tta si_Halant
EndChar

StartChar: si_TtI
Encoding: 198 -1 203
GlifName: si_T_tI_
Width: 771
VWidth: -14
Flags: HMW
LayerCount: 4
Back
SplineSet
366 329 m 1xfc
 343 338 300 345 273 343 c 0
 202 338 115.5149564 300.478264259 117 198 c 0
 118.4140625 100.419921875 217 45 350 44 c 4
 544.997070312 42.5341796875 612.875976562 198.346679688 616 323 c 0
 682 322 l 0
 680.189453125 113.185546875 570 -59 330 -59 c 4
 147 -59 40.7906648242 50.1077332517 46 176 c 0
 52 321 165 394 276 398 c 0
 338 400 378 379 378 379 c 1
 366 329 l 1xfc
EndSplineSet
Refer: 560 -1 N 1 0 0 1 0 0 2
Fore
SplineSet
35.3774587946 181.69974939 m 0
 35.3774587946 324.826062289 158.736177519 398.134297521 273.758874172 398.134297521 c 0
 330.99610182 398.134297521 367.442382812 379 367.442382812 379 c 5
 353.442382812 334 l 5
 330.744815811 344.475800154 301.950449427 350.379000772 273.046988528 350.379000772 c 0
 194.004599422 350.379000772 116.432046656 296.252203686 116.432046656 206.116663248 c 0
 116.432046656 108.481461729 200.114923593 42.9944465122 364.80978819 42.9944465122 c 0
 556.381755959 42.9944465122 650.679874155 184.664658968 656.442382812 327 c 5
 718.442382812 327 l 5
 717.991854365 98.9509594463 583.911536922 -59.0210713393 356.292046557 -59.0210713393 c 0
 152.527091621 -59.0210713393 35.3774587946 40.0140048816 35.3774587946 181.69974939 c 0
EndSplineSet
Refer: 560 -1 N 1 0 0 1 38 0 2
Layer: 2
Layer: 3
LCarets2: 1 0
Ligature2: "si_abvs_1 subtable" si_Tta si_MatraI
Ligature2: "'abvs' Above Base Substitutions in Sinhala lookup 0-1" si_Tta si_MatraI
EndChar

StartChar: si_TtIi
Encoding: 199 -1 204
GlifName: si_T_tI_i
Width: 745
VWidth: -14
Flags: HMW
LayerCount: 4
Back
SplineSet
366 329 m 1xfd
 343 338 300 345 273 343 c 0
 202 338 115.5149564 300.478264259 117 198 c 0
 118.4140625 100.419921875 207 45 340 44 c 0
 534.997070312 42.5341796875 603.875976562 198.346679688 607 323 c 0
 682 322 l 0
 680.189453125 113.185546875 560 -59 320 -59 c 0
 137 -59 40.7906648242 50.1077332517 46 176 c 0
 52 321 165 394 276 398 c 0
 338 400 378 379 378 379 c 1
 366 329 l 1xfd
EndSplineSet
Refer: 561 -1 S 1 0 0 1 0 0 2
Fore
SplineSet
35.3774587946 181.69974939 m 0
 35.3774587946 324.826062289 158.736177519 398.134297521 273.758874172 398.134297521 c 0
 330.99610182 398.134297521 367.442382812 379 367.442382812 379 c 1
 353.442382812 334 l 1
 330.744815811 344.475800154 301.950449427 350.379000772 273.046988528 350.379000772 c 0
 194.004599422 350.379000772 116.432046656 296.252203686 116.432046656 206.116663248 c 0
 116.432046656 108.481461729 200.114923593 42.9944465122 364.80978819 42.9944465122 c 0
 556.381755959 42.9944465122 650.679874155 184.664658968 656.442382812 327 c 1
 718.442382812 327 l 1
 717.991854365 98.9509594463 583.911536922 -59.0210713393 356.292046557 -59.0210713393 c 0
 152.527091621 -59.0210713393 35.3774587946 40.0140048816 35.3774587946 181.69974939 c 0
EndSplineSet
Refer: 561 -1 S 1 0 0 1 50 0 2
Layer: 2
Layer: 3
LCarets2: 1 0
Ligature2: "si_abvs_2 subtable" si_Tta si_MatraIi
EndChar

StartChar: si_TtU
Encoding: 200 -1 205
GlifName: si_T_tU_
Width: 783
VWidth: -14
Flags: HMW
LayerCount: 4
Back
SplineSet
212 -117 m 1
 228.772460938 -152 l 1
 228.76953125 -143.934570312 162.1875 -188.71875 162.190429688 -228 c 0
 162.1953125 -274.552734375 189.481445312 -288 248 -288 c 1
 615 -288 l 1
 615 167 l 5
 662 167 l 5
 668 -369 l 1
 668 -369 387.048828125 -371.4765625 176 -372.586914062 c 0
 96 -373 54.755859375 -323.6015625 54 -273 c 0
 52.37109375 -163.938476562 212 -117 212 -117 c 1
EndSplineSet
Refer: 0 3495 N 1 0 0 1 0 0 2
Fore
Refer: 81 -1 S 1 0 0 1 670 0 2
Refer: 0 3495 N 1 0 0 1 0 0 2
Layer: 2
Layer: 3
LCarets2: 1 0
Ligature2: "si_blws_1 subtable" si_Tta si_MatraU
EndChar

StartChar: si_DdI
Encoding: 213 -1 218
GlifName: si_D_dI_
Width: 854
VWidth: -14
Flags: HMW
LayerCount: 4
Back
Refer: 40 3497 N 1 0 0 1 0 0 2
Fore
SplineSet
821.450195312 321.625 m 4
 821.450195312 159.064453125 769.649414062 -42.0517578125 601.009765625 -42.0517578125 c 0
 532.021484375 -42.0517578125 477.1796875 -11.0986328125 457.442382812 51 c 1
 433.47265625 -16.640625 361.798828125 -41.001953125 300.967773438 -41.001953125 c 0
 202.490234375 -41.001953125 111.413085938 10.681640625 111.413085938 131.486328125 c 0
 111.413085938 265.40625 235.354492188 341.293945312 341.442382812 342 c 0
 332.166992188 310.391601562 l 1
 246.116210938 310.391601562 182.439453125 241.797851562 182.439453125 166.115234375 c 0
 182.439453125 106.049804688 225.283203125 60.9990234375 303.64453125 60.9990234375 c 0
 374.630859375 60.9990234375 436.442382812 101.407226562 436.442382812 195 c 1
 443.446289062 195.030273438 468.297851562 195.259765625 475 195.6796875 c 1
 475 100.482421875 537.365234375 60.9423828125 611.086914062 60.9423828125 c 0
 698.4375 60.9423828125 759.629882812 154.397460938 759.629882812 321.989257812 c 0
 821.450195312 321.625 l 4
31 348 m 1
 443 345 l 1
 438 303 l 1
 135 303 l 1
 31 285 l 1
 31 348 l 1
405 325 m 1
 407.171875 335.696289062 408.227539062 345.934570312 408.227539062 355.647460938 c 0
 408.227539062 419.63671875 362.421875 460.885742188 288.291015625 460.885742188 c 0
 282.057617188 460.885742188 275.624023438 460.594726562 269 460 c 1
 219 378 l 1
 189 381 165 398 165 435 c 0
 165 502 237 527 290 527 c 0
 380.079101562 527 450.567382812 471.989257812 450.567382812 372.237304688 c 0
 450.567382812 338.047851562 443.940429688 321.739257812 438 303 c 1
 405 325 l 1
EndSplineSet
Refer: 560 -1 N 1 0 0 1 141 0 2
Layer: 2
Layer: 3
LCarets2: 1 0
Ligature2: "si_abvs_1 subtable" si_Dda si_MatraI
EndChar

StartChar: si_DdIi
Encoding: 214 -1 219
GlifName: si_D_dI_i
Width: 854
VWidth: -14
Flags: HMW
LayerCount: 4
Back
Refer: 40 3497 N 1 0 0 1 0 0 2
Fore
SplineSet
822.450195312 321.625 m 4
 822.450195312 159.064453125 788.649414062 -42.0517578125 601.009765625 -42.0517578125 c 4
 532.021484375 -42.0517578125 477.1796875 -11.0986328125 457.442382812 51 c 1
 433.47265625 -16.640625 361.798828125 -41.001953125 300.967773438 -41.001953125 c 0
 202.490234375 -41.001953125 111.413085938 10.681640625 111.413085938 131.486328125 c 0
 111.413085938 265.40625 235.354492188 341.293945312 341.442382812 342 c 0
 332.166992188 310.391601562 l 1
 246.116210938 310.391601562 182.439453125 241.797851562 182.439453125 166.115234375 c 0
 182.439453125 106.049804688 225.283203125 60.9990234375 303.64453125 60.9990234375 c 0
 374.630859375 60.9990234375 436.442382812 101.407226562 436.442382812 195 c 1
 443.446289062 195.030273438 468.297851562 195.259765625 475 195.6796875 c 1
 475 100.482421875 537.365234375 60.9423828125 611.086914062 60.9423828125 c 0
 698.4375 60.9423828125 758.629882812 154.397460938 758.629882812 321.989257812 c 4
 822.450195312 321.625 l 4
31 348 m 1
 443 345 l 1
 438 303 l 1
 135 303 l 1
 31 285 l 1
 31 348 l 1
405 325 m 1
 407.171875 335.696289062 408.227539062 345.934570312 408.227539062 355.647460938 c 0
 408.227539062 419.63671875 362.421875 460.885742188 288.291015625 460.885742188 c 0
 282.057617188 460.885742188 275.624023438 460.594726562 269 460 c 1
 219 378 l 1
 189 381 165 398 165 435 c 0
 165 502 237 527 290 527 c 0
 380.079101562 527 450.567382812 471.989257812 450.567382812 372.237304688 c 0
 450.567382812 338.047851562 443.940429688 321.739257812 438 303 c 1
 405 325 l 1
EndSplineSet
Refer: 561 -1 N 1 0 0 1 141 0 2
Layer: 2
Layer: 3
LCarets2: 1 0
Ligature2: "si_abvs_2 subtable" si_Dda si_MatraIi
EndChar

StartChar: si_DdU
Encoding: 215 -1 220
GlifName: si_D_dU_
Width: 824
VWidth: -14
Flags: HMW
LayerCount: 4
Back
SplineSet
257 -115 m 17xf7
 283.772460938 -160 l 1
 283.76953125 -152.99609375 217.1875 -191.887695312 217.190429688 -226 c 0
 217.194335938 -272.552734375 241.30078125 -285.247070312 293 -285.247070312 c 1
 680 -287 l 9
 680 89 l 25
 737 149 l 25
 743 -367 l 17
 743 -367 397.004882812 -369.6796875 221 -370.586914062 c 0
 141 -371 99.755859375 -321.6015625 99 -271 c 0
 97.37109375 -161.938476562 257 -115 257 -115 c 17xf7
EndSplineSet
Refer: 40 3497 N 1 0 0 1 -40 0 2
Fore
SplineSet
98.9876178458 -269.343924644 m 0
 98.9876178458 -161.463141736 257 -115 257 -115 c 1
 283.094480378 -158.860428809 l 1
 274.092382939 -158.860428809 217.190429591 -194.608848438 217.190429591 -225.99774857 c 0
 217.192428705 -272.55224766 241.300755306 -285.247070312 293 -285.247070312 c 2
 680 -285.247070312 l 9
 680 89 l 25
 737 149 l 25
 737 -367 l 17
 737 -367 395.685579733 -370.589486823 220.004828198 -370.589486823 c 0
 140.169961771 -370.589486823 98.9876178458 -321.070771019 98.9876178458 -269.343924644 c 0
EndSplineSet
Refer: 40 3497 N 1 0 0 1 -40 0 2
Layer: 2
Layer: 3
LCarets2: 1 0
Ligature2: "si_blws_1 subtable" si_Dda si_MatraU
EndChar

StartChar: si_TIi
Encoding: 240 -1 245
GlifName: si_T_I_i
Width: 1052
VWidth: -24
Flags: HMW
AnchorPoint: "si_MaI" 622 489 mark 0
LayerCount: 4
Back
SplineSet
317 427 m 1x2d80
 319.586914062 689.754882812 480.518547864 816.205147793 652 833 c 0
 786.000976562 846.124023438 920.791692129 777.673684576 916 642 c 0
 913.940185547 583.67767693 881.333333333 492 786 492 c 1
 676.076686501 492.000002228 633.558376437 552.792051998 636 619 c 0
 637.942019745 679.022037163 687.117908899 724.326048316 740 743 c 1
 760.968082501 734.068306627 781.218291421 724.317699544 800 714 c 1
 754 714 716.37918509 680.631318228 712 629 c 0
 710.627174559 594.718865376 732.490804277 555 775 555 c 0
 806.914762406 555 825.445623509 579.684590917 825 608 c 0
 823.291521193 716.558627094 717.885723905 746.201365225 610 736 c 0
 485.984375 724.2734375 365.77734375 641.188476562 364 427 c 1
 317 427 l 1x2d80
EndSplineSet
Refer: 8 3501 N 1 0 0 1 0 0 2
Fore
Refer: 574 -1 S 1 0 0 1 349 6 2
Refer: 8 3501 N 1 0 0 1 0 0 2
Layer: 2
Layer: 3
LCarets2: 1 0
Ligature2: "si_abvs_2 subtable" si_Ta si_MatraIi
EndChar

StartChar: si_TU
Encoding: 241 -1 246
GlifName: si_T_U_
Width: 1085
VWidth: -24
Flags: HMW
LayerCount: 4
Back
SplineSet
758 8 m 13
 788 -22 l 21
 775 -40 735.653320312 -70.2509765625 742 -124 c 4
 747.765148819 -172.824130769 798 -203 867 -202 c 4
 929.642578125 -201.091796875 975 -174 1010 -139 c 13
 1054 -228 l 4
 1001 -278 921.443359375 -295.733398438 857 -294 c 4
 765.02734375 -291.526367188 683.208984375 -256.041015625 683 -140 c 4
 682.877929688 -71.982421875 733.476258379 -13.4625335028 758 8 c 13
278 378 m 1
 290 401 293.788085938 421.989257812 293 440 c 0
 290.88671875 488.322265625 241.939453125 510.5859375 200 501 c 0
 168.6171875 493.826171875 143.75 469.586914062 140 425 c 1
 180 370 l 1
 166 346 142.997070312 333.926757812 121 335 c 0
 80 337 56 368 56 414 c 0
 56 494 122.979492188 562.083984375 220 558 c 0
 303.716796875 554.475585938 353.256835938 480.104492188 326 417 c 0
 310.53515625 381.197265625 326 405 313 388 c 1
 278 378 l 1
758 8 m 0
 781.990234375 8.53125 802.926757812 13.7314453125 821 22.541015625 c 1
 906.891601562 64.4072265625 928.108269354 187.794867069 905 279 c 0
 872.266601562 408.19140625 734.73046875 467.030273438 595 462 c 0
 503.25390625 458.697265625 432 431.771484375 345 374 c 1
 328 362 339 367 325 355 c 1
 228 276 176 211 76 79 c 1
 76 79 41.1279296875 98.5439453125 47 107 c 0
 147 251 207 322 305 413 c 1
 312 419 321 420 328 425 c 1
 420 505 533.100585938 555.721679688 642 561 c 0
 837.309570312 570.465820312 990.44140625 449.986328125 1005 282 c 0
 1016.22873366 152.436080151 954.948242188 30.9873046875 851.549804688 -19 c 1
 819.727539062 -34.384765625 783.916015625 -43 745 -43 c 0
 758 8 l 0
106 142 m 1
 121.827148438 148.801757812 135.977539062 157.05859375 149 157.575195312 c 0
 235.53125 161.009765625 244.237304688 64.6337890625 412 62 c 0
 543.998046875 59.927734375 621.387695312 124.006835938 620 205 c 0
 617.891601562 328.076171875 483.087890625 345.88671875 432 346 c 0
 350.086914062 346.181640625 292 328 259 310 c 1
 296 362 l 1
 309 366 372.00390625 395.240234375 444 394 c 0
 544.004882812 392.27734375 679 345 679 195 c 0
 679 89.8291015625 610 -44 412 -44 c 0
 282.072265625 -44 203.453125 7.7138671875 187 67.9970703125 c 0
 171.305664062 125.500976562 129.395507812 127.443359375 84 104 c 1
 106 142 l 1
EndSplineSet
Fore
SplineSet
682.999779523 -139.754267349 m 0
 682.999779523 -71.8415055165 733.505796326 -13.4366826683 758 8 c 13
 788 -22 l 21
 775.958547094 -38.6727809468 741.312486719 -65.8565074695 741.312486719 -112.489296413 c 0
 741.312486719 -170.353888117 792.692027201 -202.024108999 863.684038786 -202.024108999 c 0
 928.401769 -202.024108999 974.408628636 -174.591371364 1010 -139 c 13
 1054 -228 l 5
 1003.32609899 -275.805566987 928.375474331 -294.114655844 865.568809648 -294.114655844 c 0
 768.279827498 -294.114655844 683.106297308 -258.47381616 682.999779523 -139.754267349 c 0
56 414 m 0
 56 491.709013073 119.198193347 558.174724132 211.739550345 558.174724132 c 0
 284.700645595 558.174724132 333.513263707 508.069432011 333.513263707 453.081988616 c 0
 333.513263707 441.018928028 331.102015993 428.812087401 326 417 c 0
 319.554244029 402.077399255 318.481677818 397.509623281 318.481677818 396.026341399 c 0
 318.481677818 393.950890581 320.581592354 397.914390001 313 388 c 1
 278 378 l 1
 288.999824869 399.082997666 293.099580556 418.476467154 293.099580556 435.435012097 c 0
 293.099580556 479.665075289 257.413383587 503.18399828 219.498722409 503.18399828 c 0
 174.151880053 503.18399828 144.217266599 475.142640908 140 425 c 1
 180 370 l 1
 166.572546624 346.981508499 144.863477177 334.934204443 123.703151236 334.934204443 c 0
 80.6626067915 334.934204443 56 367.775318016 56 414 c 0
46.3337014176 104.843752644 m 0
 46.3337014176 105.619803821 46.5439971227 106.343334623 47 107 c 0
 147 251 206.771757017 322.255813626 305 413 c 0
 311.771757017 419.255813626 321.47511458 419.39782565 328 425 c 0
 420.47511458 504.39782565 533.100585938 555.721679688 642 561 c 0
 649.197770065 561.348845159 656.338256288 561.521204624 663.41663386 561.521204624 c 0
 848.408143172 561.521204624 990.977936079 443.795505208 1005 282 c 0
 1005.88402289 271.799609274 1006.31861923 261.649517821 1006.31861923 251.580637108 c 0
 1006.31861923 133.756019559 946.807678076 27.0521746199 851.549804688 -19 c 0
 819.727392932 -34.3844633612 783.916015625 -43 745 -43 c 1
 758 8 l 1
 867.849549529 10.4325553588 913.703922164 110.781305094 913.703922164 207.330835647 c 0
 913.703922164 383.845795865 769.65493366 462.296739959 611.458300966 462.296739959 c 0
 507.784629173 462.296739959 436.654080589 434.861980283 345 374 c 0
 328 362 339.259108476 366.689899742 325 355 c 0
 228.259108476 275.689899742 176 211 76 79 c 1
 76 79 46.3337014176 95.626386444 46.3337014176 104.843752644 c 0
84 104 m 1
 106 142 l 1
 124.022067186 149.745029798 136.283677051 157.664846637 153.473280293 157.664846637 c 0
 235.545697662 157.664846637 251.125257828 61.9511220946 418.198301028 61.9511220946 c 0
 545.268162212 61.9511220946 620.018350165 124.152994676 620.018350165 202.860989635 c 0
 620.018350165 328.066883198 482.690835123 346.001349777 430.783340442 346.001349777 c 0
 349.51152125 346.001349777 291.836380406 327.910752948 259 310 c 1
 296 362 l 1
 308.730408226 365.917048685 369.412282368 394.038331181 439.532839242 394.038331181 c 0
 542.330521333 394.038331181 679 345.958768469 679 195 c 0
 679 89.8291015625 610 -44 412 -44 c 0
 282.072265625 -44 203.453125 7.7138671875 187 67.9970703125 c 0
 177.225343512 103.811324101 157.281632627 118.073394991 132.660279873 118.073394991 c 0
 117.749217157 118.073394991 101.122537441 112.842500458 84 104 c 1
EndSplineSet
Layer: 2
Layer: 3
LCarets2: 1 0
Ligature2: "si_blws_1 subtable" si_Ta si_MatraU
EndChar

StartChar: si_DI
Encoding: 255 -1 263
GlifName: si_D_I_
Width: 619
VWidth: -17
Flags: HMW
LayerCount: 4
Back
SplineSet
207 451 m 17
 144 471 106.650390625 537.995117188 106 605 c 0
 105 708 213 812 354 810 c 0
 458 809 555.903320312 734.702148438 558 629 c 0
 559.311523438 562.887695312 513 513 478 499 c 9
 459 524 l 17
 482 544 498.944335938 563.61328125 497 605 c 4
 492.84375 693.477539062 390 711.96875 322 713 c 4
 227.005859375 714.44140625 168 656 169 591 c 0
 169.831054688 537.006835938 201 496 224 486 c 9
 207 451 l 17
EndSplineSet
Refer: 45 3503 N 1 0 0 1 0 0 2
Fore
SplineSet
322.545898438 783.825195312 m 0
 211.98046875 781.64453125 142.671875 706.411132812 142.671875 628.657226562 c 0
 142.671875 563.776367188 187.462890625 523.29296875 263.015625 514 c 9
 259.015625 468 l 17
 175.266601562 468.79296875 84.4358884699 509.947347077 76.9140625 621.629882812 c 0
 69.9140625 725.564453125 153.952148438 870.852539062 363.899414062 870.852539062 c 0
 525.059570312 870.852539062 615.249023438 774.3203125 615.249023438 647.8515625 c 0
 615.249023438 560.765625 551.728515625 479 486.015625 479 c 9
 471.015625 500 l 26
 471.03125 500.013671875 532.022460938 563.084960938 532.022460938 636.399414062 c 0
 532.022460938 710.522460938 474.6796875 786.825195312 322.545898438 783.825195312 c 0
EndSplineSet
Refer: 45 3503 N 1 0 0 1 0 0 2
Layer: 2
Layer: 3
LCarets2: 1 0
Ligature2: "si_abvs_1 subtable" si_Da si_MatraI
Ligature2: "'abvs' Above Base Substitutions in Sinhala lookup 0-1" si_Da si_MatraI
EndChar

StartChar: si_DIi
Encoding: 256 -1 264
GlifName: si_D_I_i
Width: 619
VWidth: -17
Flags: HMW
LayerCount: 4
Back
Refer: 45 3503 N 1 0 0 1 0 0 2
Fore
SplineSet
59.9462890625 649.654296875 m 0
 59.9462890625 749.655273438 156.338400487 873.58021133 344.958007812 870.282226562 c 4
 516.53515625 867.282226562 588.240234375 772.04296875 588.240234375 667.46484375 c 0
 588.240234375 563.8984375 508.935546875 498.629882812 428.440429688 498.629882812 c 0
 357.611328125 498.629882812 316.961914062 549.797851562 316.961914062 604.541992188 c 0
 316.961914062 673.668945312 362.6640625 712.731445312 406.015625 723 c 0
 417.645507812 725.822265625 428.768554688 727.020507812 439.2734375 727.020507812 c 0
 498.446289062 727.020507812 538.015625 689 538.015625 689 c 1
 538.015625 656 l 1
 538.015625 656 491.8515625 677.454101562 455.80859375 677.454101562 c 0
 416.703125 677.454101562 389.01171875 652.50390625 389.01171875 608.916015625 c 0
 389.01171875 569.82421875 412.549804688 551.814453125 439.204101562 551.814453125 c 0
 477.666015625 551.814453125 507.455078125 584.8828125 507.455078125 644.287109375 c 0
 507.455078125 653.805664062 506.676757812 664.045898438 505.015625 675 c 0
 497.947265625 731.591796875 438.09765625 786.220703125 331.344726562 790.220703125 c 4
 217.026968064 794.504154973 125.823242188 739.709634971 125.823242188 640.990234375 c 4
 125.823242188 579.852539062 185.211914062 527 236.015625 527 c 1
 236.015625 478 l 1
 158.579101562 488.077148438 59.9462890625 537.26171875 59.9462890625 649.654296875 c 0
EndSplineSet
Refer: 45 3503 N 1 0 0 1 0 0 2
Layer: 2
Layer: 3
LCarets2: 1 0
Ligature2: "si_abvs_2 subtable" si_Da si_MatraIi
EndChar

